<svg width="200" height="200" viewBox="0 0 200 200" fill="none" xmlns="http://www.w3.org/2000/svg">
<rect width="200" height="200" rx="100" fill="#181818"/>
<path d="M147.726 94.4177L145.521 105.058C145.206 106.848 144.246 108.459 142.825 109.583C141.434 110.714 139.697 111.326 137.909 111.313H120.273C119.496 111.359 118.719 111.228 118 110.928C117.281 110.629 116.639 110.168 116.122 109.583C115.181 108.496 114.895 107.01 115.277 105.146L118.877 88.1402H142.744C144.618 88.1402 145.999 88.7021 146.925 89.863C147.851 91.0238 148.086 92.4583 147.726 94.4177ZM158.351 92.791C159.13 89.0496 158.535 85.8406 156.588 83.127C154.64 80.4134 151.562 79.0012 147.234 79.0012H74.8624H62.0473C59.5208 78.9709 57.0205 79.5196 54.736 80.6057V80.6057C53.8478 81.0398 52.9995 81.552 52.2009 82.1362V82.1362C51.7967 82.432 51.3999 82.7573 51.0105 83.1049L50.452 83.615L49.8054 84.2583L49.2543 84.8646C49.0779 85.0717 48.9089 85.2787 48.7326 85.4783L48.2476 86.1142C47.939 86.5431 47.6451 86.9719 47.3805 87.4156C47.2409 87.6374 47.116 87.8592 46.9911 88.0958C46.1618 89.5824 45.5646 91.1884 45.2202 92.8575L44.6691 95.5342L42.3324 106.81C41.688 109.522 41.9862 112.374 43.1774 114.892C43.4554 115.45 43.7747 115.986 44.1327 116.496C44.3164 116.755 44.5148 117.006 44.7132 117.236C44.9116 117.465 45.1394 117.709 45.3672 117.916C45.5141 118.062 45.6686 118.2 45.8301 118.33V118.33C46.1494 118.595 46.483 118.842 46.8294 119.069C48.8389 120.225 51.1299 120.791 53.4427 120.703H78.2057C81.6407 120.621 84.9411 119.343 87.5451 117.088C90.2395 114.996 92.1069 112.008 92.8137 108.659L92.8799 108.318L95.5325 95.5342H75.0093L73.2458 103.897H83.5331L83.0922 106.004C82.6434 107.426 81.7713 108.676 80.5939 109.583C79.2149 110.708 77.4903 111.317 75.7147 111.306H57.8589C57.6827 111.317 57.506 111.317 57.3298 111.306C56.7557 111.261 56.1912 111.131 55.6545 110.921C55.4817 110.853 55.3146 110.772 55.1548 110.677C54.6688 110.405 54.2356 110.047 53.8763 109.62C52.9357 108.533 52.6491 107.047 53.0312 105.183L55.2356 94.4473C55.6126 92.6644 56.5661 91.0574 57.9471 89.8778C59.2476 88.7863 60.8829 88.1803 62.5764 88.1624C62.6546 88.1548 62.7333 88.1548 62.8115 88.1624H108.517L104.563 106.884C104.152 108.525 104.095 110.235 104.397 111.9C104.699 113.564 105.352 115.144 106.312 116.533C108.326 119.343 111.404 120.74 115.615 120.74H138.644C142.716 120.803 146.659 119.298 149.666 116.533C152.593 114.059 154.624 110.679 155.441 106.921L158.351 92.791Z" fill="#FF3535"/>
</svg>
