<svg width="173" height="46" viewBox="0 0 173 46" fill="none" xmlns="http://www.w3.org/2000/svg">
<g clip-path="url(#clip0_102_900)">
<path d="M172.671 0.492859H0.493835V45.6714H172.671V0.492859Z" fill="#058BAA" stroke="black" stroke-width="0.5" stroke-miterlimit="10"/>
<path d="M168.885 4.92857H4.11517V41.0714H168.885V4.92857Z" fill="#02A7D3"/>
<path d="M165.593 9.03572H7.40723V36.8H165.593V9.03572Z" fill="#00B8FC"/>
<path d="M52.6737 32.3643V45.6714H47.0771V14.7857H52.6737V17.4143C54.1551 15.2786 56.4596 14.1286 59.2579 14.1286C62.2208 14.1286 64.5252 15.1143 66.5005 17.0857C68.3112 19.0571 69.2988 21.6857 69.2988 24.8071C69.2988 27.9286 68.3112 30.3929 66.5005 32.5286C64.6898 34.5 62.2208 35.65 59.2579 35.65C56.4596 35.65 54.3197 34.5 52.6737 32.3643ZM61.7269 20.8643C60.7393 19.7143 59.2579 19.2214 57.7764 19.2214C56.1304 19.2214 54.8135 19.7143 53.8259 20.8643C52.8383 22.0143 52.1798 23.3286 52.1798 24.9714C52.1798 26.6143 52.6737 27.9286 53.8259 29.0786C54.9781 30.2286 56.295 30.7214 57.7764 30.7214C59.4225 30.7214 60.7393 30.2286 61.7269 29.0786C62.7146 27.9286 63.373 26.6143 63.373 24.9714C63.373 23.3286 62.7146 21.85 61.7269 20.8643Z" fill="black"/>
<path d="M72.4263 0.164288H78.0228V34.9929H72.4263V0.164288Z" fill="black"/>
<path d="M97.7755 17.4143V14.7857H103.372V34.8286H97.7755V32.2C96.294 34.3357 94.1541 35.4857 91.5205 35.4857C88.5576 35.4857 86.0885 34.5 84.1132 32.3643C82.138 30.2286 81.3149 27.7643 81.3149 24.8071C81.3149 21.85 82.3026 19.2214 84.1132 17.25C85.9239 15.2786 88.393 14.1286 91.3559 14.1286C94.1541 14.1286 96.294 15.2786 97.7755 17.4143ZM96.7878 20.8643C95.8002 19.7143 94.3187 19.2214 92.8373 19.2214C91.1912 19.2214 89.8744 19.7143 88.8868 20.8643C87.8991 22.0143 87.2407 23.3286 87.2407 24.9714C87.2407 26.6143 87.7345 27.9286 88.8868 29.0786C89.8744 30.2286 91.3559 30.7214 92.8373 30.7214C94.4834 30.7214 95.8002 30.2286 96.7878 29.0786C97.7755 27.9286 98.4339 26.6143 98.4339 24.9714C98.4339 23.3286 97.7755 21.85 96.7878 20.8643Z" fill="black"/>
<path d="M107.158 45.6714L114.565 31.8714L105.018 14.7857H111.602L117.857 26.2857L123.454 14.7857H129.873L113.578 45.6714H107.158Z" fill="black"/>
</g>
<defs>
<clipPath id="clip0_102_900">
<rect width="173" height="46" fill="white"/>
</clipPath>
</defs>
</svg>
