<svg width="255" height="32" viewBox="0 0 255 32" fill="none" xmlns="http://www.w3.org/2000/svg">
<path d="M16.92 18.368V23.232C15.3413 24.064 13.5813 24.48 11.64 24.48C8.52533 24.48 5.92267 23.488 3.832 21.504C1.54933 19.3067 0.408 16.5867 0.408 13.344C0.408 9.888 1.54933 7.104 3.832 4.992C5.83733 3.11467 8.45067 2.176 11.672 2.176C13.5493 2.176 15.2987 2.61333 16.92 3.488V8.352C15.5333 6.752 13.816 5.952 11.768 5.952C9.67733 5.952 7.97067 6.688 6.648 8.16C5.34667 9.61067 4.696 11.36 4.696 13.408C4.696 15.648 5.42133 17.4293 6.872 18.752C8.32267 20.0533 10.008 20.704 11.928 20.704C13.9333 20.704 15.5973 19.9253 16.92 18.368ZM20.1685 24V0.0319996H24.0725V11.936C25.1392 10.4427 26.5685 9.696 28.3605 9.696C30.1738 9.696 31.5392 10.2613 32.4565 11.392C33.1818 12.288 33.5445 13.5893 33.5445 15.296V24H29.6405V16.448C29.6405 15.1467 29.3952 14.24 28.9045 13.728C28.4565 13.2587 27.8485 13.024 27.0805 13.024C26.0138 13.024 25.2138 13.4293 24.6805 14.24C24.2752 14.88 24.0725 15.776 24.0725 16.928V24H20.1685ZM38.8943 11.648C40.3023 10.3467 42.1689 9.696 44.4943 9.696C46.8196 9.696 48.6863 10.3467 50.0943 11.648C51.6516 13.056 52.4303 14.8693 52.4303 17.088C52.4303 19.2853 51.6516 21.088 50.0943 22.496C48.6863 23.7973 46.8196 24.448 44.4943 24.448C42.1689 24.448 40.3023 23.7973 38.8943 22.496C37.3369 21.088 36.5583 19.2853 36.5583 17.088C36.5583 14.8693 37.3369 13.056 38.8943 11.648ZM41.7103 19.84C42.4569 20.608 43.3849 20.992 44.4943 20.992C45.6036 20.992 46.5316 20.608 47.2783 19.84C48.0249 19.072 48.3983 18.1547 48.3983 17.088C48.3983 16 48.0249 15.072 47.2783 14.304C46.5316 13.536 45.6036 13.152 44.4943 13.152C43.3849 13.152 42.4569 13.536 41.7103 14.304C40.9636 15.072 40.5903 16 40.5903 17.088C40.5903 18.1547 40.9636 19.072 41.7103 19.84ZM57.0818 11.648C58.4898 10.3467 60.3564 9.696 62.6818 9.696C65.0071 9.696 66.8738 10.3467 68.2818 11.648C69.8391 13.056 70.6178 14.8693 70.6178 17.088C70.6178 19.2853 69.8391 21.088 68.2818 22.496C66.8738 23.7973 65.0071 24.448 62.6818 24.448C60.3564 24.448 58.4898 23.7973 57.0818 22.496C55.5244 21.088 54.7458 19.2853 54.7458 17.088C54.7458 14.8693 55.5244 13.056 57.0818 11.648ZM59.8978 19.84C60.6444 20.608 61.5724 20.992 62.6818 20.992C63.7911 20.992 64.7191 20.608 65.4658 19.84C66.2124 19.072 66.5858 18.1547 66.5858 17.088C66.5858 16 66.2124 15.072 65.4658 14.304C64.7191 13.536 63.7911 13.152 62.6818 13.152C61.5724 13.152 60.6444 13.536 59.8978 14.304C59.1511 15.072 58.7778 16 58.7778 17.088C58.7778 18.1547 59.1511 19.072 59.8978 19.84ZM83.1093 11.168L81.1892 13.44C80.5279 12.8213 79.7706 12.512 78.9173 12.512C78.4479 12.512 78.0746 12.6187 77.7973 12.832C77.5413 13.024 77.4133 13.2907 77.4133 13.632C77.4133 14.1867 77.8293 14.6027 78.6613 14.88L79.5893 15.168C81.4026 15.744 82.5759 16.4053 83.1093 17.152C83.5786 17.792 83.8133 18.56 83.8133 19.456C83.8133 20.864 83.3013 22.0373 82.2773 22.976C81.2106 23.9573 79.8239 24.448 78.1173 24.448C75.9626 24.448 74.1706 23.68 72.7413 22.144L74.7893 19.776C75.7066 20.8427 76.7306 21.376 77.8613 21.376C78.4159 21.376 78.8746 21.248 79.2373 20.992C79.5999 20.7147 79.7812 20.3413 79.7812 19.872C79.7812 19.232 79.3759 18.7627 78.5653 18.464L77.6693 18.144C76.2826 17.6533 75.2906 17.0987 74.6933 16.48C73.9893 15.7333 73.6373 14.848 73.6373 13.824C73.6373 12.544 74.1173 11.4987 75.0773 10.688C75.9093 10.0267 77.1146 9.696 78.6933 9.696C80.3573 9.696 81.8293 10.1867 83.1093 11.168ZM96.5908 19.552L100.175 20.128C100.025 20.512 99.8228 20.896 99.5668 21.28C99.3321 21.6427 98.9588 22.1013 98.4468 22.656C97.9348 23.1893 97.2414 23.6267 96.3668 23.968C95.4921 24.288 94.4894 24.448 93.3588 24.448C91.1828 24.448 89.4121 23.7973 88.0468 22.496C86.5961 21.1307 85.8708 19.328 85.8708 17.088C85.8708 14.8693 86.5748 13.056 87.9828 11.648C89.3054 10.3467 91.0441 9.696 93.1988 9.696C95.5454 9.696 97.3481 10.4533 98.6068 11.968C99.7161 13.2907 100.271 15.104 100.271 17.408V17.728H89.9028C89.9028 18.6667 90.1268 19.4453 90.5748 20.064C91.2148 20.9387 92.1428 21.376 93.3588 21.376C94.8094 21.376 95.8868 20.768 96.5908 19.552ZM90.0308 15.232H96.5908C96.4414 14.336 96.0468 13.6533 95.4068 13.184C94.7881 12.6933 94.0841 12.448 93.2948 12.448C92.5268 12.448 91.8228 12.6933 91.1828 13.184C90.5641 13.6747 90.1801 14.3573 90.0308 15.232ZM117.354 13.472H114.666V24H110.762V13.472H109.226V10.144H110.762V5.408H114.666V10.144H117.354V13.472ZM119.387 24V0.0319996H123.291V11.936C124.358 10.4427 125.787 9.696 127.579 9.696C129.393 9.696 130.758 10.2613 131.675 11.392C132.401 12.288 132.763 13.5893 132.763 15.296V24H128.859V16.448C128.859 15.1467 128.614 14.24 128.123 13.728C127.675 13.2587 127.067 13.024 126.299 13.024C125.233 13.024 124.433 13.4293 123.899 14.24C123.494 14.88 123.291 15.776 123.291 16.928V24H119.387ZM146.497 19.552L150.081 20.128C149.932 20.512 149.729 20.896 149.473 21.28C149.238 21.6427 148.865 22.1013 148.353 22.656C147.841 23.1893 147.148 23.6267 146.273 23.968C145.398 24.288 144.396 24.448 143.265 24.448C141.089 24.448 139.318 23.7973 137.953 22.496C136.502 21.1307 135.777 19.328 135.777 17.088C135.777 14.8693 136.481 13.056 137.889 11.648C139.212 10.3467 140.95 9.696 143.105 9.696C145.452 9.696 147.254 10.4533 148.513 11.968C149.622 13.2907 150.177 15.104 150.177 17.408V17.728H139.809C139.809 18.6667 140.033 19.4453 140.481 20.064C141.121 20.9387 142.049 21.376 143.265 21.376C144.716 21.376 145.793 20.768 146.497 19.552ZM139.937 15.232H146.497C146.348 14.336 145.953 13.6533 145.313 13.184C144.694 12.6933 143.99 12.448 143.201 12.448C142.433 12.448 141.729 12.6933 141.089 13.184C140.47 13.6747 140.086 14.3573 139.937 15.232ZM164.573 22.208V31.424H160.669V10.144H164.573V11.936C165.639 10.4427 167.143 9.696 169.085 9.696C171.111 9.696 172.754 10.3893 174.013 11.776C175.271 13.1627 175.901 14.9227 175.901 17.056C175.901 19.1893 175.25 20.96 173.949 22.368C172.669 23.7547 171.015 24.448 168.989 24.448C167.133 24.448 165.661 23.7013 164.573 22.208ZM170.781 14.272C170.055 13.5253 169.138 13.152 168.029 13.152C166.919 13.152 166.002 13.5253 165.277 14.272C164.551 15.0187 164.189 15.9467 164.189 17.056C164.189 18.1653 164.551 19.104 165.277 19.872C166.002 20.6187 166.919 20.992 168.029 20.992C169.138 20.992 170.055 20.6187 170.781 19.872C171.506 19.104 171.869 18.1653 171.869 17.056C171.869 15.9467 171.506 15.0187 170.781 14.272ZM178.919 0.0319996H182.823V24H178.919V0.0319996ZM197.168 11.936V10.144H201.072V24H197.168V22.208C196.122 23.7013 194.704 24.448 192.911 24.448C190.821 24.448 189.114 23.7333 187.792 22.304C186.49 20.8747 185.84 19.1253 185.84 17.056C185.84 14.9653 186.48 13.216 187.76 11.808C189.04 10.4 190.693 9.696 192.72 9.696C194.725 9.696 196.208 10.4427 197.168 11.936ZM196.464 14.272C195.738 13.5253 194.821 13.152 193.712 13.152C192.602 13.152 191.685 13.5253 190.96 14.272C190.234 15.0187 189.872 15.9467 189.872 17.056C189.872 18.1653 190.234 19.104 190.96 19.872C191.685 20.6187 192.602 20.992 193.712 20.992C194.821 20.992 195.738 20.6187 196.464 19.872C197.189 19.104 197.552 18.1653 197.552 17.056C197.552 15.9467 197.189 15.0187 196.464 14.272ZM204.506 31.424L209.594 21.92L203.002 10.144H207.546L211.834 18.016L215.674 10.144H220.09L208.922 31.424H204.506ZM232.028 19.552L235.612 20.128C235.463 20.512 235.26 20.896 235.004 21.28C234.77 21.6427 234.396 22.1013 233.884 22.656C233.372 23.1893 232.679 23.6267 231.804 23.968C230.93 24.288 229.927 24.448 228.796 24.448C226.62 24.448 224.85 23.7973 223.484 22.496C222.034 21.1307 221.308 19.328 221.308 17.088C221.308 14.8693 222.012 13.056 223.42 11.648C224.743 10.3467 226.482 9.696 228.636 9.696C230.983 9.696 232.786 10.4533 234.044 11.968C235.154 13.2907 235.708 15.104 235.708 17.408V17.728H225.34C225.34 18.6667 225.564 19.4453 226.012 20.064C226.652 20.9387 227.58 21.376 228.796 21.376C230.247 21.376 231.324 20.768 232.028 19.552ZM225.468 15.232H232.028C231.879 14.336 231.484 13.6533 230.844 13.184C230.226 12.6933 229.522 12.448 228.732 12.448C227.964 12.448 227.26 12.6933 226.62 13.184C226.002 13.6747 225.618 14.3573 225.468 15.232ZM238.731 24V10.144H242.635V12.224C243.104 11.328 243.68 10.688 244.363 10.304C245.003 9.89867 245.771 9.696 246.667 9.696C247.179 9.696 247.734 9.80267 248.331 10.016L247.819 13.664C247.328 13.3227 246.72 13.152 245.995 13.152C244.864 13.152 244 13.5253 243.403 14.272C242.891 14.912 242.635 15.936 242.635 17.344V24H238.731ZM250.646 13.952C250.177 13.4613 249.942 12.864 249.942 12.16C249.942 11.456 250.177 10.8693 250.646 10.4C251.137 9.90933 251.734 9.664 252.438 9.664C253.142 9.664 253.729 9.90933 254.198 10.4C254.689 10.8693 254.934 11.456 254.934 12.16C254.934 12.864 254.689 13.4613 254.198 13.952C253.729 14.4213 253.142 14.656 252.438 14.656C251.734 14.656 251.137 14.4213 250.646 13.952ZM250.646 23.712C250.177 23.2213 249.942 22.624 249.942 21.92C249.942 21.216 250.177 20.6293 250.646 20.16C251.137 19.6693 251.734 19.424 252.438 19.424C253.142 19.424 253.729 19.6693 254.198 20.16C254.689 20.6293 254.934 21.216 254.934 21.92C254.934 22.624 254.689 23.2213 254.198 23.712C253.729 24.1813 253.142 24.416 252.438 24.416C251.734 24.416 251.137 24.1813 250.646 23.712Z" fill="#00B8FC"/>
<path d="M16.92 18.368H17.92V15.6458L16.1578 17.7207L16.92 18.368ZM16.92 23.232L17.3862 24.1167L17.92 23.8354V23.232H16.92ZM3.832 21.504L3.13847 22.2245L3.14364 22.2294L3.832 21.504ZM3.832 4.992L4.51115 5.72603L4.51542 5.72202L3.832 4.992ZM16.92 3.488H17.92V2.89124L17.3948 2.6079L16.92 3.488ZM16.92 8.352L16.1643 9.00693L17.92 11.0327V8.352H16.92ZM6.648 8.16L5.90417 7.49163L5.90362 7.49224L6.648 8.16ZM6.872 18.752L6.19822 19.491L6.20425 19.4964L6.872 18.752ZM15.92 18.368V23.232H17.92V18.368H15.92ZM16.4538 22.3473C15.0312 23.0971 13.4335 23.48 11.64 23.48V25.48C13.7292 25.48 15.6515 25.0309 17.3862 24.1167L16.4538 22.3473ZM11.64 23.48C8.75886 23.48 6.40943 22.5713 4.52036 20.7786L3.14364 22.2294C5.43591 24.4047 8.2918 25.48 11.64 25.48V23.48ZM4.52551 20.7836C2.44379 18.7797 1.408 16.322 1.408 13.344H-0.592C-0.592 16.8513 0.654875 19.8337 3.13849 22.2244L4.52551 20.7836ZM1.408 13.344C1.408 10.1323 2.45699 7.62657 4.51113 5.72601L3.15287 4.25798C0.641673 6.58142 -0.592 9.64372 -0.592 13.344H1.408ZM4.51542 5.72202C6.30393 4.04768 8.6577 3.176 11.672 3.176V1.176C8.24363 1.176 5.37074 2.18165 3.14858 4.26198L4.51542 5.72202ZM11.672 3.176C13.3869 3.176 14.9726 3.57368 16.4452 4.3681L17.3948 2.6079C15.6247 1.65299 13.7118 1.176 11.672 1.176V3.176ZM15.92 3.488V8.352H17.92V3.488H15.92ZM17.6757 7.69707C16.1064 5.88639 14.1171 4.952 11.768 4.952V6.952C13.5149 6.952 14.9602 7.61761 16.1643 9.00693L17.6757 7.69707ZM11.768 4.952C9.41168 4.952 7.42828 5.79545 5.90417 7.49163L7.39183 8.82837C8.51306 7.58055 9.94299 6.952 11.768 6.952V4.952ZM5.90362 7.49224C4.42875 9.13636 3.696 11.1272 3.696 13.408H5.696C5.696 11.5928 6.26458 10.085 7.39238 8.82775L5.90362 7.49224ZM3.696 13.408C3.696 15.8855 4.50948 17.9512 6.19825 19.491L7.54575 18.013C6.33319 16.9075 5.696 15.4105 5.696 13.408H3.696ZM6.20425 19.4964C7.83535 20.9596 9.75746 21.704 11.928 21.704V19.704C10.2585 19.704 8.80999 19.1471 7.53975 18.0076L6.20425 19.4964ZM11.928 21.704C14.2332 21.704 16.1737 20.7915 17.6822 19.0153L16.1578 17.7207C15.021 19.0591 13.6335 19.704 11.928 19.704V21.704ZM20.1685 24H19.1685V25H20.1685V24ZM20.1685 0.0319996V-0.968H19.1685V0.0319996H20.1685ZM24.0725 0.0319996H25.0725V-0.968H24.0725V0.0319996ZM24.0725 11.936H23.0725V15.0565L24.8862 12.5172L24.0725 11.936ZM32.4565 11.392L33.2337 10.7628L33.2331 10.762L32.4565 11.392ZM33.5445 24V25H34.5445V24H33.5445ZM29.6405 24H28.6405V25H29.6405V24ZM28.9045 13.728L28.1811 14.4185L28.1825 14.4199L28.9045 13.728ZM24.6805 14.24L23.8451 13.6904L23.8403 13.6976L23.8357 13.7049L24.6805 14.24ZM24.0725 24V25H25.0725V24H24.0725ZM21.1685 24V0.0319996H19.1685V24H21.1685ZM20.1685 1.032H24.0725V-0.968H20.1685V1.032ZM23.0725 0.0319996V11.936H25.0725V0.0319996H23.0725ZM24.8862 12.5172C25.7706 11.2792 26.9006 10.696 28.3605 10.696V8.696C26.2364 8.696 24.5078 9.60615 23.2588 11.3548L24.8862 12.5172ZM28.3605 10.696C29.9535 10.696 30.9982 11.1818 31.6799 12.022L33.2331 10.762C32.0801 9.34087 30.3942 8.696 28.3605 8.696V10.696ZM31.6793 12.0212C32.2055 12.6712 32.5445 13.7123 32.5445 15.296H34.5445C34.5445 13.4664 34.1582 11.9048 33.2337 10.7628L31.6793 12.0212ZM32.5445 15.296V24H34.5445V15.296H32.5445ZM33.5445 23H29.6405V25H33.5445V23ZM30.6405 24V16.448H28.6405V24H30.6405ZM30.6405 16.448C30.6405 15.0825 30.3953 13.8383 29.6265 13.0361L28.1825 14.4199C28.3951 14.6417 28.6405 15.2108 28.6405 16.448H30.6405ZM29.6279 13.0375C28.9567 12.3344 28.0674 12.024 27.0805 12.024V14.024C27.6296 14.024 27.9563 14.183 28.1811 14.4185L29.6279 13.0375ZM27.0805 12.024C25.7168 12.024 24.5841 12.5671 23.8451 13.6904L25.5159 14.7896C25.8436 14.2916 26.3108 14.024 27.0805 14.024V12.024ZM23.8357 13.7049C23.2891 14.5679 23.0725 15.6781 23.0725 16.928H25.0725C25.0725 15.8739 25.2612 15.1921 25.5253 14.7751L23.8357 13.7049ZM23.0725 16.928V24H25.0725V16.928H23.0725ZM24.0725 23H20.1685V25H24.0725V23ZM38.8942 11.648L39.5649 12.3898L39.573 12.3824L38.8942 11.648ZM50.0942 11.648L49.4155 12.3824L49.4236 12.3898L50.0942 11.648ZM50.0942 22.496L49.4236 21.7542L49.4155 21.7616L50.0942 22.496ZM38.8942 22.496L39.573 21.7616L39.5649 21.7542L38.8942 22.496ZM41.7103 19.84L42.4272 19.1429L41.7103 19.84ZM47.2783 19.84L46.5613 19.1429L47.2783 19.84ZM47.2783 14.304L46.5613 15.0011L47.2783 14.304ZM41.7103 14.304L42.4272 15.0011L41.7103 14.304ZM39.573 12.3824C40.7586 11.2866 42.3641 10.696 44.4943 10.696V8.696C41.9738 8.696 39.8459 9.40672 38.2155 10.9136L39.573 12.3824ZM44.4943 10.696C46.6244 10.696 48.2299 11.2866 49.4155 12.3824L50.773 10.9136C49.1426 9.40672 47.0147 8.696 44.4943 8.696V10.696ZM49.4236 12.3898C50.7582 13.5964 51.4303 15.1339 51.4303 17.088H53.4303C53.4303 14.6048 52.545 12.5156 50.7649 10.9062L49.4236 12.3898ZM51.4303 17.088C51.4303 19.0176 50.7604 20.5456 49.4236 21.7542L50.7649 23.2378C52.5427 21.6304 53.4303 19.5531 53.4303 17.088H51.4303ZM49.4155 21.7616C48.2299 22.8574 46.6244 23.448 44.4943 23.448V25.448C47.0147 25.448 49.1426 24.7373 50.773 23.2304L49.4155 21.7616ZM44.4943 23.448C42.3641 23.448 40.7586 22.8574 39.573 21.7616L38.2155 23.2304C39.8459 24.7373 41.9738 25.448 44.4943 25.448V23.448ZM39.5649 21.7542C38.2281 20.5456 37.5583 19.0176 37.5583 17.088H35.5583C35.5583 19.5531 36.4458 21.6304 38.2236 23.2378L39.5649 21.7542ZM37.5583 17.088C37.5583 15.1339 38.2303 13.5964 39.5649 12.3898L38.2236 10.9062C36.4435 12.5156 35.5583 14.6048 35.5583 17.088H37.5583ZM40.9933 20.5371C41.9356 21.5064 43.1256 21.992 44.4943 21.992V19.992C43.6442 19.992 42.9782 19.7096 42.4272 19.1429L40.9933 20.5371ZM44.4943 21.992C45.8629 21.992 47.0529 21.5064 47.9952 20.5371L46.5613 19.1429C46.0103 19.7096 45.3443 19.992 44.4943 19.992V21.992ZM47.9952 20.5371C48.9225 19.5833 49.3983 18.4162 49.3983 17.088H47.3983C47.3983 17.8931 47.1273 18.5607 46.5613 19.1429L47.9952 20.5371ZM49.3983 17.088C49.3983 15.7442 48.9266 14.5648 47.9952 13.6069L46.5613 15.0011C47.1233 15.5792 47.3983 16.2558 47.3983 17.088H49.3983ZM47.9952 13.6069C47.0529 12.6376 45.8629 12.152 44.4943 12.152V14.152C45.3443 14.152 46.0103 14.4344 46.5613 15.0011L47.9952 13.6069ZM44.4943 12.152C43.1256 12.152 41.9356 12.6376 40.9933 13.6069L42.4272 15.0011C42.9782 14.4344 43.6442 14.152 44.4943 14.152V12.152ZM40.9933 13.6069C40.0619 14.5648 39.5902 15.7442 39.5902 17.088H41.5902C41.5902 16.2558 41.8652 15.5792 42.4272 15.0011L40.9933 13.6069ZM39.5902 17.088C39.5902 18.4162 40.066 19.5833 40.9933 20.5371L42.4272 19.1429C41.8612 18.5607 41.5902 17.8931 41.5902 17.088H39.5902ZM57.0817 11.648L57.7524 12.3898L57.7605 12.3824L57.0817 11.648ZM68.2818 11.648L67.603 12.3824L67.6111 12.3898L68.2818 11.648ZM68.2818 22.496L67.6111 21.7542L67.603 21.7616L68.2818 22.496ZM57.0817 22.496L57.7605 21.7616L57.7524 21.7542L57.0817 22.496ZM59.8978 19.84L60.6147 19.1429L59.8978 19.84ZM65.4658 19.84L64.7488 19.1429L65.4658 19.84ZM65.4658 14.304L64.7488 15.0011L65.4658 14.304ZM59.8978 14.304L60.6147 15.0011L59.8978 14.304ZM57.7605 12.3824C58.9461 11.2866 60.5516 10.696 62.6818 10.696V8.696C60.1613 8.696 58.0334 9.40672 56.403 10.9136L57.7605 12.3824ZM62.6818 10.696C64.8119 10.696 66.4174 11.2866 67.603 12.3824L68.9605 10.9136C67.3301 9.40672 65.2022 8.696 62.6818 8.696V10.696ZM67.6111 12.3898C68.9457 13.5964 69.6178 15.1339 69.6178 17.088H71.6178C71.6178 14.6048 70.7325 12.5156 68.9524 10.9062L67.6111 12.3898ZM69.6178 17.088C69.6178 19.0176 68.9479 20.5456 67.6111 21.7542L68.9524 23.2378C70.7302 21.6304 71.6178 19.5531 71.6178 17.088H69.6178ZM67.603 21.7616C66.4174 22.8574 64.8119 23.448 62.6818 23.448V25.448C65.2022 25.448 67.3301 24.7373 68.9605 23.2304L67.603 21.7616ZM62.6818 23.448C60.5516 23.448 58.9461 22.8574 57.7605 21.7616L56.403 23.2304C58.0334 24.7373 60.1613 25.448 62.6818 25.448V23.448ZM57.7524 21.7542C56.4156 20.5456 55.7458 19.0176 55.7458 17.088H53.7458C53.7458 19.5531 54.6333 21.6304 56.4111 23.2378L57.7524 21.7542ZM55.7458 17.088C55.7458 15.1339 56.4178 13.5964 57.7524 12.3898L56.4111 10.9062C54.631 12.5156 53.7458 14.6048 53.7458 17.088H55.7458ZM59.1808 20.5371C60.1231 21.5064 61.3131 21.992 62.6818 21.992V19.992C61.8317 19.992 61.1657 19.7096 60.6147 19.1429L59.1808 20.5371ZM62.6818 21.992C64.0504 21.992 65.2404 21.5064 66.1827 20.5371L64.7488 19.1429C64.1978 19.7096 63.5318 19.992 62.6818 19.992V21.992ZM66.1827 20.5371C67.11 19.5833 67.5858 18.4162 67.5858 17.088H65.5858C65.5858 17.8931 65.3148 18.5607 64.7488 19.1429L66.1827 20.5371ZM67.5858 17.088C67.5858 15.7442 67.1141 14.5648 66.1827 13.6069L64.7488 15.0011C65.3108 15.5792 65.5858 16.2558 65.5858 17.088H67.5858ZM66.1827 13.6069C65.2404 12.6376 64.0504 12.152 62.6818 12.152V14.152C63.5318 14.152 64.1978 14.4344 64.7488 15.0011L66.1827 13.6069ZM62.6818 12.152C61.3131 12.152 60.1231 12.6376 59.1808 13.6069L60.6147 15.0011C61.1657 14.4344 61.8317 14.152 62.6818 14.152V12.152ZM59.1808 13.6069C58.2494 14.5648 57.7777 15.7442 57.7777 17.088H59.7777C59.7777 16.2558 60.0527 15.5792 60.6147 15.0011L59.1808 13.6069ZM57.7777 17.088C57.7777 18.4162 58.2535 19.5833 59.1808 20.5371L60.6147 19.1429C60.0487 18.5607 59.7777 17.8931 59.7777 17.088H57.7777ZM83.1093 11.168L83.873 11.8135L84.5499 11.0125L83.7177 10.3744L83.1093 11.168ZM81.1892 13.44L80.5061 14.1703L81.2742 14.8888L81.953 14.0855L81.1892 13.44ZM77.7972 12.832L78.3973 13.6321L78.407 13.6246L77.7972 12.832ZM78.6612 14.88L78.345 15.8287L78.3549 15.832L78.3649 15.8351L78.6612 14.88ZM79.5892 15.168L79.892 14.2149L79.8857 14.2129L79.5892 15.168ZM83.1093 17.152L82.2955 17.7333L82.3028 17.7434L83.1093 17.152ZM82.2773 22.976L81.6015 22.2388L81.6002 22.2401L82.2773 22.976ZM72.7412 22.144L71.9849 21.4898L71.398 22.1684L72.0092 22.8252L72.7412 22.144ZM74.7893 19.776L75.5474 19.124L74.7914 18.2448L74.0329 19.1218L74.7893 19.776ZM79.2373 20.992L79.8139 21.809L79.8295 21.798L79.8447 21.7864L79.2373 20.992ZM78.5652 18.464L78.911 17.5256L78.9016 17.5223L78.5652 18.464ZM77.6693 18.144L78.0056 17.2023L78.0028 17.2013L77.6693 18.144ZM74.6933 16.48L73.9656 17.1661L73.9738 17.1746L74.6933 16.48ZM75.0772 10.688L74.455 9.90518L74.4434 9.9144L74.4321 9.92397L75.0772 10.688ZM82.3455 10.5225L80.4255 12.7945L81.953 14.0855L83.873 11.8135L82.3455 10.5225ZM81.8724 12.7097C81.0383 11.9294 80.0408 11.512 78.9173 11.512V13.512C79.5003 13.512 80.0176 13.7133 80.5061 14.1703L81.8724 12.7097ZM78.9173 11.512C78.3022 11.512 77.6909 11.6521 77.1875 12.0394L78.407 13.6246C78.4582 13.5852 78.5936 13.512 78.9173 13.512V11.512ZM77.1973 12.032C76.6705 12.427 76.4133 13.0003 76.4133 13.632H78.4133C78.4133 13.6092 78.4154 13.598 78.4158 13.596C78.4161 13.5945 78.4151 13.5996 78.4108 13.6087C78.4087 13.613 78.4063 13.6174 78.4035 13.6216C78.4008 13.6258 78.3982 13.6293 78.396 13.6319C78.3914 13.6375 78.3905 13.6371 78.3972 13.632L77.1973 12.032ZM76.4133 13.632C76.4133 14.8509 77.3824 15.5078 78.345 15.8287L78.9775 13.9313C78.6424 13.8196 78.49 13.7105 78.4324 13.6529C78.4081 13.6286 78.4069 13.6199 78.4104 13.6281C78.4144 13.6375 78.4133 13.6422 78.4133 13.632H76.4133ZM78.3649 15.8351L79.2929 16.1231L79.8857 14.2129L78.9576 13.9249L78.3649 15.8351ZM79.2865 16.1211C81.0755 16.6893 81.9658 17.2716 82.2955 17.7332L83.923 16.5708C83.186 15.539 81.7297 14.7987 79.892 14.2149L79.2865 16.1211ZM82.3028 17.7434C82.6304 18.1901 82.8132 18.744 82.8132 19.456H84.8132C84.8132 18.376 84.5267 17.3939 83.9157 16.5606L82.3028 17.7434ZM82.8132 19.456C82.8132 20.588 82.4157 21.4925 81.6015 22.2388L82.953 23.7132C84.1868 22.5822 84.8132 21.14 84.8132 19.456H82.8132ZM81.6002 22.2401C80.7502 23.0221 79.6204 23.448 78.1172 23.448V25.448C80.0274 25.448 81.671 24.8926 82.9543 23.7119L81.6002 22.2401ZM78.1172 23.448C76.2318 23.448 74.7078 22.7894 73.4733 21.4628L72.0092 22.8252C73.6334 24.5706 75.6934 25.448 78.1172 25.448V23.448ZM73.4976 22.7982L75.5456 20.4302L74.0329 19.1218L71.9849 21.4898L73.4976 22.7982ZM74.0311 20.428C75.0881 21.6571 76.37 22.376 77.8613 22.376V20.376C77.0911 20.376 76.3251 20.0282 75.5474 19.124L74.0311 20.428ZM77.8613 22.376C78.5705 22.376 79.2446 22.2109 79.8139 21.809L78.6606 20.175C78.5046 20.2851 78.2613 20.376 77.8613 20.376V22.376ZM79.8447 21.7864C80.4628 21.3137 80.7812 20.6426 80.7812 19.872H78.7812C78.7812 20.0401 78.737 20.1156 78.6298 20.1976L79.8447 21.7864ZM80.7812 19.872C80.7812 19.3204 80.599 18.8089 80.2341 18.3864C79.8857 17.983 79.416 17.7117 78.911 17.5257L78.2195 19.4023C78.5252 19.515 78.6635 19.6277 78.7204 19.6936C78.7608 19.7404 78.7812 19.7836 78.7812 19.872H80.7812ZM78.9016 17.5223L78.0056 17.2023L77.3329 19.0857L78.2289 19.4057L78.9016 17.5223ZM78.0028 17.2013C76.6722 16.7304 75.8514 16.2398 75.4127 15.7854L73.9738 17.1746C74.7298 17.9575 75.8929 18.5762 77.3357 19.0867L78.0028 17.2013ZM75.4208 15.794C74.8914 15.2324 74.6373 14.5923 74.6373 13.824H72.6373C72.6373 15.1037 73.0871 16.2342 73.9657 17.166L75.4208 15.794ZM74.6373 13.824C74.6373 12.8321 74.9922 12.0686 75.7224 11.452L74.4321 9.92397C73.2422 10.9287 72.6373 12.2559 72.6373 13.824H74.6373ZM75.6995 11.4708C76.2867 11.004 77.2352 10.696 78.6933 10.696V8.696C76.994 8.696 75.5318 9.04929 74.455 9.90518L75.6995 11.4708ZM78.6933 10.696C80.1448 10.696 81.4013 11.1186 82.5008 11.9616L83.7177 10.3744C82.2572 9.25471 80.5697 8.696 78.6933 8.696V10.696ZM96.5908 19.552L96.7494 18.5647L96.0701 18.4555L95.7253 19.051L96.5908 19.552ZM100.175 20.128L101.107 20.4904L101.555 19.337L100.333 19.1407L100.175 20.128ZM99.5667 21.28L98.7346 20.7252L98.7272 20.7367L99.5667 21.28ZM98.4467 22.656L99.1681 23.3485L99.1749 23.3415L99.1816 23.3343L98.4467 22.656ZM96.3668 23.968L96.7103 24.9071L96.7204 24.9035L96.7303 24.8996L96.3668 23.968ZM88.0468 22.496L88.7367 21.7721L88.7321 21.7678L88.0468 22.496ZM87.9827 11.648L87.2814 10.9351L87.2756 10.9409L87.9827 11.648ZM98.6068 11.968L97.8376 12.6071L97.8406 12.6106L98.6068 11.968ZM100.271 17.728V18.728H101.271V17.728H100.271ZM89.9027 17.728V16.728H88.9027V17.728H89.9027ZM90.5748 20.064L89.7648 20.6505L89.7677 20.6545L90.5748 20.064ZM90.0307 15.232L89.045 15.0637L88.8456 16.232H90.0307V15.232ZM96.5908 15.232V16.232H97.7712L97.5771 15.0676L96.5908 15.232ZM95.4068 13.184L94.7854 13.9675L94.8002 13.9792L94.8154 13.9904L95.4068 13.184ZM91.1827 13.184L90.5743 12.3904L90.5678 12.3954L90.5614 12.4005L91.1827 13.184ZM96.4321 20.5393L100.016 21.1153L100.333 19.1407L96.7494 18.5647L96.4321 20.5393ZM99.2427 19.7656C99.1226 20.0745 98.9552 20.3945 98.7347 20.7253L100.399 21.8347C100.69 21.3975 100.928 20.9495 101.107 20.4904L99.2427 19.7656ZM98.7272 20.7367C98.5382 21.0289 98.2093 21.4389 97.7119 21.9777L99.1816 23.3343C99.7082 22.7637 100.126 22.2565 100.406 21.8233L98.7272 20.7367ZM97.7254 21.9635C97.3372 22.3678 96.778 22.7341 96.0032 23.0364L96.7303 24.8996C97.7049 24.5193 98.5323 24.0108 99.1681 23.3485L97.7254 21.9635ZM96.0232 23.0289C95.2793 23.301 94.3965 23.448 93.3587 23.448V25.448C94.5823 25.448 95.7049 25.275 96.7103 24.9071L96.0232 23.0289ZM93.3587 23.448C91.3972 23.448 89.8874 22.8689 88.7367 21.7721L87.3568 23.2199C88.9367 24.7257 90.9683 25.448 93.3587 25.448V23.448ZM88.7321 21.7678C87.5082 20.6159 86.8708 19.0901 86.8708 17.088H84.8708C84.8708 19.5659 85.684 21.6454 87.3614 23.2242L88.7321 21.7678ZM86.8708 17.088C86.8708 15.1014 87.4916 13.5534 88.6899 12.3551L87.2756 10.9409C85.6579 12.5586 84.8708 14.6373 84.8708 17.088H86.8708ZM88.6841 12.3608C89.7895 11.2732 91.2609 10.696 93.1988 10.696V8.696C90.8273 8.696 88.8213 9.4201 87.2814 10.9352L88.6841 12.3608ZM93.1988 10.696C95.3111 10.696 96.8059 11.3655 97.8376 12.6071L99.3759 11.3289C97.8903 9.54119 95.7797 8.696 93.1988 8.696V10.696ZM97.8406 12.6106C98.7548 13.7006 99.2708 15.2598 99.2708 17.408H101.271C101.271 14.9482 100.677 12.8807 99.3729 11.3254L97.8406 12.6106ZM99.2708 17.408V17.728H101.271V17.408H99.2708ZM100.271 16.728H89.9027V18.728H100.271V16.728ZM88.9027 17.728C88.9027 18.8283 89.1673 19.8254 89.7648 20.6505L91.3847 19.4775C91.0862 19.0652 90.9027 18.505 90.9027 17.728H88.9027ZM89.7677 20.6545C90.621 21.8207 91.8687 22.376 93.3587 22.376V20.376C92.4168 20.376 91.8085 20.0566 91.3818 19.4735L89.7677 20.6545ZM93.3587 22.376C95.152 22.376 96.5664 21.59 97.4562 20.053L95.7253 19.051C95.2072 19.946 94.4669 20.376 93.3587 20.376V22.376ZM90.0307 16.232H96.5908V14.232H90.0307V16.232ZM97.5771 15.0676C97.3916 13.9545 96.8792 13.0238 95.9981 12.3776L94.8154 13.9904C95.2143 14.2829 95.4912 14.7175 95.6044 15.3964L97.5771 15.0676ZM96.0281 12.4005C95.2328 11.7697 94.3098 11.448 93.2948 11.448V13.448C93.8584 13.448 94.3434 13.617 94.7854 13.9675L96.0281 12.4005ZM93.2948 11.448C92.2952 11.448 91.3795 11.7731 90.5743 12.3904L91.7912 13.9776C92.266 13.6136 92.7583 13.448 93.2948 13.448V11.448ZM90.5614 12.4005C89.7254 13.0635 89.2303 13.9784 89.045 15.0637L91.0165 15.4003C91.1299 14.7363 91.4028 14.2858 91.8041 13.9675L90.5614 12.4005ZM117.354 13.472V14.472H118.354V13.472H117.354ZM114.666 13.472V12.472H113.666V13.472H114.666ZM114.666 24V25H115.666V24H114.666ZM110.762 24H109.762V25H110.762V24ZM110.762 13.472H111.762V12.472H110.762V13.472ZM109.226 13.472H108.226V14.472H109.226V13.472ZM109.226 10.144V9.144H108.226V10.144H109.226ZM110.762 10.144V11.144H111.762V10.144H110.762ZM110.762 5.408V4.408H109.762V5.408H110.762ZM114.666 5.408H115.666V4.408H114.666V5.408ZM114.666 10.144H113.666V11.144H114.666V10.144ZM117.354 10.144H118.354V9.144H117.354V10.144ZM117.354 12.472H114.666V14.472H117.354V12.472ZM113.666 13.472V24H115.666V13.472H113.666ZM114.666 23H110.762V25H114.666V23ZM111.762 24V13.472H109.762V24H111.762ZM110.762 12.472H109.226V14.472H110.762V12.472ZM110.226 13.472V10.144H108.226V13.472H110.226ZM109.226 11.144H110.762V9.144H109.226V11.144ZM111.762 10.144V5.408H109.762V10.144H111.762ZM110.762 6.408H114.666V4.408H110.762V6.408ZM113.666 5.408V10.144H115.666V5.408H113.666ZM114.666 11.144H117.354V9.144H114.666V11.144ZM116.354 10.144V13.472H118.354V10.144H116.354ZM119.387 24H118.387V25H119.387V24ZM119.387 0.0319996V-0.968H118.387V0.0319996H119.387ZM123.291 0.0319996H124.291V-0.968H123.291V0.0319996ZM123.291 11.936H122.291V15.0565L124.105 12.5172L123.291 11.936ZM131.675 11.392L132.452 10.7628L132.452 10.762L131.675 11.392ZM132.763 24V25H133.763V24H132.763ZM128.859 24H127.859V25H128.859V24ZM128.123 13.728L127.4 14.4185L127.401 14.4199L128.123 13.728ZM123.899 14.24L123.064 13.6904L123.059 13.6976L123.054 13.7049L123.899 14.24ZM123.291 24V25H124.291V24H123.291ZM120.387 24V0.0319996H118.387V24H120.387ZM119.387 1.032H123.291V-0.968H119.387V1.032ZM122.291 0.0319996V11.936H124.291V0.0319996H122.291ZM124.105 12.5172C124.989 11.2792 126.119 10.696 127.579 10.696V8.696C125.455 8.696 123.727 9.60615 122.478 11.3548L124.105 12.5172ZM127.579 10.696C129.172 10.696 130.217 11.1818 130.899 12.022L132.452 10.762C131.299 9.34087 129.613 8.696 127.579 8.696V10.696ZM130.898 12.0212C131.424 12.6712 131.763 13.7123 131.763 15.296H133.763C133.763 13.4664 133.377 11.9048 132.452 10.7628L130.898 12.0212ZM131.763 15.296V24H133.763V15.296H131.763ZM132.763 23H128.859V25H132.763V23ZM129.859 24V16.448H127.859V24H129.859ZM129.859 16.448C129.859 15.0825 129.614 13.8383 128.845 13.0361L127.401 14.4199C127.614 14.6417 127.859 15.2108 127.859 16.448H129.859ZM128.847 13.0375C128.175 12.3344 127.286 12.024 126.299 12.024V14.024C126.848 14.024 127.175 14.183 127.4 14.4185L128.847 13.0375ZM126.299 12.024C124.936 12.024 123.803 12.5671 123.064 13.6904L124.735 14.7896C125.062 14.2916 125.53 14.024 126.299 14.024V12.024ZM123.054 13.7049C122.508 14.5679 122.291 15.6781 122.291 16.928H124.291C124.291 15.8739 124.48 15.1921 124.744 14.7751L123.054 13.7049ZM122.291 16.928V24H124.291V16.928H122.291ZM123.291 23H119.387V25H123.291V23ZM146.497 19.552L146.656 18.5647L145.976 18.4555L145.632 19.051L146.497 19.552ZM150.081 20.128L151.013 20.4904L151.462 19.337L150.24 19.1407L150.081 20.128ZM149.473 21.28L148.641 20.7252L148.633 20.7367L149.473 21.28ZM148.353 22.656L149.074 23.3485L149.081 23.3415L149.088 23.3343L148.353 22.656ZM146.273 23.968L146.617 24.9071L146.627 24.9035L146.637 24.8996L146.273 23.968ZM137.953 22.496L138.643 21.7721L138.638 21.7678L137.953 22.496ZM137.889 11.648L137.188 10.9351L137.182 10.9409L137.889 11.648ZM148.513 11.968L147.744 12.6071L147.747 12.6106L148.513 11.968ZM150.177 17.728V18.728H151.177V17.728H150.177ZM139.809 17.728V16.728H138.809V17.728H139.809ZM140.481 20.064L139.671 20.6505L139.674 20.6545L140.481 20.064ZM139.937 15.232L138.951 15.0637L138.752 16.232H139.937V15.232ZM146.497 15.232V16.232H147.677L147.483 15.0676L146.497 15.232ZM145.313 13.184L144.692 13.9675L144.706 13.9792L144.722 13.9904L145.313 13.184ZM141.089 13.184L140.481 12.3904L140.474 12.3954L140.468 12.4005L141.089 13.184ZM146.338 20.5393L149.922 21.1153L150.24 19.1407L146.656 18.5647L146.338 20.5393ZM149.149 19.7656C149.029 20.0745 148.861 20.3945 148.641 20.7253L150.305 21.8347C150.597 21.3975 150.835 20.9495 151.013 20.4904L149.149 19.7656ZM148.633 20.7367C148.444 21.0289 148.116 21.4389 147.618 21.9777L149.088 23.3343C149.614 22.7637 150.032 22.2565 150.313 21.8233L148.633 20.7367ZM147.632 21.9635C147.243 22.3678 146.684 22.7341 145.909 23.0364L146.637 24.8996C147.611 24.5193 148.439 24.0108 149.074 23.3485L147.632 21.9635ZM145.929 23.0289C145.186 23.301 144.303 23.448 143.265 23.448V25.448C144.489 25.448 145.611 25.275 146.617 24.9071L145.929 23.0289ZM143.265 23.448C141.303 23.448 139.794 22.8689 138.643 21.7721L137.263 23.2199C138.843 24.7257 140.875 25.448 143.265 25.448V23.448ZM138.638 21.7678C137.414 20.6159 136.777 19.0901 136.777 17.088H134.777C134.777 19.5659 135.59 21.6454 137.268 23.2242L138.638 21.7678ZM136.777 17.088C136.777 15.1014 137.398 13.5534 138.596 12.3551L137.182 10.9409C135.564 12.5586 134.777 14.6373 134.777 17.088H136.777ZM138.59 12.3608C139.696 11.2732 141.167 10.696 143.105 10.696V8.696C140.734 8.696 138.728 9.4201 137.188 10.9352L138.59 12.3608ZM143.105 10.696C145.217 10.696 146.712 11.3655 147.744 12.6071L149.282 11.3289C147.797 9.54119 145.686 8.696 143.105 8.696V10.696ZM147.747 12.6106C148.661 13.7006 149.177 15.2598 149.177 17.408H151.177C151.177 14.9482 150.584 12.8807 149.279 11.3254L147.747 12.6106ZM149.177 17.408V17.728H151.177V17.408H149.177ZM150.177 16.728H139.809V18.728H150.177V16.728ZM138.809 17.728C138.809 18.8283 139.074 19.8254 139.671 20.6505L141.291 19.4775C140.992 19.0652 140.809 18.505 140.809 17.728H138.809ZM139.674 20.6545C140.527 21.8207 141.775 22.376 143.265 22.376V20.376C142.323 20.376 141.715 20.0566 141.288 19.4735L139.674 20.6545ZM143.265 22.376C145.058 22.376 146.473 21.59 147.362 20.053L145.632 19.051C145.113 19.946 144.373 20.376 143.265 20.376V22.376ZM139.937 16.232H146.497V14.232H139.937V16.232ZM147.483 15.0676C147.298 13.9545 146.785 13.0238 145.904 12.3776L144.722 13.9904C145.12 14.2829 145.397 14.7175 145.511 15.3964L147.483 15.0676ZM145.934 12.4005C145.139 11.7697 144.216 11.448 143.201 11.448V13.448C143.765 13.448 144.25 13.617 144.692 13.9675L145.934 12.4005ZM143.201 11.448C142.201 11.448 141.286 11.7731 140.481 12.3904L141.697 13.9776C142.172 13.6136 142.665 13.448 143.201 13.448V11.448ZM140.468 12.4005C139.632 13.0635 139.137 13.9784 138.951 15.0637L140.923 15.4003C141.036 14.7363 141.309 14.2858 141.71 13.9675L140.468 12.4005ZM164.572 22.208L165.381 21.6191L163.572 19.1372V22.208H164.572ZM164.572 31.424V32.424H165.572V31.424H164.572ZM160.669 31.424H159.669V32.424H160.669V31.424ZM160.669 10.144V9.144H159.669V10.144H160.669ZM164.572 10.144H165.572V9.144H164.572V10.144ZM164.572 11.936H163.572V15.0565L165.386 12.5172L164.572 11.936ZM174.012 11.776L174.753 11.1039L174.012 11.776ZM173.949 22.368L173.214 21.6893L173.214 21.6897L173.949 22.368ZM165.277 14.272L164.559 13.5752L165.277 14.272ZM165.277 19.872L164.549 20.5587L164.559 20.5688L165.277 19.872ZM170.781 19.872L171.498 20.5689L171.508 20.5586L170.781 19.872ZM163.572 22.208V31.424H165.572V22.208H163.572ZM164.572 30.424H160.669V32.424H164.572V30.424ZM161.669 31.424V10.144H159.669V31.424H161.669ZM160.669 11.144H164.572V9.144H160.669V11.144ZM163.572 10.144V11.936H165.572V10.144H163.572ZM165.386 12.5172C166.253 11.3041 167.444 10.696 169.085 10.696V8.696C166.842 8.696 165.026 9.58123 163.759 11.3548L165.386 12.5172ZM169.085 10.696C170.855 10.696 172.22 11.2888 173.272 12.4481L174.753 11.1039C173.288 9.48991 171.367 8.696 169.085 8.696V10.696ZM173.272 12.4481C174.34 13.6251 174.9 15.1341 174.9 17.056H176.9C176.9 14.7112 176.202 12.7003 174.753 11.1039L173.272 12.4481ZM174.9 17.056C174.9 18.9684 174.325 20.4874 173.214 21.6893L174.683 23.0467C176.175 21.4326 176.9 19.4103 176.9 17.056H174.9ZM173.214 21.6897C172.138 22.8549 170.759 23.448 168.988 23.448V25.448C171.271 25.448 173.199 24.6544 174.683 23.0463L173.214 21.6897ZM168.988 23.448C167.45 23.448 166.28 22.8527 165.381 21.6191L163.764 22.7969C165.041 24.5499 166.815 25.448 168.988 25.448V23.448ZM171.498 13.5752C170.571 12.621 169.388 12.152 168.029 12.152V14.152C168.887 14.152 169.54 14.4297 170.063 14.9688L171.498 13.5752ZM168.029 12.152C166.669 12.152 165.486 12.621 164.559 13.5752L165.994 14.9688C166.517 14.4297 167.17 14.152 168.029 14.152V12.152ZM164.559 13.5752C163.64 14.5216 163.189 15.7053 163.189 17.056H165.189C165.189 16.188 165.462 15.5157 165.994 14.9688L164.559 13.5752ZM163.189 17.056C163.189 18.4065 163.639 19.595 164.549 20.5586L166.004 19.1854C165.463 18.613 165.189 17.9241 165.189 17.056H163.189ZM164.559 20.5688C165.486 21.523 166.669 21.992 168.029 21.992V19.992C167.17 19.992 166.517 19.7143 165.994 19.1752L164.559 20.5688ZM168.029 21.992C169.388 21.992 170.571 21.523 171.498 20.5688L170.063 19.1752C169.54 19.7143 168.887 19.992 168.029 19.992V21.992ZM171.508 20.5586C172.418 19.595 172.868 18.4065 172.868 17.056H170.868C170.868 17.9241 170.594 18.613 170.053 19.1854L171.508 20.5586ZM172.868 17.056C172.868 15.7053 172.417 14.5216 171.498 13.5752L170.063 14.9688C170.595 15.5157 170.868 16.188 170.868 17.056H172.868ZM178.919 0.0319996V-0.968H177.919V0.0319996H178.919ZM182.822 0.0319996H183.822V-0.968H182.822V0.0319996ZM182.822 24V25H183.822V24H182.822ZM178.919 24H177.919V25H178.919V24ZM178.919 1.032H182.822V-0.968H178.919V1.032ZM181.822 0.0319996V24H183.822V0.0319996H181.822ZM182.822 23H178.919V25H182.822V23ZM179.919 24V0.0319996H177.919V24H179.919ZM197.167 11.936L196.326 12.4768L198.167 15.3408V11.936H197.167ZM197.167 10.144V9.144H196.167V10.144H197.167ZM201.072 10.144H202.072V9.144H201.072V10.144ZM201.072 24V25H202.072V24H201.072ZM197.167 24H196.167V25H197.167V24ZM197.167 22.208H198.167V19.0356L196.348 21.6345L197.167 22.208ZM187.792 22.304L187.052 22.9772L187.058 22.9832L187.792 22.304ZM187.76 11.808L188.499 12.4807V12.4807L187.76 11.808ZM196.464 14.272L197.181 13.5752L196.464 14.272ZM190.96 14.272L191.677 14.9688L190.96 14.272ZM190.96 19.872L190.232 20.5587L190.242 20.5688L190.96 19.872ZM196.464 19.872L197.181 20.5689L197.191 20.5586L196.464 19.872ZM198.167 11.936V10.144H196.167V11.936H198.167ZM197.167 11.144H201.072V9.144H197.167V11.144ZM200.072 10.144V24H202.072V10.144H200.072ZM201.072 23H197.167V25H201.072V23ZM198.167 24V22.208H196.167V24H198.167ZM196.348 21.6345C195.486 22.866 194.371 23.448 192.911 23.448V25.448C195.036 25.448 196.758 24.5366 197.987 22.7815L196.348 21.6345ZM192.911 23.448C191.077 23.448 189.644 22.8333 188.525 21.6248L187.058 22.9832C188.585 24.6333 190.565 25.448 192.911 25.448V23.448ZM188.531 21.6308C187.41 20.3993 186.839 18.8955 186.839 17.056H184.839C184.839 19.3552 185.571 21.3501 187.052 22.9772L188.531 21.6308ZM186.839 17.056C186.839 15.1875 187.404 13.6858 188.499 12.4807L187.02 11.1353C185.555 12.7462 184.839 14.7432 184.839 17.056H186.839ZM188.499 12.4807C189.576 11.2959 190.954 10.696 192.719 10.696V8.696C190.432 8.696 188.503 9.50405 187.02 11.1353L188.499 12.4807ZM192.719 10.696C194.437 10.696 195.577 11.3108 196.326 12.4768L198.009 11.3952C196.838 9.57455 195.013 8.696 192.719 8.696V10.696ZM197.181 13.5752C196.254 12.621 195.071 12.152 193.712 12.152V14.152C194.57 14.152 195.223 14.4297 195.746 14.9688L197.181 13.5752ZM193.712 12.152C192.352 12.152 191.169 12.621 190.242 13.5752L191.677 14.9688C192.2 14.4297 192.853 14.152 193.712 14.152V12.152ZM190.242 13.5752C189.323 14.5216 188.872 15.7053 188.872 17.056H190.872C190.872 16.188 191.145 15.5157 191.677 14.9688L190.242 13.5752ZM188.872 17.056C188.872 18.4065 189.322 19.595 190.232 20.5586L191.687 19.1854C191.146 18.613 190.872 17.9241 190.872 17.056H188.872ZM190.242 20.5688C191.169 21.523 192.352 21.992 193.712 21.992V19.992C192.853 19.992 192.2 19.7143 191.677 19.1752L190.242 20.5688ZM193.712 21.992C195.071 21.992 196.254 21.523 197.181 20.5688L195.746 19.1752C195.223 19.7143 194.57 19.992 193.712 19.992V21.992ZM197.191 20.5586C198.101 19.595 198.551 18.4065 198.551 17.056H196.551C196.551 17.9241 196.277 18.613 195.736 19.1854L197.191 20.5586ZM198.551 17.056C198.551 15.7053 198.1 14.5216 197.181 13.5752L195.746 14.9688C196.278 15.5157 196.551 16.188 196.551 17.056H198.551ZM204.505 31.424L203.624 30.952L202.836 32.424H204.505V31.424ZM209.594 21.92L210.475 22.392L210.734 21.9093L210.466 21.4315L209.594 21.92ZM203.001 10.144V9.144H201.296L202.129 10.6325L203.001 10.144ZM207.546 10.144L208.424 9.66565L208.14 9.144H207.546V10.144ZM211.833 18.016L210.955 18.4944L211.882 20.1965L212.732 18.4544L211.833 18.016ZM215.674 10.144V9.144H215.049L214.775 9.70558L215.674 10.144ZM220.09 10.144L220.975 10.6087L221.744 9.144H220.09V10.144ZM208.921 31.424V32.424H209.526L209.807 31.8887L208.921 31.424ZM205.387 31.896L210.475 22.392L208.712 21.448L203.624 30.952L205.387 31.896ZM210.466 21.4315L203.874 9.65554L202.129 10.6325L208.721 22.4085L210.466 21.4315ZM203.001 11.144H207.546V9.144H203.001V11.144ZM206.667 10.6224L210.955 18.4944L212.712 17.5376L208.424 9.66565L206.667 10.6224ZM212.732 18.4544L216.572 10.5824L214.775 9.70558L210.935 17.5776L212.732 18.4544ZM215.674 11.144H220.09V9.144H215.674V11.144ZM219.204 9.6793L208.036 30.9593L209.807 31.8887L220.975 10.6087L219.204 9.6793ZM208.921 30.424H204.505V32.424H208.921V30.424ZM232.028 19.552L232.187 18.5647L231.508 18.4555L231.163 19.051L232.028 19.552ZM235.612 20.128L236.544 20.4904L236.993 19.337L235.771 19.1407L235.612 20.128ZM235.004 21.28L234.172 20.7252L234.165 20.7367L235.004 21.28ZM233.884 22.656L234.606 23.3485L234.612 23.3415L234.619 23.3343L233.884 22.656ZM231.804 23.968L232.148 24.9071L232.158 24.9035L232.168 24.8996L231.804 23.968ZM223.484 22.496L224.174 21.7721L224.17 21.7678L223.484 22.496ZM223.42 11.648L222.719 10.9351L222.713 10.9409L223.42 11.648ZM234.044 11.968L233.275 12.6071L233.278 12.6106L234.044 11.968ZM235.708 17.728V18.728H236.708V17.728H235.708ZM225.34 17.728V16.728H224.34V17.728H225.34ZM226.012 20.064L225.202 20.6505L225.205 20.6545L226.012 20.064ZM225.468 15.232L224.483 15.0637L224.283 16.232H225.468V15.232ZM232.028 15.232V16.232H233.209L233.015 15.0676L232.028 15.232ZM230.844 13.184L230.223 13.9675L230.238 13.9792L230.253 13.9904L230.844 13.184ZM226.62 13.184L226.012 12.3904L226.005 12.3954L225.999 12.4005L226.62 13.184ZM231.87 20.5393L235.454 21.1153L235.771 19.1407L232.187 18.5647L231.87 20.5393ZM234.68 19.7656C234.56 20.0745 234.393 20.3945 234.172 20.7253L235.836 21.8347C236.128 21.3975 236.366 20.9495 236.544 20.4904L234.68 19.7656ZM234.165 20.7367C233.976 21.0289 233.647 21.4389 233.149 21.9777L234.619 23.3343C235.146 22.7637 235.563 22.2565 235.844 21.8233L234.165 20.7367ZM233.163 21.9635C232.775 22.3678 232.215 22.7341 231.441 23.0364L232.168 24.8996C233.142 24.5193 233.97 24.0108 234.606 23.3485L233.163 21.9635ZM231.461 23.0289C230.717 23.301 229.834 23.448 228.796 23.448V25.448C230.02 25.448 231.142 25.275 232.148 24.9071L231.461 23.0289ZM228.796 23.448C226.835 23.448 225.325 22.8689 224.174 21.7721L222.794 23.2199C224.374 24.7257 226.406 25.448 228.796 25.448V23.448ZM224.17 21.7678C222.946 20.6159 222.308 19.0901 222.308 17.088H220.308C220.308 19.5659 221.121 21.6454 222.799 23.2242L224.17 21.7678ZM222.308 17.088C222.308 15.1014 222.929 13.5534 224.127 12.3551L222.713 10.9409C221.095 12.5586 220.308 14.6373 220.308 17.088H222.308ZM224.122 12.3608C225.227 11.2732 226.698 10.696 228.636 10.696V8.696C226.265 8.696 224.259 9.4201 222.719 10.9352L224.122 12.3608ZM228.636 10.696C230.749 10.696 232.243 11.3655 233.275 12.6071L234.813 11.3289C233.328 9.54119 231.217 8.696 228.636 8.696V10.696ZM233.278 12.6106C234.192 13.7006 234.708 15.2598 234.708 17.408H236.708C236.708 14.9482 236.115 12.8807 234.81 11.3254L233.278 12.6106ZM234.708 17.408V17.728H236.708V17.408H234.708ZM235.708 16.728H225.34V18.728H235.708V16.728ZM224.34 17.728C224.34 18.8283 224.605 19.8254 225.202 20.6505L226.822 19.4775C226.524 19.0652 226.34 18.505 226.34 17.728H224.34ZM225.205 20.6545C226.059 21.8207 227.306 22.376 228.796 22.376V20.376C227.854 20.376 227.246 20.0566 226.819 19.4735L225.205 20.6545ZM228.796 22.376C230.589 22.376 232.004 21.59 232.894 20.053L231.163 19.051C230.645 19.946 229.904 20.376 228.796 20.376V22.376ZM225.468 16.232H232.028V14.232H225.468V16.232ZM233.015 15.0676C232.829 13.9545 232.317 13.0238 231.436 12.3776L230.253 13.9904C230.652 14.2829 230.929 14.7175 231.042 15.3964L233.015 15.0676ZM231.466 12.4005C230.67 11.7697 229.747 11.448 228.732 11.448V13.448C229.296 13.448 229.781 13.617 230.223 13.9675L231.466 12.4005ZM228.732 11.448C227.733 11.448 226.817 11.7731 226.012 12.3904L227.229 13.9776C227.703 13.6136 228.196 13.448 228.732 13.448V11.448ZM225.999 12.4005C225.163 13.0635 224.668 13.9784 224.483 15.0637L226.454 15.4003C226.567 14.7363 226.84 14.2858 227.242 13.9675L225.999 12.4005ZM238.731 24H237.731V25H238.731V24ZM238.731 10.144V9.144H237.731V10.144H238.731ZM242.635 10.144H243.635V9.144H242.635V10.144ZM242.635 12.224H241.635L243.521 12.688L242.635 12.224ZM244.363 10.304L244.853 11.1756L244.876 11.1628L244.898 11.1488L244.363 10.304ZM248.331 10.016L249.321 10.155L249.435 9.34825L248.667 9.07426L248.331 10.016ZM247.819 13.664L247.248 14.4849L248.583 15.4138L248.809 13.803L247.819 13.664ZM243.403 14.272L244.184 14.8967L243.403 14.272ZM242.635 24V25H243.635V24H242.635ZM239.731 24V10.144H237.731V24H239.731ZM238.731 11.144H242.635V9.144H238.731V11.144ZM241.635 10.144V12.224H243.635V10.144H241.635ZM243.521 12.688C243.926 11.9139 244.382 11.4408 244.853 11.1756L243.873 9.43242C242.979 9.93522 242.282 10.7421 241.749 11.76L243.521 12.688ZM244.898 11.1488C245.351 10.8621 245.925 10.696 246.667 10.696V8.696C245.617 8.696 244.655 8.9352 243.828 9.45918L244.898 11.1488ZM246.667 10.696C247.041 10.696 247.48 10.7741 247.995 10.9577L248.667 9.07426C247.987 8.83123 247.317 8.696 246.667 8.696V10.696ZM247.341 9.87701L246.829 13.525L248.809 13.803L249.321 10.155L247.341 9.87701ZM248.39 12.8431C247.699 12.3622 246.88 12.152 245.995 12.152V14.152C246.56 14.152 246.958 14.2831 247.248 14.4849L248.39 12.8431ZM245.995 12.152C244.622 12.152 243.445 12.619 242.622 13.6473L244.184 14.8967C244.556 14.4317 245.106 14.152 245.995 14.152V12.152ZM242.622 13.6473C241.898 14.553 241.635 15.8565 241.635 17.344H243.635C243.635 16.0155 243.884 15.271 244.184 14.8967L242.622 13.6473ZM241.635 17.344V24H243.635V17.344H241.635ZM242.635 23H238.731V25H242.635V23ZM250.646 13.952L249.924 14.6432L249.939 14.6593L249.955 14.6746L250.646 13.952ZM250.646 10.4L251.353 11.1071L250.646 10.4ZM254.198 10.4L253.476 11.0912L253.491 11.1073L253.507 11.1226L254.198 10.4ZM254.198 13.952L254.905 14.6591L254.198 13.952ZM250.646 23.712L249.924 24.4032L249.939 24.4193L249.955 24.4346L250.646 23.712ZM254.198 20.16L253.476 20.8512L253.491 20.8673L253.507 20.8826L254.198 20.16ZM254.198 23.712L253.491 23.0049L254.198 23.712ZM251.369 13.2608C251.085 12.9637 250.942 12.617 250.942 12.16H248.942C248.942 13.111 249.269 13.959 249.924 14.6432L251.369 13.2608ZM250.942 12.16C250.942 11.7034 251.084 11.3766 251.353 11.1071L249.939 9.69289C249.27 10.362 248.942 11.2086 248.942 12.16H250.942ZM251.353 11.1071C251.653 10.807 251.995 10.664 252.438 10.664V8.664C251.473 8.664 250.62 9.01165 249.939 9.69289L251.353 11.1071ZM252.438 10.664C252.881 10.664 253.203 10.8058 253.476 11.0912L254.921 9.70878C254.255 9.01286 253.404 8.664 252.438 8.664V10.664ZM253.507 11.1226C253.792 11.3956 253.934 11.7176 253.934 12.16H255.934C255.934 11.1944 255.585 10.343 254.889 9.67736L253.507 11.1226ZM253.934 12.16C253.934 12.6031 253.791 12.9448 253.491 13.2449L254.905 14.6591C255.587 13.9779 255.934 13.1249 255.934 12.16H253.934ZM253.491 13.2449C253.222 13.5144 252.895 13.656 252.438 13.656V15.656C253.39 15.656 254.236 15.3282 254.905 14.6591L253.491 13.2449ZM252.438 13.656C251.981 13.656 251.635 13.5135 251.337 13.2294L249.955 14.6746C250.639 15.3291 251.487 15.656 252.438 15.656V13.656ZM251.369 23.0208C251.085 22.7237 250.942 22.377 250.942 21.92H248.942C248.942 22.871 249.269 23.719 249.924 24.4032L251.369 23.0208ZM250.942 21.92C250.942 21.4634 251.084 21.1366 251.353 20.8671L249.939 19.4529C249.27 20.122 248.942 20.9686 248.942 21.92H250.942ZM251.353 20.8671C251.653 20.567 251.995 20.424 252.438 20.424V18.424C251.473 18.424 250.62 18.7716 249.939 19.4529L251.353 20.8671ZM252.438 20.424C252.881 20.424 253.203 20.5658 253.476 20.8512L254.921 19.4688C254.255 18.7729 253.404 18.424 252.438 18.424V20.424ZM253.507 20.8826C253.792 21.1556 253.934 21.4776 253.934 21.92H255.934C255.934 20.9544 255.585 20.103 254.889 19.4374L253.507 20.8826ZM253.934 21.92C253.934 22.3631 253.791 22.7048 253.491 23.0049L254.905 24.4191C255.587 23.7379 255.934 22.8849 255.934 21.92H253.934ZM253.491 23.0049C253.222 23.2744 252.895 23.416 252.438 23.416V25.416C253.39 25.416 254.236 25.0882 254.905 24.4191L253.491 23.0049ZM252.438 23.416C251.981 23.416 251.635 23.2735 251.337 22.9894L249.955 24.4346C250.639 25.0891 251.487 25.416 252.438 25.416V23.416Z" fill="black"/>
</svg>
