<?xml version="1.0" encoding="utf-8"?>
<!-- Generator: Adobe Illustrator 19.0.1, SVG Export Plug-In . SVG Version: 6.00 Build 0)  -->
<svg version="1.1" xmlns="http://www.w3.org/2000/svg" xmlns:xlink="http://www.w3.org/1999/xlink" x="0px" y="0px"
	 viewBox="0 0 77.1 60" style="enable-background:new 0 0 77.1 60;" xml:space="preserve">
<style type="text/css">
	.st0{display:none;}
	.st1{fill:url(#SVGID_1_);}
	.st2{opacity:0.24;fill:#FFFFFF;}
	.st3{fill:#FFFFFF;}
	.st4{fill:url(#SVGID_2_);}
	.st5{fill:#9E8FA8;}
	.st6{fill:#00B8FC;}
	.st7{fill:url(#SVGID_3_);}
	.st8{fill:url(#SVGID_4_);}
	.st9{opacity:0.26;}
	.st10{enable-background:new    ;}
	.st11{fill:#818181;}
	.st12{clip-path:url(#SVGID_6_);enable-background:new    ;}
	.st13{fill:#858585;}
	.st14{clip-path:url(#SVGID_8_);enable-background:new    ;}
	.st15{fill:#F9F9F9;}
	.st16{clip-path:url(#SVGID_10_);enable-background:new    ;}
	.st17{clip-path:url(#SVGID_12_);enable-background:new    ;}
	.st18{opacity:0.48;fill:#FFFFFF;}
	.st19{opacity:0.48;}
	.st20{clip-path:url(#SVGID_14_);}
	.st21{clip-path:url(#SVGID_16_);}
	.st22{fill:url(#SVGID_17_);}
	.st23{fill:#002D3D;}
	.st24{fill:#CEBFB8;}
	.st25{fill:#E5DAD6;}
	.st26{clip-path:url(#SVGID_19_);enable-background:new    ;}
	.st27{clip-path:url(#SVGID_21_);enable-background:new    ;}
	.st28{clip-path:url(#SVGID_23_);enable-background:new    ;}
	.st29{clip-path:url(#SVGID_25_);enable-background:new    ;}
	.st30{fill:url(#SVGID_26_);}
	.st31{fill:url(#SVGID_27_);}
	.st32{fill:url(#SVGID_28_);}
	.st33{fill:url(#SVGID_29_);}
	.st34{fill:url(#SVGID_30_);}
	.st35{fill:url(#SVGID_31_);}
	.st36{fill:url(#SVGID_32_);}
	.st37{fill:url(#SVGID_33_);}
	.st38{fill:url(#SVGID_34_);}
	.st39{fill:url(#SVGID_35_);}
	.st40{fill:url(#SVGID_36_);}
	.st41{fill:url(#SVGID_37_);}
	.st42{fill:url(#SVGID_38_);}
	.st43{fill:url(#SVGID_39_);}
	.st44{fill:url(#SVGID_40_);}
	.st45{fill:url(#SVGID_41_);}
	.st46{fill:url(#SVGID_42_);}
	.st47{fill:url(#SVGID_43_);}
	.st48{fill:url(#SVGID_44_);}
	.st49{fill:url(#SVGID_45_);}
	.st50{fill:url(#SVGID_46_);}
	.st51{fill:url(#SVGID_47_);}
	.st52{fill:url(#SVGID_48_);}
	.st53{fill:url(#SVGID_49_);}
	.st54{fill:url(#SVGID_50_);}
	.st55{fill:url(#SVGID_51_);}
	.st56{fill:url(#SVGID_52_);}
	.st57{fill:url(#SVGID_53_);}
	.st58{fill:url(#SVGID_54_);}
	.st59{fill:url(#SVGID_55_);}
	.st60{fill:url(#SVGID_56_);}
	.st61{stroke:#000000;stroke-miterlimit:10;}
	.st62{fill:url(#SVGID_57_);stroke:#000000;stroke-width:0.25;stroke-miterlimit:10;}
	.st63{fill:url(#SVGID_58_);}
	.st64{fill:url(#SVGID_59_);}
	.st65{fill:url(#SVGID_60_);}
	.st66{fill:url(#SVGID_61_);}
	.st67{fill:url(#SVGID_62_);}
	.st68{fill:url(#SVGID_63_);}
	.st69{fill:url(#SVGID_64_);}
	.st70{fill:url(#SVGID_65_);}
	.st71{fill:url(#SVGID_66_);}
	.st72{fill:url(#SVGID_67_);}
	.st73{fill:url(#SVGID_68_);}
	.st74{fill:url(#SVGID_69_);}
	.st75{fill:url(#SVGID_70_);}
	.st76{fill:url(#SVGID_71_);}
	.st77{fill:url(#SVGID_72_);}
	.st78{fill:url(#SVGID_73_);}
	.st79{fill:url(#SVGID_74_);}
	.st80{fill:url(#SVGID_75_);}
	.st81{fill:url(#SVGID_76_);}
	.st82{fill:url(#SVGID_77_);}
	.st83{fill:url(#SVGID_78_);}
	.st84{fill:url(#SVGID_79_);}
	.st85{fill:url(#SVGID_80_);}
	.st86{fill:url(#SVGID_81_);}
	.st87{fill:url(#SVGID_82_);}
	.st88{fill:url(#SVGID_83_);}
	.st89{fill:url(#SVGID_84_);}
	.st90{fill:url(#SVGID_85_);}
	.st91{fill:url(#SVGID_86_);}
	.st92{fill:url(#SVGID_87_);}
	.st93{fill:url(#SVGID_88_);}
	.st94{fill:url(#SVGID_89_);}
	.st95{fill:url(#SVGID_90_);}
	.st96{fill:url(#SVGID_91_);}
	.st97{fill:url(#SVGID_92_);}
	.st98{fill:url(#SVGID_93_);}
	.st99{fill:url(#SVGID_94_);}
	.st100{fill:url(#SVGID_95_);}
	.st101{fill:url(#SVGID_96_);}
	.st102{fill:url(#SVGID_97_);}
	.st103{fill:url(#SVGID_98_);}
	.st104{fill:url(#SVGID_99_);}
	.st105{fill:url(#SVGID_100_);}
	.st106{fill:url(#SVGID_101_);}
	.st107{fill:url(#SVGID_102_);}
	.st108{fill:url(#SVGID_103_);}
	.st109{fill:url(#SVGID_104_);}
	.st110{fill:url(#SVGID_105_);}
	.st111{fill:url(#SVGID_106_);}
	.st112{fill:#333333;stroke:#000000;stroke-width:2;stroke-miterlimit:10;}
	.st113{fill:#333333;stroke:#000000;stroke-miterlimit:10;}
	.st114{fill:#333333;stroke:#000000;stroke-linecap:round;stroke-linejoin:round;stroke-miterlimit:10;}
	.st115{fill:#202020;}
	.st116{fill:#E6E6E6;}
	.st117{clip-path:url(#SVGID_108_);stroke:#000000;stroke-width:0.25;stroke-miterlimit:10;}
	.st118{clip-path:url(#SVGID_110_);stroke:#000000;stroke-width:0.25;stroke-miterlimit:10;}
	.st119{fill:url(#SVGID_111_);stroke:#000000;stroke-width:0.25;stroke-miterlimit:10;}
	.st120{fill:#93278F;stroke:#000000;stroke-width:0.25;stroke-miterlimit:10;}
	.st121{fill:#662D91;stroke:#000000;stroke-width:0.25;stroke-miterlimit:10;}
	.st122{fill:#FCEF19;}
	.st123{fill:none;stroke:#FCEF19;stroke-width:0.5;stroke-linecap:round;stroke-linejoin:round;stroke-miterlimit:10;}
	.st124{fill:#333333;}
	.st125{fill:url(#SVGID_112_);stroke:#000000;stroke-width:0.25;stroke-miterlimit:10;}
	.st126{fill:url(#SVGID_113_);}
	.st127{fill:url(#SVGID_114_);}
	.st128{fill:url(#SVGID_115_);}
	.st129{fill:url(#SVGID_116_);}
	.st130{fill:url(#SVGID_117_);}
	.st131{fill:url(#SVGID_118_);}
	.st132{fill:url(#SVGID_119_);}
	.st133{fill:url(#SVGID_120_);}
	.st134{fill:url(#SVGID_121_);}
	.st135{fill:url(#SVGID_122_);}
	.st136{fill:url(#SVGID_123_);}
	.st137{fill:url(#SVGID_124_);}
	.st138{fill:url(#SVGID_125_);}
	.st139{fill:url(#SVGID_126_);}
	.st140{fill:url(#SVGID_127_);}
	.st141{fill:url(#SVGID_128_);}
	.st142{fill:url(#SVGID_129_);}
	.st143{fill:url(#SVGID_130_);}
	.st144{fill:url(#SVGID_131_);}
	.st145{fill:url(#SVGID_132_);}
	.st146{fill:url(#SVGID_133_);}
	.st147{fill:url(#SVGID_134_);}
	.st148{fill:url(#SVGID_135_);}
	.st149{fill:url(#SVGID_136_);}
	.st150{fill:url(#SVGID_137_);}
	.st151{fill:url(#SVGID_138_);}
	.st152{fill:url(#SVGID_139_);}
	.st153{fill:url(#SVGID_140_);}
	.st154{fill:url(#SVGID_141_);}
	.st155{fill:url(#SVGID_142_);}
	.st156{fill:url(#SVGID_143_);}
	.st157{fill:url(#SVGID_144_);}
	.st158{fill:url(#SVGID_145_);}
	.st159{fill:url(#SVGID_146_);}
	.st160{fill:url(#SVGID_147_);}
	.st161{fill:url(#SVGID_148_);}
	.st162{fill:url(#SVGID_149_);}
	.st163{fill:url(#SVGID_150_);}
	.st164{fill:url(#SVGID_151_);}
	.st165{fill:url(#SVGID_152_);}
	.st166{fill:url(#SVGID_153_);}
	.st167{fill:url(#SVGID_154_);}
	.st168{fill:url(#SVGID_155_);}
	.st169{fill:url(#SVGID_156_);}
	.st170{fill:url(#SVGID_157_);}
	.st171{fill:url(#SVGID_158_);}
	.st172{fill:url(#SVGID_159_);}
	.st173{fill:url(#SVGID_160_);}
	.st174{fill:url(#SVGID_161_);}
	.st175{clip-path:url(#SVGID_163_);stroke:#000000;stroke-width:0.25;stroke-miterlimit:10;}
	.st176{clip-path:url(#SVGID_165_);stroke:#000000;stroke-width:0.25;stroke-miterlimit:10;}
	.st177{fill:url(#SVGID_166_);stroke:#000000;stroke-width:0.25;stroke-miterlimit:10;}
	.st178{fill:#FFFFFF;stroke:url(#SVGID_167_);stroke-miterlimit:10;}
	.st179{fill:#FFFFFF;stroke:#000000;stroke-miterlimit:10;}
	.st180{fill:url(#SVGID_168_);}
	.st181{fill:url(#SVGID_169_);}
	.st182{fill:url(#SVGID_170_);stroke:#000000;stroke-width:0.25;stroke-miterlimit:10;}
	.st183{fill:url(#SVGID_171_);}
	.st184{fill:#FFFFFF;stroke:url(#SVGID_172_);stroke-width:2;stroke-miterlimit:10;}
	.st185{fill:#FFFFFF;stroke:url(#SVGID_173_);stroke-miterlimit:10;}
	.st186{fill:#FFFFFF;stroke:url(#SVGID_174_);stroke-miterlimit:10;}
	.st187{fill:#FFFFFF;stroke:url(#SVGID_175_);stroke-linecap:round;stroke-linejoin:round;stroke-miterlimit:10;}
	.st188{fill:url(#SVGID_176_);}
	.st189{fill:url(#SVGID_177_);}
	.st190{fill:url(#SVGID_178_);}
	.st191{clip-path:url(#SVGID_180_);stroke:#000000;stroke-width:0.25;stroke-miterlimit:10;}
	.st192{clip-path:url(#SVGID_182_);stroke:#000000;stroke-width:0.25;stroke-miterlimit:10;}
	.st193{fill:url(#SVGID_183_);}
	.st194{fill:url(#SVGID_184_);}
	.st195{fill:url(#SVGID_185_);}
	.st196{fill:url(#SVGID_186_);stroke:#000000;stroke-width:0.25;stroke-miterlimit:10;}
	.st197{fill:#FFFFFF;stroke:url(#SVGID_187_);stroke-miterlimit:10;}
	.st198{fill:url(#SVGID_188_);}
	.st199{fill:url(#SVGID_189_);}
	.st200{fill:url(#SVGID_190_);stroke:#000000;stroke-width:0.25;stroke-miterlimit:10;}
	.st201{fill:url(#SVGID_191_);}
	.st202{fill:#FFFFFF;stroke:url(#SVGID_192_);stroke-width:2;stroke-miterlimit:10;}
	.st203{fill:#FFFFFF;stroke:url(#SVGID_193_);stroke-miterlimit:10;}
	.st204{fill:#FFFFFF;stroke:url(#SVGID_194_);stroke-miterlimit:10;}
	.st205{fill:#FFFFFF;stroke:url(#SVGID_195_);stroke-linecap:round;stroke-linejoin:round;stroke-miterlimit:10;}
	.st206{fill:url(#SVGID_196_);}
	.st207{fill:url(#SVGID_197_);}
	.st208{fill:url(#SVGID_198_);}
	.st209{clip-path:url(#SVGID_200_);stroke:#000000;stroke-width:0.25;stroke-miterlimit:10;}
	.st210{clip-path:url(#SVGID_202_);stroke:#000000;stroke-width:0.25;stroke-miterlimit:10;}
	.st211{fill:url(#SVGID_203_);}
	.st212{fill:url(#SVGID_204_);}
	.st213{fill:url(#SVGID_205_);}
	.st214{fill:url(#SVGID_206_);stroke:#000000;stroke-width:0.25;stroke-miterlimit:10;}
	.st215{fill:url(#SVGID_207_);stroke:#000000;stroke-width:0.5;stroke-linecap:round;stroke-linejoin:round;stroke-miterlimit:10;}
	.st216{fill:#CCCCCC;}
	.st217{fill:url(#SVGID_208_);stroke:#000000;stroke-width:0.5;stroke-linecap:round;stroke-linejoin:round;stroke-miterlimit:10;}
	.st218{fill:url(#SVGID_209_);stroke:#000000;stroke-width:0.5;stroke-linecap:round;stroke-linejoin:round;stroke-miterlimit:10;}
	.st219{fill:url(#SVGID_210_);stroke:#000000;stroke-width:0.5;stroke-linecap:round;stroke-linejoin:round;stroke-miterlimit:10;}
	.st220{fill:#058BAA;stroke:#000000;stroke-width:0.5;stroke-miterlimit:10;}
	.st221{fill:#02A7D3;}
	.st222{stroke:#000000;stroke-width:0.5;stroke-miterlimit:10;}
	.st223{fill:#FBB03B;}
	.st224{fill:url(#SVGID_211_);}
	.st225{fill:#FF0000;}
	.st226{fill:none;stroke:#000000;stroke-width:2;stroke-linecap:round;stroke-linejoin:round;stroke-miterlimit:10;}
	.st227{fill:url(#SVGID_212_);}
	.st228{fill:#E019FC;}
	.st229{fill:#00B8FC;stroke:#000000;stroke-width:0.5;stroke-miterlimit:10;}
	.st230{fill:#8CC63F;stroke:#000000;stroke-width:0.5;stroke-miterlimit:10;}
	.st231{fill:#D9E021;}
	.st232{fill:#FCEE21;}
	.st233{fill:url(#SVGID_213_);stroke:#000000;stroke-width:0.5;stroke-linecap:round;stroke-linejoin:round;stroke-miterlimit:10;}
	.st234{fill:url(#SVGID_214_);stroke:#000000;stroke-width:0.5;stroke-linecap:round;stroke-linejoin:round;stroke-miterlimit:10;}
	.st235{fill:none;stroke:#000000;stroke-width:0.5;stroke-linecap:round;stroke-linejoin:round;stroke-miterlimit:10;}
	.st236{fill:url(#SVGID_215_);stroke:#000000;stroke-width:0.5;stroke-linecap:round;stroke-linejoin:round;stroke-miterlimit:10;}
	.st237{fill:url(#SVGID_216_);stroke:#000000;stroke-width:0.5;stroke-linecap:round;stroke-linejoin:round;stroke-miterlimit:10;}
</style>
<g id="Слой_1" class="st0">
</g>
<g id="фон">
</g>
<g id="Слой_3">
	<g>
		<linearGradient id="SVGID_1_" gradientUnits="userSpaceOnUse" x1="39.375" y1="5.75" x2="39.375" y2="41.1252">
			<stop  offset="0" style="stop-color:#FCEE21"/>
			<stop  offset="1" style="stop-color:#ED1C24"/>
		</linearGradient>
		<rect x="12.2" y="7.7" class="st1" width="54.4" height="35"/>
		<circle class="st3" cx="23.2" cy="23.1" r="3.7"/>
		<circle class="st3" cx="52.6" cy="22.1" r="5"/>
		<circle cx="52.6" cy="23.1" r="2"/>
		<circle cx="23.6" cy="23.1" r="1.3"/>
		<rect x="18.8" y="24" class="st225" width="8.7" height="3"/>
		<rect x="48" y="24" class="st225" width="8.7" height="3"/>
		<g>
			<path d="M8.7,5.1c0.4-0.9,1.1-1.2,2.2-1.2c18.9,0,37.9,0,56.8,0c1.6,0,2.1,0.5,2.1,2.1c0,11.5,0,23,0,34.5c0,1.5-0.6,2.1-2.1,2.1
				c-3,0-6,0-9.1,0c-0.2,0-0.4,0-0.5,0c0-0.2,0.1-0.4,0-0.6c-0.8-3-1.5-6-2.3-9.1c0-0.1-0.1-0.1-0.1-0.2c-11,0-22.1,0-33.2,0
				c-0.8,3.3-1.7,6.5-2.4,9.8c-1.4,0-2.9,0-4.4,0c-1.7,0-3.4,0-5.1,0c-1,0-1.7-0.3-2.1-1.3C8.7,29.3,8.7,17.2,8.7,5.1z M44.5,28.1
				c0-0.1,0-0.1,0-0.2c-0.1-0.1-0.2-0.3-0.2-0.4c-1.2-2-1.7-4.1-1.4-6.4c0.6-4.3,4-7.6,8.5-8.1c4.1-0.5,8.3,2,9.8,5.9
				c0.8,2,1.3,4.1,2,6.2c0.3,0.9,0.6,1.9,0.9,2.8c0.8-0.4,0.9-1,0.9-1.8c0-5.2,0-10.4,0-15.6c0-1.4-0.6-2-2-2c-15.9,0-31.7,0-47.6,0
				c-1.4,0-2,0.6-2,2c0,5.2,0,10.4,0,15.6c0,0.2,0,0.4,0,0.7c0.1,0.7,0.5,1.1,1.2,1.2c0.7-2.2,1.5-4.4,2.2-6.7
				c0.5-1.5,1.4-2.7,2.7-3.6c2.9-1.9,6.7-1.4,8.9,1.2c2.2,2.6,2.1,6.4-0.2,8.9c-0.1,0.1-0.1,0.2-0.2,0.3
				C33.5,28.1,39,28.1,44.5,28.1z M48.2,22.5c0,2.3,1.8,4.1,4.1,4.1c2.2,0,4.1-1.8,4.1-4c0-2.3-1.8-4.1-4-4.1
				C50.1,18.4,48.2,20.2,48.2,22.5z M26.2,23.3c0-1.6-1.3-2.9-2.9-2.9c-1.6,0-2.9,1.3-2.9,2.9c0,1.6,1.3,2.8,2.8,2.9
				C24.9,26.1,26.2,24.9,26.2,23.3z M61.5,25.5c-0.5,0.9-0.9,1.8-1.3,2.6c0.7,0,1.4,0,2.2,0C62,27.2,61.7,26.4,61.5,25.5z
				 M18.6,28.1c-0.5-0.7-1-1.4-1.5-2.2c-0.2,0.7-0.5,1.4-0.7,2.2c0.7,0,1.3,0,1.9,0C18.3,28.2,18.4,28.1,18.6,28.1z"/>
			<path d="M21.9,42.6c0.4-1.8,0.9-3.5,1.3-5.2c0.2-0.8,0.4-1.6,0.6-2.4c0.1-0.4,0.3-0.5,0.7-0.5c3.5,0,7.1,0,10.6,0
				c6.3,0,12.6,0,18.9,0c0.5,0,0.7,0.2,0.8,0.6c0.6,2.3,1.2,4.6,1.7,6.9c0,0.2,0.1,0.3,0.1,0.6C45.1,42.6,33.5,42.6,21.9,42.6z
				 M49.9,38.5c0-1.5-1.2-2.7-2.7-2.7c-1.5,0-2.7,1.2-2.7,2.7c0,1.5,1.2,2.7,2.7,2.8C48.7,41.3,49.9,40,49.9,38.5z M27.4,38.5
				c0,1,0.8,1.8,1.8,1.8c1,0,1.7-0.8,1.7-1.7c0-1-0.8-1.8-1.7-1.8C28.2,36.8,27.4,37.6,27.4,38.5z"/>
			<path class="st3" d="M49.9,38.5c0,1.5-1.2,2.7-2.7,2.7c-1.5,0-2.7-1.3-2.7-2.8c0-1.5,1.2-2.7,2.7-2.7
				C48.7,35.8,49.9,37,49.9,38.5z"/>
			<path class="st3" d="M27.4,38.5c0-1,0.8-1.8,1.8-1.8c1,0,1.8,0.8,1.7,1.8c0,1-0.8,1.7-1.7,1.7C28.2,40.3,27.4,39.5,27.4,38.5z"/>
			<path d="M56.7,9.9c0,0.6,0,1.2,0,1.8c-11.7,0-23.4,0-35.2,0c0-0.6,0-1.2,0-1.8C33.2,9.9,44.9,9.9,56.7,9.9z"/>
		</g>
		<path class="st226" d="M10,28.8c0,0-5.9,1.1-6.3,7.1s7.5,9.7,6.3,12.7c-1.3,3.2-4.5,0.6-4.5,0.6"/>
		<path class="st226" d="M17,40.3c0,0-1.7,4.5,0.4,7.1c3.7,4.4-1.5,8.3-1.5,8.3"/>
		<path class="st226" d="M60.5,39.4c0,0,1.9,4.9-0.5,6.7c-2.4,1.8-6.2,1.2-6.7,4.4s2.3,5.2,2.3,5.2"/>
		<path class="st226" d="M68.8,30.7c0,0,4.1,1.8,4.5,6.9c0.4,5.2-3.8,7.6-3.8,10.4c0.1,2.8,2.9,4.8,2.9,4.8"/>
		<polygon class="st225" points="31.8,35 33.3,38.1 34,35.3 34.9,37.2 35.9,35.4 37.3,37.4 37.9,35.4 40,38.9 40.6,35.5 41.9,36.9 
			42.7,35 		"/>
	</g>
</g>
</svg>
