<svg width="106" height="15" viewBox="0 0 106 15" fill="none" xmlns="http://www.w3.org/2000/svg">
<path d="M5.02246 3.24805H1.8916V5.31934H4.82422V6.89844H1.8916V11H0.0732422V1.66895H5.02246V3.24805ZM9.36328 4.73828C10.457 4.73828 11.3298 5.08236 11.9814 5.77051C12.5374 6.3584 12.8154 7.08984 12.8154 7.96484C12.8154 8.96745 12.46 9.77637 11.749 10.3916C11.1201 10.9294 10.3112 11.1982 9.32227 11.1982C8.6888 11.1982 8.0918 11.057 7.53125 10.7744C6.97526 10.4964 6.55143 10.0863 6.25977 9.54395C6.00911 9.06999 5.88379 8.52767 5.88379 7.91699C5.88379 6.9235 6.25293 6.1237 6.99121 5.51758C7.34668 5.22591 7.77962 5.014 8.29004 4.88184C8.65918 4.78613 9.01693 4.73828 9.36328 4.73828ZM9.34961 6.26953C8.87565 6.26953 8.47233 6.43587 8.13965 6.76855C7.80697 7.10579 7.64062 7.5 7.64062 7.95117C7.64062 8.42969 7.80697 8.83529 8.13965 9.16797C8.47233 9.50065 8.87793 9.66699 9.35645 9.66699C9.82585 9.66699 10.2269 9.50065 10.5596 9.16797C10.8923 8.83984 11.0586 8.44108 11.0586 7.97168C11.0586 7.49316 10.8923 7.09212 10.5596 6.76855C10.2178 6.43587 9.81445 6.26953 9.34961 6.26953ZM14.1143 4.93652H15.8096V5.85254C16.2288 5.1097 16.8167 4.73828 17.5732 4.73828C17.8011 4.73828 18.0495 4.78841 18.3184 4.88867L18.0723 6.48145C17.8171 6.34017 17.5459 6.26953 17.2588 6.26953C16.7985 6.26953 16.443 6.41536 16.1924 6.70703C16.0511 6.86654 15.9508 7.05111 15.8916 7.26074C15.8369 7.46582 15.8096 7.74154 15.8096 8.08789V11H14.1143V4.93652ZM25.4551 4.93652V10.7744C25.4551 11.5674 25.373 12.1484 25.209 12.5176C24.9401 13.1283 24.5026 13.5863 23.8965 13.8916C23.4043 14.1377 22.846 14.2607 22.2217 14.2607C20.9912 14.2607 20.0638 13.8164 19.4395 12.9277C19.1797 12.554 19.027 12.1507 18.9814 11.7178H20.8135C20.891 12.0322 21.0117 12.2692 21.1758 12.4287C21.4492 12.693 21.807 12.8252 22.249 12.8252C22.7093 12.8252 23.0876 12.6748 23.3838 12.374C23.6344 12.1143 23.7598 11.6904 23.7598 11.1025V10.1797C23.5091 10.4714 23.2812 10.6833 23.0762 10.8154C22.6706 11.0706 22.2148 11.1982 21.709 11.1982C20.8158 11.1982 20.0843 10.8542 19.5146 10.166C19.0544 9.61458 18.8242 8.9082 18.8242 8.04688C18.8242 7.01237 19.1364 6.18978 19.7607 5.5791C20.3304 5.01855 21.0072 4.73828 21.791 4.73828C22.2103 4.73828 22.5703 4.81576 22.8711 4.9707C23.1764 5.12109 23.4727 5.37174 23.7598 5.72266V4.93652H25.4551ZM22.2695 6.26953C21.8047 6.26953 21.4082 6.43587 21.0801 6.76855C20.7474 7.09668 20.5811 7.49544 20.5811 7.96484C20.5811 8.43424 20.7474 8.83529 21.0801 9.16797C21.4082 9.50065 21.807 9.66699 22.2764 9.66699C22.7458 9.66699 23.1445 9.50065 23.4727 9.16797C23.8008 8.83073 23.9648 8.43652 23.9648 7.98535C23.9648 7.49772 23.8008 7.09212 23.4727 6.76855C23.1354 6.43587 22.7344 6.26953 22.2695 6.26953ZM33.0977 8.24512H28.5518C28.57 8.76009 28.7021 9.15658 28.9482 9.43457C29.2126 9.72624 29.5771 9.87207 30.042 9.87207C30.361 9.87207 30.6299 9.81055 30.8486 9.6875C31.0719 9.5599 31.2816 9.35026 31.4775 9.05859L33.0498 9.31152C32.8766 9.72168 32.6647 10.0544 32.4141 10.3096C31.8216 10.902 31.0423 11.1982 30.0762 11.1982C29.4701 11.1982 28.9118 11.0706 28.4014 10.8154C27.7952 10.5101 27.36 10.0498 27.0957 9.43457C26.9089 9.00163 26.8154 8.51628 26.8154 7.97852C26.8154 7.34961 26.9521 6.77083 27.2256 6.24219C27.4899 5.72266 27.8818 5.33757 28.4014 5.08691C28.8753 4.85449 29.404 4.73828 29.9873 4.73828C30.7529 4.73828 31.4001 4.92969 31.9287 5.3125C32.708 5.8776 33.0977 6.77995 33.0977 8.01953C33.0977 8.07422 33.0977 8.14941 33.0977 8.24512ZM31.4775 7.16504C31.4092 6.8597 31.3021 6.62044 31.1562 6.44727C30.8783 6.11458 30.5023 5.94824 30.0283 5.94824C29.6592 5.94824 29.3493 6.05534 29.0986 6.26953C28.8525 6.48372 28.6908 6.78223 28.6133 7.16504H31.4775ZM36.1602 6.39941V11H34.4648V6.39941H33.7949V4.93652H34.4648V2.87207H36.1602V4.93652H37.3633V6.39941H36.1602ZM43.4404 14.2402H41.7451V4.93652H43.4404V5.71582C43.9645 5.06413 44.6276 4.73828 45.4297 4.73828C46.3138 4.73828 47.0521 5.07552 47.6445 5.75C48.1595 6.33333 48.417 7.07617 48.417 7.97852C48.417 8.99479 48.0843 9.80827 47.4189 10.4189C46.8493 10.9385 46.1976 11.1982 45.4639 11.1982C45.0537 11.1982 44.6891 11.1208 44.3701 10.9658C44.0511 10.8109 43.7412 10.5579 43.4404 10.207V14.2402ZM44.958 6.26953C44.4932 6.26953 44.0944 6.43587 43.7617 6.76855C43.429 7.10124 43.2627 7.5 43.2627 7.96484C43.2627 8.43424 43.429 8.83529 43.7617 9.16797C44.0944 9.50065 44.4954 9.66699 44.9648 9.66699C45.4342 9.66699 45.833 9.50065 46.1611 9.16797C46.4938 8.83073 46.6602 8.43652 46.6602 7.98535C46.6602 7.49772 46.4938 7.09212 46.1611 6.76855C45.8285 6.43587 45.4274 6.26953 44.958 6.26953ZM54.3574 4.93652H56.0527V11H54.3574V10.207C53.8379 10.8678 53.1771 11.1982 52.375 11.1982C51.4909 11.1982 50.7549 10.861 50.167 10.1865C49.652 9.59863 49.3945 8.85352 49.3945 7.95117C49.3945 6.9349 49.7272 6.12142 50.3926 5.51074C50.9622 4.99577 51.6117 4.73828 52.3408 4.73828C53.1292 4.73828 53.8014 5.06413 54.3574 5.71582V4.93652ZM52.8398 6.26953C52.375 6.26953 51.9785 6.43587 51.6504 6.76855C51.3177 7.10124 51.1514 7.5 51.1514 7.96484C51.1514 8.43424 51.3177 8.83529 51.6504 9.16797C51.9785 9.50065 52.3773 9.66699 52.8467 9.66699C53.3161 9.66699 53.7148 9.50065 54.043 9.16797C54.3711 8.83529 54.5352 8.44108 54.5352 7.98535C54.5352 7.49772 54.3711 7.09212 54.043 6.76855C53.7057 6.43587 53.3047 6.26953 52.8398 6.26953ZM61.7607 5.35352L60.9268 6.35156C60.5758 6.08268 60.2386 5.94824 59.915 5.94824C59.7282 5.94824 59.571 5.99837 59.4434 6.09863C59.3203 6.19434 59.2588 6.31738 59.2588 6.46777C59.2588 6.60449 59.3226 6.71842 59.4502 6.80957C59.5778 6.89616 59.8353 7.00781 60.2227 7.14453C60.7786 7.33594 61.1729 7.51595 61.4053 7.68457C61.8519 7.99902 62.0752 8.44564 62.0752 9.02441C62.0752 9.68978 61.8177 10.2275 61.3027 10.6377C60.8424 11.0114 60.2523 11.1982 59.5322 11.1982C59.0902 11.1982 58.6686 11.1117 58.2676 10.9385C57.8665 10.7607 57.5202 10.5101 57.2285 10.1865L58.1172 9.14746C58.582 9.63053 59.0583 9.87207 59.5459 9.87207C59.7646 9.87207 59.9469 9.80827 60.0928 9.68066C60.2432 9.55306 60.3184 9.39355 60.3184 9.20215C60.3184 9.02897 60.2591 8.89453 60.1406 8.79883C60.0221 8.69857 59.7692 8.5778 59.3818 8.43652C58.8076 8.22689 58.4202 8.05143 58.2197 7.91016C57.8187 7.62305 57.6182 7.20378 57.6182 6.65234C57.6182 5.99154 57.8757 5.47884 58.3906 5.11426C58.7689 4.84538 59.2337 4.71094 59.7852 4.71094C60.528 4.71094 61.1865 4.92513 61.7607 5.35352ZM67.3525 5.35352L66.5186 6.35156C66.1676 6.08268 65.8304 5.94824 65.5068 5.94824C65.32 5.94824 65.1628 5.99837 65.0352 6.09863C64.9121 6.19434 64.8506 6.31738 64.8506 6.46777C64.8506 6.60449 64.9144 6.71842 65.042 6.80957C65.1696 6.89616 65.4271 7.00781 65.8145 7.14453C66.3704 7.33594 66.7646 7.51595 66.9971 7.68457C67.4437 7.99902 67.667 8.44564 67.667 9.02441C67.667 9.68978 67.4095 10.2275 66.8945 10.6377C66.4342 11.0114 65.8441 11.1982 65.124 11.1982C64.682 11.1982 64.2604 11.1117 63.8594 10.9385C63.4583 10.7607 63.112 10.5101 62.8203 10.1865L63.709 9.14746C64.1738 9.63053 64.6501 9.87207 65.1377 9.87207C65.3564 9.87207 65.5387 9.80827 65.6846 9.68066C65.835 9.55306 65.9102 9.39355 65.9102 9.20215C65.9102 9.02897 65.8509 8.89453 65.7324 8.79883C65.6139 8.69857 65.361 8.5778 64.9736 8.43652C64.3994 8.22689 64.012 8.05143 63.8115 7.91016C63.4105 7.62305 63.21 7.20378 63.21 6.65234C63.21 5.99154 63.4674 5.47884 63.9824 5.11426C64.3607 4.84538 64.8255 4.71094 65.377 4.71094C66.1198 4.71094 66.7783 4.92513 67.3525 5.35352ZM69.9775 4.93652L71.5703 8.44336L73.2246 4.77246H73.9561L75.6035 8.49121L77.2373 4.93652H79.124L75.9932 11.1299H75.2139L73.5732 7.43848L71.9668 11.1299H71.1807L68.0771 4.93652H69.9775ZM82.7949 4.73828C83.8887 4.73828 84.7614 5.08236 85.4131 5.77051C85.9691 6.3584 86.2471 7.08984 86.2471 7.96484C86.2471 8.96745 85.8916 9.77637 85.1807 10.3916C84.5518 10.9294 83.7428 11.1982 82.7539 11.1982C82.1204 11.1982 81.5234 11.057 80.9629 10.7744C80.4069 10.4964 79.9831 10.0863 79.6914 9.54395C79.4408 9.06999 79.3154 8.52767 79.3154 7.91699C79.3154 6.9235 79.6846 6.1237 80.4229 5.51758C80.7783 5.22591 81.2113 5.014 81.7217 4.88184C82.0908 4.78613 82.4486 4.73828 82.7949 4.73828ZM82.7812 6.26953C82.3073 6.26953 81.904 6.43587 81.5713 6.76855C81.2386 7.10579 81.0723 7.5 81.0723 7.95117C81.0723 8.42969 81.2386 8.83529 81.5713 9.16797C81.904 9.50065 82.3096 9.66699 82.7881 9.66699C83.2575 9.66699 83.6585 9.50065 83.9912 9.16797C84.3239 8.83984 84.4902 8.44108 84.4902 7.97168C84.4902 7.49316 84.3239 7.09212 83.9912 6.76855C83.6494 6.43587 83.2461 6.26953 82.7812 6.26953ZM87.5459 4.93652H89.2412V5.85254C89.6605 5.1097 90.2484 4.73828 91.0049 4.73828C91.2327 4.73828 91.4811 4.78841 91.75 4.88867L91.5039 6.48145C91.2487 6.34017 90.9775 6.26953 90.6904 6.26953C90.2301 6.26953 89.8747 6.41536 89.624 6.70703C89.4827 6.86654 89.3825 7.05111 89.3232 7.26074C89.2686 7.46582 89.2412 7.74154 89.2412 8.08789V11H87.5459V4.93652ZM97.1914 0.506836H98.8867V11H97.1914V10.207C96.6719 10.8678 96.0111 11.1982 95.209 11.1982C94.3249 11.1982 93.5889 10.861 93.001 10.1865C92.486 9.59863 92.2285 8.85352 92.2285 7.95117C92.2285 6.9349 92.5612 6.12142 93.2266 5.51074C93.7917 4.99577 94.4411 4.73828 95.1748 4.73828C95.9587 4.73828 96.6309 5.06413 97.1914 5.71582V0.506836ZM95.6738 6.26953C95.209 6.26953 94.8125 6.43587 94.4844 6.76855C94.1517 7.10124 93.9854 7.5 93.9854 7.96484C93.9854 8.43424 94.1517 8.83529 94.4844 9.16797C94.8125 9.50065 95.2113 9.66699 95.6807 9.66699C96.1501 9.66699 96.5488 9.50065 96.877 9.16797C97.2051 8.83529 97.3691 8.44108 97.3691 7.98535C97.3691 7.49772 97.2051 7.09212 96.877 6.76855C96.5397 6.43587 96.1387 6.26953 95.6738 6.26953ZM101.949 7.88281V5.42188C102.15 5.45378 102.316 5.46973 102.448 5.46973C102.895 5.46973 103.287 5.36263 103.624 5.14844C104.011 4.89779 104.205 4.54004 104.205 4.0752C104.205 3.74251 104.093 3.47591 103.87 3.27539C103.66 3.08854 103.412 2.99512 103.125 2.99512C102.815 2.99512 102.564 3.10677 102.373 3.33008C102.209 3.52148 102.127 3.74023 102.127 3.98633C102.127 4.03646 102.129 4.09342 102.134 4.15723H100.322C100.318 4.0752 100.315 4.01595 100.315 3.97949C100.315 3.50553 100.473 3.04753 100.787 2.60547C101.038 2.25 101.384 1.97201 101.826 1.77148C102.25 1.58008 102.699 1.48438 103.173 1.48438C104.002 1.48438 104.686 1.75326 105.224 2.29102C105.739 2.80143 105.996 3.40755 105.996 4.10938C105.996 4.75195 105.793 5.29883 105.388 5.75C104.982 6.20117 104.412 6.51562 103.679 6.69336V7.88281H101.949ZM102.838 8.99023C103.143 8.99023 103.403 9.09733 103.617 9.31152C103.831 9.52116 103.938 9.77865 103.938 10.084C103.938 10.3893 103.831 10.6491 103.617 10.8633C103.403 11.0775 103.146 11.1846 102.845 11.1846C102.539 11.1846 102.28 11.0775 102.065 10.8633C101.851 10.6445 101.744 10.3825 101.744 10.0771C101.744 9.78092 101.851 9.52572 102.065 9.31152C102.284 9.09733 102.542 8.99023 102.838 8.99023Z" fill="black"/>
</svg>
