<svg width="44" height="54" viewBox="0 0 44 54" fill="none" xmlns="http://www.w3.org/2000/svg">
<path d="M5.78473 13.4788L1.15407 8.77642L5.85647 4.14576" stroke="black" stroke-linecap="round" stroke-linejoin="round"/>
<path d="M17.5298 4.09396L13.0916 25.2673C13.0869 25.2897 13.0652 25.3029 13.0428 25.2982C10.7608 24.8198 8.52311 26.282 8.04477 28.564L6.93937 33.8375C5.3821 41.2666 11.3698 48.8579 19.7472 50.6139C28.1247 52.3699 35.2987 47.7284 36.8088 40.5247L39.2899 28.688C39.6542 26.9503 38.5407 25.2462 36.803 24.882L36.5735 24.8339C34.9746 24.4987 33.4043 25.5141 33.0537 27.1096L33.327 25.8059C33.6872 24.0877 32.5863 22.4029 30.8681 22.0427C29.1748 21.6878 27.5085 22.7524 27.119 24.4381L27.0732 24.6361L27.1893 24.0825C27.5836 22.201 26.3781 20.356 24.4966 19.9616L24.3669 19.9345C22.5693 19.5577 20.8038 20.6998 20.4107 22.494L23.9824 5.45462C24.356 3.67234 23.2141 1.92465 21.4318 1.55106C19.6495 1.17747 17.9034 2.31168 17.5298 4.09396Z" fill="#00B8FC" stroke="black"/>
<path d="M11.0477 8.18202L1.74854 8.98016" stroke="black" stroke-linecap="round" stroke-linejoin="round"/>
<path d="M28.7195 6.6653L38.0187 5.86716" stroke="black" stroke-linecap="round" stroke-linejoin="round"/>
<path d="M33.768 10.9158L38.0185 5.86716L32.9698 1.61666" stroke="black" stroke-linecap="round" stroke-linejoin="round"/>
</svg>
