<svg width="112" height="28" viewBox="0 0 112 28" fill="none" xmlns="http://www.w3.org/2000/svg">
<g clip-path="url(#clip0_201_2)">
<path d="M111.787 0.299999H0.319702V27.8H111.787V0.299999Z" fill="#058BAA" stroke="black" stroke-width="0.5" stroke-miterlimit="10"/>
<path d="M109.336 3H2.66418V25H109.336V3Z" fill="#02A7D3"/>
<path d="M107.205 5.5H4.79541V22.4H107.205V5.5Z" fill="#00B8FC"/>
</g>
<path d="M31.52 6.66H34.12V17.76H38.24V20H31.52V6.66ZM40.6956 12.28C41.5756 11.4667 42.7423 11.06 44.1956 11.06C45.649 11.06 46.8156 11.4667 47.6956 12.28C48.669 13.16 49.1556 14.2933 49.1556 15.68C49.1556 17.0533 48.669 18.18 47.6956 19.06C46.8156 19.8733 45.649 20.28 44.1956 20.28C42.7423 20.28 41.5756 19.8733 40.6956 19.06C39.7223 18.18 39.2356 17.0533 39.2356 15.68C39.2356 14.2933 39.7223 13.16 40.6956 12.28ZM42.4556 17.4C42.9223 17.88 43.5023 18.12 44.1956 18.12C44.889 18.12 45.469 17.88 45.9356 17.4C46.4023 16.92 46.6356 16.3467 46.6356 15.68C46.6356 15 46.4023 14.42 45.9356 13.94C45.469 13.46 44.889 13.22 44.1956 13.22C43.5023 13.22 42.9223 13.46 42.4556 13.94C41.989 14.42 41.7556 15 41.7556 15.68C41.7556 16.3467 41.989 16.92 42.4556 17.4ZM57.6428 12.46V11.34H60.0828V19.68C60.0828 20.1867 60.0695 20.5733 60.0428 20.84C60.0295 21.1067 59.9428 21.4667 59.7828 21.92C59.6361 22.3733 59.4095 22.78 59.1028 23.14C58.2095 24.1533 57.0028 24.66 55.4828 24.66C54.2428 24.66 53.1895 24.3333 52.3228 23.68C51.4695 23.0267 50.9695 22.14 50.8228 21.02H53.4628C53.5561 21.5133 53.7828 21.8933 54.1428 22.16C54.5028 22.44 54.9561 22.58 55.5028 22.58C55.9028 22.58 56.2428 22.5067 56.5228 22.36C56.8161 22.2133 57.0295 22.0467 57.1628 21.86C57.3095 21.6867 57.4161 21.4667 57.4828 21.2C57.5628 20.9333 57.6095 20.7267 57.6228 20.58C57.6361 20.4467 57.6428 20.3 57.6428 20.14V18.84C57.0161 19.8 56.1295 20.28 54.9828 20.28C53.6895 20.28 52.6361 19.8333 51.8228 18.94C51.0095 18.0467 50.6028 16.9533 50.6028 15.66C50.6028 14.3933 50.9961 13.3133 51.7828 12.42C52.5695 11.5133 53.6161 11.06 54.9228 11.06C56.1228 11.06 57.0295 11.5267 57.6428 12.46ZM57.2428 13.92C56.7895 13.4533 56.2161 13.22 55.5228 13.22C54.8295 13.22 54.2561 13.4533 53.8028 13.92C53.3495 14.3867 53.1228 14.9667 53.1228 15.66C53.1228 16.3533 53.3495 16.94 53.8028 17.42C54.2561 17.8867 54.8295 18.12 55.5228 18.12C56.2161 18.12 56.7895 17.8867 57.2428 17.42C57.6961 16.94 57.9228 16.3533 57.9228 15.66C57.9228 14.9667 57.6961 14.3867 57.2428 13.92ZM67.078 11.34H69.518V20H67.078V11.34ZM67.258 8.72C66.978 8.42667 66.838 8.08 66.838 7.68C66.838 7.28 66.978 6.94 67.258 6.66C67.5513 6.36667 67.898 6.22 68.298 6.22C68.698 6.22 69.038 6.36667 69.318 6.66C69.6113 6.94 69.758 7.28 69.758 7.68C69.758 8.08 69.6113 8.42667 69.318 8.72C69.038 9 68.698 9.14 68.298 9.14C67.898 9.14 67.5513 9 67.258 8.72ZM71.8436 20V11.34H74.2836V12.46C74.9503 11.5267 75.8436 11.06 76.9636 11.06C78.0969 11.06 78.9503 11.4133 79.5236 12.12C79.9769 12.68 80.2036 13.4933 80.2036 14.56V20H77.7636V15.28C77.7636 14.4667 77.6103 13.9 77.3036 13.58C77.0236 13.2867 76.6436 13.14 76.1636 13.14C75.4969 13.14 74.9969 13.3933 74.6636 13.9C74.4103 14.3 74.2836 14.86 74.2836 15.58V20H71.8436Z" fill="black"/>
<defs>
<clipPath id="clip0_201_2">
<rect width="112" height="28" fill="white"/>
</clipPath>
</defs>
</svg>
