<svg width="275" height="85" viewBox="0 0 275 85" fill="none" xmlns="http://www.w3.org/2000/svg">
<path d="M85.413 77.1603C85.413 77.1603 72.7444 77.3111 74.1018 67.8097C75.4591 58.3082 87.9769 62.3803 87.9769 62.3803C87.9769 62.3803 90.5408 58.1574 97.1767 58.7607C103.813 59.3639 105.17 61.777 105.17 61.777C105.17 61.777 105.924 58.3082 110.599 58.6098C115.275 58.9115 117.386 60.4196 117.386 60.4196C117.386 60.4196 120.252 55.8951 127.038 56.4984C133.825 57.1017 134.579 59.8164 134.579 59.8164C134.579 59.8164 135.786 58.3082 138.651 58.459C141.517 58.6098 142.573 59.9672 142.573 59.9672C142.573 59.9672 146.192 55.4427 151.772 56.3476C157.202 57.2525 158.71 59.5147 158.71 59.5147C158.71 59.5147 159.615 58.459 163.385 58.6098C167.005 58.9115 167.91 59.9672 167.91 59.9672C167.91 59.9672 168.061 56.1968 175.903 56.6492C183.595 57.1017 183.595 60.4196 183.595 60.4196C183.595 60.4196 197.621 56.3476 200.034 64.6425C202.447 72.9374 192.342 73.0883 192.342 73.0883C192.342 73.0883 191.89 77.0095 187.214 78.9701C182.539 80.9307 178.165 79.1209 178.165 79.1209C178.165 79.1209 176.054 82.7405 169.87 82.8913C163.687 82.8913 160.972 79.5734 160.972 79.5734C160.972 79.5734 159.766 81.3832 156.9 81.2324C154.035 81.0815 151.32 80.0258 151.32 80.0258C151.32 80.0258 150.717 83.7962 144.081 83.7962C137.445 83.7962 135.786 80.6291 135.786 80.6291C135.786 80.6291 135.635 82.1373 131.714 81.9865C127.793 81.8356 126.284 79.7242 126.284 79.7242C126.284 79.7242 123.419 85.1536 116.029 84.7012C108.639 84.0979 107.885 80.9307 107.885 80.9307C107.885 80.9307 105.17 82.1373 102.305 81.8356C99.439 81.534 97.9308 80.4783 97.9308 80.4783C97.9308 80.4783 96.2718 82.4389 90.8424 81.3832C85.413 80.3275 85.413 77.1603 85.413 77.1603Z" fill="url(#paint0_linear_202_50)" stroke="black" stroke-width="0.5" stroke-miterlimit="10" stroke-linecap="round" stroke-linejoin="round"/>
<path d="M88.5802 62.6819C88.5802 62.6819 91.1441 65.095 92.1998 67.8097C93.2556 70.5244 86.0164 76.4062 86.0164 76.4062C86.0164 76.4062 91.5966 71.4293 91.2949 69.0162C90.9933 66.6031 88.5802 62.6819 88.5802 62.6819Z" fill="#CCCCCC"/>
<path d="M98.0816 79.7242C98.0816 79.7242 96.7243 73.3899 97.3275 70.5244C97.9308 67.508 105.17 61.777 105.17 61.777C105.17 61.777 99.1373 67.0556 98.5341 69.6195C97.9308 72.1834 98.0816 79.7242 98.0816 79.7242Z" fill="#CCCCCC"/>
<path d="M105.17 62.3803C105.17 62.3803 105.472 68.7146 107.734 69.9211C110.147 71.2785 115.275 70.5244 117.085 68.7146C118.894 66.9048 118.291 62.6819 118.291 62.6819C118.291 62.6819 117.989 67.0556 115.727 68.4129C113.465 69.7703 109.996 70.2227 108.186 69.0162C106.226 67.9605 105.17 62.3803 105.17 62.3803Z" fill="#CCCCCC"/>
<path d="M92.3506 68.7146C92.3506 68.7146 93.2555 68.4129 94.7637 68.7146C96.2719 69.0162 97.3276 70.3736 97.3276 70.3736C97.3276 70.3736 96.2719 69.7703 94.7637 69.4687C93.4064 69.167 91.5966 69.4687 91.5966 69.4687L92.3506 68.7146Z" fill="#CCCCCC"/>
<path d="M109.996 70.3736C109.996 70.3736 110.599 74.4456 109.393 76.4062C108.186 78.3668 107.583 80.1766 107.583 80.1766C107.583 80.1766 109.695 77.7636 110.147 76.1046C110.599 74.4456 109.996 70.3736 109.996 70.3736Z" fill="#CCCCCC"/>
<path d="M117.085 68.7146C117.085 68.7146 121.76 70.2227 124.173 73.2391C126.586 76.2554 126.586 78.8193 126.586 78.8193C126.586 78.8193 125.983 75.5013 122.665 72.485C119.347 69.4687 117.085 68.7146 117.085 68.7146Z" fill="#CCCCCC"/>
<path d="M118.291 66.4523C118.291 66.4523 121.006 68.2621 126.435 68.1113C131.865 67.9605 133.976 66.4523 133.976 66.4523C133.976 66.4523 132.166 69.0162 126.134 68.7146C120.101 68.4129 118.291 66.4523 118.291 66.4523Z" fill="#CCCCCC"/>
<path d="M136.238 79.7242C136.238 79.7242 136.389 74.2948 135.183 71.5801C133.976 68.8654 132.619 67.6589 132.619 67.6589H133.976C133.976 67.6589 135.333 69.4687 136.087 73.8423C136.842 78.216 136.238 79.7242 136.238 79.7242Z" fill="#CCCCCC"/>
<path d="M143.327 61.1737C143.327 61.1737 145.74 64.9442 143.327 68.1113C140.914 71.2785 135.786 71.8817 135.786 71.8817C135.786 71.8817 141.668 69.6195 142.723 67.6589C143.779 65.6982 143.327 61.1737 143.327 61.1737Z" fill="#CCCCCC"/>
<path d="M158.258 61.1737C158.258 61.1737 157.353 65.6982 157.805 68.5638C158.258 71.4293 160.972 78.3669 160.972 78.3669C160.972 78.3669 159.615 72.6358 158.71 68.5638C157.805 64.4917 158.258 61.1737 158.258 61.1737Z" fill="#CCCCCC"/>
<path d="M144.533 67.2064C144.533 67.2064 146.946 68.5638 150.566 68.7146C154.035 68.8654 157.956 68.4129 157.956 68.4129C157.956 68.4129 154.035 69.9211 150.717 69.3178C147.248 69.0162 144.533 67.2064 144.533 67.2064Z" fill="#CCCCCC"/>
<path d="M148.304 69.6195C148.304 69.6195 147.248 70.6752 148.304 74.4456C149.359 78.216 151.471 79.875 151.471 79.875C151.471 79.875 149.812 77.3111 148.756 74.2948C147.7 71.2785 148.304 69.6195 148.304 69.6195Z" fill="#CCCCCC"/>
<path d="M168.061 61.1737C168.061 61.1737 168.061 68.4129 174.395 68.4129C180.729 68.4129 183.444 61.1737 183.444 61.1737C183.444 61.1737 179.523 67.9605 175.149 67.6589C170.926 67.3572 168.061 61.1737 168.061 61.1737Z" fill="#CCCCCC"/>
<path d="M174.847 69.4686C174.847 69.4686 173.188 74.144 175.451 76.4062C177.713 78.6685 178.316 78.3668 178.316 78.3668C178.316 78.3668 175.3 76.8587 175.149 73.2391C174.847 69.4686 174.847 69.4686 174.847 69.4686Z" fill="#CCCCCC"/>
<path d="M158.559 71.2784C158.559 71.2784 157.956 69.7703 164.893 69.7703C171.831 69.7703 174.395 71.2784 174.395 71.2784C174.395 71.2784 168.211 70.2227 165.195 70.6752C162.179 71.1276 159.313 71.8817 159.313 71.8817L158.559 71.2784Z" fill="#CCCCCC"/>
<path d="M180.428 65.849C180.428 65.849 181.785 70.6752 185.405 71.8817C189.024 73.0883 192.191 73.0883 192.191 73.0883C192.191 73.0883 187.968 73.3899 184.65 70.6752C181.483 68.1113 180.428 65.849 180.428 65.849Z" fill="#CCCCCC"/>
<path d="M274 14.2279H1V64.2279H274V14.2279Z" fill="#00B8FC" stroke="black" stroke-miterlimit="10"/>
<path d="M23.864 11.312H32.184V46.832H45.368V54H23.864V11.312ZM53.226 29.296C56.042 26.6933 59.7753 25.392 64.426 25.392C69.0767 25.392 72.81 26.6933 75.626 29.296C78.7407 32.112 80.298 35.7387 80.298 40.176C80.298 44.5707 78.7407 48.176 75.626 50.992C72.81 53.5947 69.0767 54.896 64.426 54.896C59.7753 54.896 56.042 53.5947 53.226 50.992C50.1113 48.176 48.554 44.5707 48.554 40.176C48.554 35.7387 50.1113 32.112 53.226 29.296ZM58.858 45.68C60.3513 47.216 62.2073 47.984 64.426 47.984C66.6447 47.984 68.5007 47.216 69.994 45.68C71.4873 44.144 72.234 42.3093 72.234 40.176C72.234 38 71.4873 36.144 69.994 34.608C68.5007 33.072 66.6447 32.304 64.426 32.304C62.2073 32.304 60.3513 33.072 58.858 34.608C57.3647 36.144 56.618 38 56.618 40.176C56.618 42.3093 57.3647 44.144 58.858 45.68ZM107.457 29.872V26.288H115.265V52.976C115.265 54.5973 115.222 55.8347 115.137 56.688C115.094 57.5413 114.817 58.6933 114.305 60.144C113.836 61.5947 113.11 62.896 112.129 64.048C109.27 67.2907 105.409 68.912 100.545 68.912C96.577 68.912 93.2063 67.8667 90.433 65.776C87.7023 63.6853 86.1023 60.848 85.633 57.264H94.081C94.3797 58.8427 95.105 60.0587 96.257 60.912C97.409 61.808 98.8597 62.256 100.609 62.256C101.889 62.256 102.977 62.0213 103.873 61.552C104.812 61.0827 105.494 60.5493 105.921 59.952C106.39 59.3973 106.732 58.6933 106.945 57.84C107.201 56.9867 107.35 56.3253 107.393 55.856C107.436 55.4293 107.457 54.96 107.457 54.448V50.288C105.452 53.36 102.614 54.896 98.945 54.896C94.8063 54.896 91.4357 53.4667 88.833 50.608C86.2303 47.7493 84.929 44.2507 84.929 40.112C84.929 36.0587 86.1877 32.6027 88.705 29.744C91.2223 26.8427 94.5717 25.392 98.753 25.392C102.593 25.392 105.494 26.8853 107.457 29.872ZM106.177 34.544C104.726 33.0507 102.892 32.304 100.673 32.304C98.4543 32.304 96.6197 33.0507 95.169 34.544C93.7183 36.0373 92.993 37.8933 92.993 40.112C92.993 42.3307 93.7183 44.208 95.169 45.744C96.6197 47.2373 98.4543 47.984 100.673 47.984C102.892 47.984 104.726 47.2373 106.177 45.744C107.628 44.208 108.353 42.3307 108.353 40.112C108.353 37.8933 107.628 36.0373 106.177 34.544ZM122.712 26.288H130.52V54H122.712V26.288ZM123.288 17.904C122.392 16.9653 121.944 15.856 121.944 14.576C121.944 13.296 122.392 12.208 123.288 11.312C124.227 10.3733 125.336 9.904 126.616 9.904C127.896 9.904 128.984 10.3733 129.88 11.312C130.819 12.208 131.288 13.296 131.288 14.576C131.288 15.856 130.819 16.9653 129.88 17.904C128.984 18.8 127.896 19.248 126.616 19.248C125.336 19.248 124.227 18.8 123.288 17.904ZM139.114 11.312H151.53C154.175 11.312 156.33 11.5467 157.994 12.016C159.701 12.4427 161.301 13.296 162.794 14.576C165.695 17.136 167.146 20.5707 167.146 24.88C167.146 28.8907 165.973 32.0693 163.626 34.416C161.109 36.9333 157.503 38.192 152.81 38.192H147.434V54H139.114V11.312ZM147.434 18.48V31.024H150.826C153.258 31.024 155.071 30.576 156.266 29.68C157.802 28.4853 158.57 26.8213 158.57 24.688C158.57 22.5973 157.781 20.976 156.202 19.824C154.922 18.928 152.959 18.48 150.314 18.48H147.434ZM172.15 6.064H179.958V54H172.15V6.064ZM208.648 29.872V26.288H216.456V54H208.648V50.416C206.557 53.4027 203.72 54.896 200.135 54.896C195.954 54.896 192.541 53.4667 189.896 50.608C187.293 47.7493 185.992 44.2507 185.992 40.112C185.992 35.9307 187.272 32.432 189.832 29.616C192.392 26.8 195.698 25.392 199.752 25.392C203.762 25.392 206.728 26.8853 208.648 29.872ZM207.24 34.544C205.789 33.0507 203.954 32.304 201.736 32.304C199.517 32.304 197.682 33.0507 196.232 34.544C194.781 36.0373 194.056 37.8933 194.056 40.112C194.056 42.3307 194.781 44.208 196.232 45.744C197.682 47.2373 199.517 47.984 201.736 47.984C203.954 47.984 205.789 47.2373 207.24 45.744C208.69 44.208 209.416 42.3307 209.416 40.112C209.416 37.8933 208.69 36.0373 207.24 34.544ZM223.324 68.848L233.5 49.84L220.316 26.288H229.404L237.98 42.032L245.66 26.288H254.492L232.156 68.848H223.324Z" fill="white"/>
<path d="M23.864 11.312V10.312H22.864V11.312H23.864ZM32.184 11.312H33.184V10.312H32.184V11.312ZM32.184 46.832H31.184V47.832H32.184V46.832ZM45.368 46.832H46.368V45.832H45.368V46.832ZM45.368 54V55H46.368V54H45.368ZM23.864 54H22.864V55H23.864V54ZM23.864 12.312H32.184V10.312H23.864V12.312ZM31.184 11.312V46.832H33.184V11.312H31.184ZM32.184 47.832H45.368V45.832H32.184V47.832ZM44.368 46.832V54H46.368V46.832H44.368ZM45.368 53H23.864V55H45.368V53ZM24.864 54V11.312H22.864V54H24.864ZM53.226 29.296L53.8967 30.0378L53.9047 30.0304L53.226 29.296ZM75.626 29.296L74.9472 30.0304L74.9554 30.0378L75.626 29.296ZM75.626 50.992L74.9553 50.2502L74.9473 50.2576L75.626 50.992ZM53.226 50.992L53.9048 50.2576L53.8966 50.2502L53.226 50.992ZM58.858 45.68L59.575 44.9829L58.858 45.68ZM69.994 45.68L69.277 44.9829L69.994 45.68ZM69.994 34.608L69.277 35.3051L69.994 34.608ZM58.858 34.608L59.575 35.3051L58.858 34.608ZM53.9047 30.0304C56.4983 27.6333 59.9705 26.392 64.426 26.392V24.392C59.5802 24.392 55.5857 25.7534 52.5473 28.5616L53.9047 30.0304ZM64.426 26.392C68.8815 26.392 72.3537 27.6333 74.9473 30.0304L76.3047 28.5616C73.2663 25.7534 69.2718 24.392 64.426 24.392V26.392ZM74.9554 30.0378C77.8472 32.6524 79.298 36.0032 79.298 40.176H81.298C81.298 35.4741 79.6341 31.5716 76.2966 28.5542L74.9554 30.0378ZM79.298 40.176C79.298 44.3029 77.8495 47.6336 74.9554 50.2502L76.2966 51.7338C79.6318 48.7184 81.298 44.8384 81.298 40.176H79.298ZM74.9473 50.2576C72.3537 52.6547 68.8815 53.896 64.426 53.896V55.896C69.2718 55.896 73.2663 54.5346 76.3047 51.7264L74.9473 50.2576ZM64.426 53.896C59.9705 53.896 56.4983 52.6547 53.9047 50.2576L52.5473 51.7264C55.5857 54.5346 59.5802 55.896 64.426 55.896V53.896ZM53.8966 50.2502C51.0025 47.6336 49.554 44.3029 49.554 40.176H47.554C47.554 44.8384 49.2202 48.7184 52.5554 51.7338L53.8966 50.2502ZM49.554 40.176C49.554 36.0032 51.0048 32.6524 53.8966 30.0378L52.5554 28.5542C49.2179 31.5716 47.554 35.4741 47.554 40.176H49.554ZM58.141 46.3771C59.83 48.1144 61.948 48.984 64.426 48.984V46.984C62.4666 46.984 60.8726 46.3176 59.575 44.9829L58.141 46.3771ZM64.426 48.984C66.904 48.984 69.022 48.1144 70.711 46.3771L69.277 44.9829C67.9794 46.3176 66.3854 46.984 64.426 46.984V48.984ZM70.711 46.3771C72.385 44.6553 73.234 42.5709 73.234 40.176H71.234C71.234 42.0478 70.5897 43.6327 69.277 44.9829L70.711 46.3771ZM73.234 40.176C73.234 37.7442 72.389 35.6368 70.711 33.9109L69.277 35.3051C70.5857 36.6512 71.234 38.2558 71.234 40.176H73.234ZM70.711 33.9109C69.022 32.1736 66.904 31.304 64.426 31.304V33.304C66.3854 33.304 67.9794 33.9704 69.277 35.3051L70.711 33.9109ZM64.426 31.304C61.948 31.304 59.83 32.1736 58.141 33.9109L59.575 35.3051C60.8726 33.9704 62.4666 33.304 64.426 33.304V31.304ZM58.141 33.9109C56.463 35.6368 55.618 37.7442 55.618 40.176H57.618C57.618 38.2558 58.2663 36.6512 59.575 35.3051L58.141 33.9109ZM55.618 40.176C55.618 42.5709 56.467 44.6553 58.141 46.3771L59.575 44.9829C58.2623 43.6327 57.618 42.0478 57.618 40.176H55.618ZM107.457 29.872L106.621 30.4212L108.457 33.2146V29.872H107.457ZM107.457 26.288V25.288H106.457V26.288H107.457ZM115.265 26.288H116.265V25.288H115.265V26.288ZM115.137 56.688L114.142 56.5885L114.139 56.6132L114.138 56.6381L115.137 56.688ZM114.305 60.144L113.362 59.8112L113.358 59.8236L113.354 59.8362L114.305 60.144ZM112.129 64.048L112.879 64.7093L112.885 64.7029L112.89 64.6965L112.129 64.048ZM90.433 65.776L89.8251 66.57L89.831 66.5745L90.433 65.776ZM85.633 57.264V56.264H84.4935L84.6415 57.3938L85.633 57.264ZM94.081 57.264L95.0636 57.0781L94.9096 56.264H94.081V57.264ZM96.257 60.912L96.8709 60.1226L96.8617 60.1154L96.8522 60.1084L96.257 60.912ZM103.873 61.552L103.426 60.6576L103.417 60.6618L103.409 60.6662L103.873 61.552ZM105.921 59.952L105.158 59.3061L105.131 59.3374L105.107 59.3708L105.921 59.952ZM106.945 57.84L105.987 57.5527L105.98 57.5749L105.975 57.5975L106.945 57.84ZM107.393 55.856L106.398 55.7565L106.397 55.7655L107.393 55.856ZM107.457 50.288H108.457V46.9267L106.62 49.7414L107.457 50.288ZM88.833 50.608L88.0936 51.2812L88.833 50.608ZM88.705 29.744L89.4555 30.4049L89.4603 30.3994L88.705 29.744ZM106.177 34.544L106.894 33.8472L106.177 34.544ZM95.169 34.544L95.8863 35.2408L95.169 34.544ZM95.169 45.744L94.4419 46.4307L94.4517 46.4408L95.169 45.744ZM106.177 45.744L106.894 46.4409L106.904 46.4306L106.177 45.744ZM108.457 29.872V26.288H106.457V29.872H108.457ZM107.457 27.288H115.265V25.288H107.457V27.288ZM114.265 26.288V52.976H116.265V26.288H114.265ZM114.265 52.976C114.265 54.5878 114.222 55.7855 114.142 56.5885L116.132 56.7875C116.222 55.8838 116.265 54.6069 116.265 52.976H114.265ZM114.138 56.6381C114.103 57.3469 113.863 58.3912 113.362 59.8112L115.248 60.4768C115.771 58.9955 116.086 57.7358 116.136 56.7379L114.138 56.6381ZM113.354 59.8362C112.924 61.1629 112.263 62.3483 111.368 63.3995L112.89 64.6965C113.957 63.4437 114.747 62.0265 115.256 60.4518L113.354 59.8362ZM111.379 63.3867C108.735 66.3857 105.162 67.912 100.545 67.912V69.912C105.656 69.912 109.806 68.1956 112.879 64.7093L111.379 63.3867ZM100.545 67.912C96.7619 67.912 93.6107 66.9192 91.035 64.9775L89.831 66.5745C92.802 68.8142 96.3921 69.912 100.545 69.912V67.912ZM91.0409 64.982C88.533 63.0619 87.0613 60.4696 86.6245 57.1342L84.6415 57.3938C85.1434 61.2264 86.8717 64.3088 89.8251 66.57L91.0409 64.982ZM85.633 58.264H94.081V56.264H85.633V58.264ZM93.0984 57.4499C93.4378 59.2436 94.2826 60.694 95.6618 61.7156L96.8522 60.1084C95.9274 59.4234 95.3215 58.4417 95.0636 57.0781L93.0984 57.4499ZM95.6431 61.7014C97.0035 62.7595 98.6829 63.256 100.609 63.256V61.256C99.0364 61.256 97.8145 60.8565 96.8709 60.1226L95.6431 61.7014ZM100.609 63.256C102.009 63.256 103.265 62.9994 104.337 62.4378L103.409 60.6662C102.689 61.0432 101.769 61.256 100.609 61.256V63.256ZM104.32 62.4464C105.346 61.9335 106.181 61.308 106.735 60.5332L105.107 59.3708C104.807 59.7906 104.277 60.2318 103.426 60.6576L104.32 62.4464ZM106.684 60.5979C107.271 59.9043 107.672 59.0536 107.915 58.0825L105.975 57.5975C105.791 58.3331 105.509 58.8903 105.158 59.3061L106.684 60.5979ZM107.903 58.1273C108.164 57.2558 108.337 56.5176 108.389 55.9465L106.397 55.7655C106.364 56.1331 106.238 56.7175 105.987 57.5527L107.903 58.1273ZM108.388 55.9555C108.435 55.4902 108.457 54.9871 108.457 54.448H106.457C106.457 54.9329 106.437 55.3685 106.398 55.7565L108.388 55.9555ZM108.457 54.448V50.288H106.457V54.448H108.457ZM106.62 49.7414C104.799 52.5305 102.277 53.896 98.945 53.896V55.896C102.952 55.896 106.104 54.1895 108.294 50.8346L106.62 49.7414ZM98.945 53.896C95.0655 53.896 91.9711 52.5694 89.5724 49.9348L88.0936 51.2812C90.9003 54.364 94.5472 55.896 98.945 55.896V53.896ZM89.5724 49.9348C87.1499 47.2739 85.929 44.0208 85.929 40.112H83.929C83.929 44.4805 85.3108 48.2247 88.0936 51.2812L89.5724 49.9348ZM85.929 40.112C85.929 36.285 87.1098 33.0686 89.4555 30.4049L87.9545 29.0831C85.2655 32.1367 83.929 35.8323 83.929 40.112H85.929ZM89.4603 30.3994C91.7695 27.7379 94.8325 26.392 98.753 26.392V24.392C94.3108 24.392 90.6751 25.9474 87.9497 29.0886L89.4603 30.3994ZM98.753 26.392C102.286 26.392 104.859 27.74 106.621 30.4212L108.293 29.3228C106.129 26.0307 102.9 24.392 98.753 24.392V26.392ZM106.894 33.8472C105.242 32.1463 103.142 31.304 100.673 31.304V33.304C102.641 33.304 104.211 33.955 105.46 35.2408L106.894 33.8472ZM100.673 31.304C98.2039 31.304 96.104 32.1463 94.4517 33.8472L95.8863 35.2408C97.1353 33.955 98.7048 33.304 100.673 33.304V31.304ZM94.4517 33.8472C92.807 35.5403 91.993 37.652 91.993 40.112H93.993C93.993 38.1347 94.6296 36.5344 95.8863 35.2408L94.4517 33.8472ZM91.993 40.112C91.993 42.5719 92.8065 44.699 94.442 46.4306L95.896 45.0574C94.6301 43.717 93.993 42.0895 93.993 40.112H91.993ZM94.4517 46.4408C96.104 48.1417 98.2039 48.984 100.673 48.984V46.984C98.7048 46.984 97.1353 46.333 95.8863 45.0472L94.4517 46.4408ZM100.673 48.984C103.142 48.984 105.242 48.1417 106.894 46.4408L105.46 45.0472C104.211 46.333 102.641 46.984 100.673 46.984V48.984ZM106.904 46.4306C108.539 44.699 109.353 42.5719 109.353 40.112H107.353C107.353 42.0895 106.716 43.717 105.45 45.0574L106.904 46.4306ZM109.353 40.112C109.353 37.652 108.539 35.5403 106.894 33.8472L105.46 35.2408C106.716 36.5344 107.353 38.1347 107.353 40.112H109.353ZM122.712 26.288V25.288H121.712V26.288H122.712ZM130.52 26.288H131.52V25.288H130.52V26.288ZM130.52 54V55H131.52V54H130.52ZM122.712 54H121.712V55H122.712V54ZM123.288 17.904L122.565 18.5945L122.581 18.6113L122.598 18.6274L123.288 17.904ZM123.288 11.312L122.581 10.6049V10.6049L123.288 11.312ZM129.88 11.312L129.157 12.0025L129.173 12.0193L129.19 12.0354L129.88 11.312ZM129.88 17.904L130.587 18.6111V18.6111L129.88 17.904ZM122.712 27.288H130.52V25.288H122.712V27.288ZM129.52 26.288V54H131.52V26.288H129.52ZM130.52 53H122.712V55H130.52V53ZM123.712 54V26.288H121.712V54H123.712ZM124.011 17.2135C123.29 16.458 122.944 15.5949 122.944 14.576H120.944C120.944 16.1171 121.494 17.4726 122.565 18.5945L124.011 17.2135ZM122.944 14.576C122.944 13.5582 123.289 12.7254 123.995 12.0191L122.581 10.6049C121.495 11.6906 120.944 13.0338 120.944 14.576H122.944ZM123.995 12.0191C124.754 11.2602 125.612 10.904 126.616 10.904V8.904C125.06 8.904 123.699 9.48645 122.581 10.6049L123.995 12.0191ZM126.616 10.904C127.618 10.904 128.446 11.2584 129.157 12.0025L130.603 10.6215C129.522 9.48826 128.174 8.904 126.616 8.904V10.904ZM129.19 12.0354C129.934 12.7456 130.288 13.5735 130.288 14.576H132.288C132.288 13.0185 131.704 11.6704 130.57 10.5886L129.19 12.0354ZM130.288 14.576C130.288 15.58 129.932 16.438 129.173 17.1969L130.587 18.6111C131.706 17.4927 132.288 16.132 132.288 14.576H130.288ZM129.173 17.1969C128.467 17.9032 127.634 18.248 126.616 18.248V20.248C128.158 20.248 129.501 19.6968 130.587 18.6111L129.173 17.1969ZM126.616 18.248C125.597 18.248 124.734 17.9018 123.978 17.1806L122.598 18.6274C123.719 19.6982 125.075 20.248 126.616 20.248V18.248ZM139.114 11.312V10.312H138.114V11.312H139.114ZM157.994 12.016L157.723 12.9784L157.737 12.9825L157.751 12.9861L157.994 12.016ZM162.794 14.576L163.456 13.8262L163.45 13.8214L163.445 13.8167L162.794 14.576ZM163.626 34.416L164.333 35.1231L163.626 34.416ZM147.434 38.192V37.192H146.434V38.192H147.434ZM147.434 54V55H148.434V54H147.434ZM139.114 54H138.114V55H139.114V54ZM147.434 18.48V17.48H146.434V18.48H147.434ZM147.434 31.024H146.434V32.024H147.434V31.024ZM156.266 29.68L156.866 30.48L156.873 30.4747L156.88 30.4694L156.266 29.68ZM156.202 19.824L156.791 19.0162L156.784 19.0104L156.775 19.0048L156.202 19.824ZM139.114 12.312H151.53V10.312H139.114V12.312ZM151.53 12.312C154.127 12.312 156.18 12.5435 157.723 12.9784L158.265 11.0535C156.48 10.5498 154.224 10.312 151.53 10.312V12.312ZM157.751 12.9861C159.291 13.3709 160.754 14.1442 162.143 15.3353L163.445 13.8167C161.848 12.4478 160.111 11.5144 158.237 11.0459L157.751 12.9861ZM162.132 15.3258C164.793 17.6731 166.146 20.8211 166.146 24.88H168.146C168.146 20.3202 166.598 16.5988 163.456 13.8262L162.132 15.3258ZM166.146 24.88C166.146 28.6845 165.04 31.5878 162.919 33.7089L164.333 35.1231C166.905 32.5509 168.146 29.0968 168.146 24.88H166.146ZM162.919 33.7089C160.643 35.9847 157.326 37.192 152.81 37.192V39.192C157.681 39.192 161.574 37.8819 164.333 35.1231L162.919 33.7089ZM152.81 37.192H147.434V39.192H152.81V37.192ZM146.434 38.192V54H148.434V38.192H146.434ZM147.434 53H139.114V55H147.434V53ZM140.114 54V11.312H138.114V54H140.114ZM146.434 18.48V31.024H148.434V18.48H146.434ZM147.434 32.024H150.826V30.024H147.434V32.024ZM150.826 32.024C153.349 32.024 155.42 31.5648 156.866 30.48L155.666 28.88C154.723 29.5872 153.167 30.024 150.826 30.024V32.024ZM156.88 30.4694C158.685 29.0652 159.57 27.0958 159.57 24.688H157.57C157.57 26.5469 156.919 27.9054 155.652 28.8906L156.88 30.4694ZM159.57 24.688C159.57 22.304 158.648 20.3713 156.791 19.0162L155.613 20.6318C156.913 21.5807 157.57 22.8906 157.57 24.688H159.57ZM156.775 19.0048C155.247 17.9346 153.037 17.48 150.314 17.48V19.48C152.882 19.48 154.597 19.9214 155.629 20.6432L156.775 19.0048ZM150.314 17.48H147.434V19.48H150.314V17.48ZM172.15 6.064V5.064H171.15V6.064H172.15ZM179.958 6.064H180.958V5.064H179.958V6.064ZM179.958 54V55H180.958V54H179.958ZM172.15 54H171.15V55H172.15V54ZM172.15 7.064H179.958V5.064H172.15V7.064ZM178.958 6.064V54H180.958V6.064H178.958ZM179.958 53H172.15V55H179.958V53ZM173.15 54V6.064H171.15V54H173.15ZM208.648 29.872L207.806 30.4128L209.648 33.2768V29.872H208.648ZM208.648 26.288V25.288H207.648V26.288H208.648ZM216.456 26.288H217.456V25.288H216.456V26.288ZM216.456 54V55H217.456V54H216.456ZM208.648 54H207.648V55H208.648V54ZM208.648 50.416H209.648V47.2436L207.828 49.8425L208.648 50.416ZM189.896 50.608L189.156 51.2812L189.162 51.2872L189.896 50.608ZM189.831 29.616L190.571 30.2887L189.831 29.616ZM207.24 34.544L207.957 33.8472L207.24 34.544ZM196.232 34.544L196.949 35.2408L196.232 34.544ZM196.232 45.744L195.504 46.4307L195.514 46.4408L196.232 45.744ZM207.24 45.744L207.957 46.4409L207.967 46.4306L207.24 45.744ZM209.648 29.872V26.288H207.648V29.872H209.648ZM208.648 27.288H216.456V25.288H208.648V27.288ZM215.456 26.288V54H217.456V26.288H215.456ZM216.456 53H208.648V55H216.456V53ZM209.648 54V50.416H207.648V54H209.648ZM207.828 49.8425C205.921 52.5674 203.387 53.896 200.135 53.896V55.896C204.052 55.896 207.193 54.238 209.467 50.9895L207.828 49.8425ZM200.135 53.896C196.21 53.896 193.07 52.5667 190.629 49.9288L189.162 51.2872C192.011 54.3667 195.698 55.896 200.135 55.896V53.896ZM190.635 49.9348C188.212 47.2739 186.992 44.0208 186.992 40.112H184.992C184.992 44.4805 186.373 48.2247 189.156 51.2812L190.635 49.9348ZM186.992 40.112C186.992 36.1528 188.196 32.9018 190.571 30.2887L189.092 28.9433C186.347 31.9622 184.992 35.7085 184.992 40.112H186.992ZM190.571 30.2887C192.928 27.6959 195.959 26.392 199.751 26.392V24.392C195.437 24.392 191.855 25.9041 189.092 28.9433L190.571 30.2887ZM199.751 26.392C203.474 26.392 206.097 27.7534 207.806 30.4128L209.489 29.3312C207.358 26.0172 204.05 24.392 199.751 24.392V26.392ZM207.957 33.8472C206.304 32.1463 204.205 31.304 201.736 31.304V33.304C203.704 33.304 205.273 33.955 206.522 35.2408L207.957 33.8472ZM201.736 31.304C199.266 31.304 197.167 32.1463 195.514 33.8472L196.949 35.2408C198.198 33.955 199.767 33.304 201.736 33.304V31.304ZM195.514 33.8472C193.87 35.5403 193.055 37.652 193.055 40.112H195.055C195.055 38.1347 195.692 36.5344 196.949 35.2408L195.514 33.8472ZM193.055 40.112C193.055 42.5719 193.869 44.699 195.504 46.4306L196.959 45.0574C195.693 43.717 195.055 42.0895 195.055 40.112H193.055ZM195.514 46.4408C197.167 48.1417 199.266 48.984 201.736 48.984V46.984C199.767 46.984 198.198 46.333 196.949 45.0472L195.514 46.4408ZM201.736 48.984C204.205 48.984 206.304 48.1417 207.957 46.4408L206.522 45.0472C205.273 46.333 203.704 46.984 201.736 46.984V48.984ZM207.967 46.4306C209.602 44.699 210.415 42.5719 210.415 40.112H208.415C208.415 42.0895 207.778 43.717 206.512 45.0574L207.967 46.4306ZM210.415 40.112C210.415 37.652 209.601 35.5403 207.957 33.8472L206.522 35.2408C207.779 36.5344 208.415 38.1347 208.415 40.112H210.415ZM223.324 68.848L222.442 68.376L221.654 69.848H223.324V68.848ZM233.499 49.84L234.381 50.312L234.64 49.8293L234.372 49.3515L233.499 49.84ZM220.316 26.288V25.288H218.61L219.443 26.7765L220.316 26.288ZM229.404 26.288L230.282 25.8096L229.998 25.288H229.404V26.288ZM237.98 42.032L237.101 42.5104L238.029 44.2125L238.878 42.4704L237.98 42.032ZM245.66 26.288V25.288H245.035L244.761 25.8496L245.66 26.288ZM254.492 26.288L255.377 26.7527L256.146 25.288H254.492V26.288ZM232.156 68.848V69.848H232.76L233.041 69.3127L232.156 68.848ZM224.205 69.32L234.381 50.312L232.618 49.368L222.442 68.376L224.205 69.32ZM234.372 49.3515L221.188 25.7995L219.443 26.7765L232.627 50.3285L234.372 49.3515ZM220.316 27.288H229.404V25.288H220.316V27.288ZM228.525 26.7663L237.101 42.5104L238.858 41.5536L230.282 25.8096L228.525 26.7663ZM238.878 42.4704L246.558 26.7264L244.761 25.8496L237.081 41.5936L238.878 42.4704ZM245.66 27.288H254.492V25.288H245.66V27.288ZM253.606 25.8233L231.27 68.3833L233.041 69.3127L255.377 26.7527L253.606 25.8233ZM232.156 67.848H223.324V69.848H232.156V67.848Z" fill="black"/>
<defs>
<linearGradient id="paint0_linear_202_50" x1="137.205" y1="24.9626" x2="137.205" y2="102.059" gradientUnits="userSpaceOnUse">
<stop stop-color="white"/>
<stop offset="0.5902" stop-color="white"/>
<stop offset="1" stop-color="#00FFFF"/>
</linearGradient>
</defs>
</svg>
