<svg width="106" height="28" viewBox="0 0 106 28" fill="none" xmlns="http://www.w3.org/2000/svg">
<g clip-path="url(#clip0_2_935)">
<path d="M104.9 0.300003H0.300003V27.8H104.9V0.300003Z" fill="#058BAA" stroke="black" stroke-width="0.5" stroke-miterlimit="10"/>
<path d="M102.6 3H2.5V25H102.6V3Z" fill="#02A7D3"/>
<path d="M100.6 5.5H4.5V22.4H100.6V5.5Z" fill="#00B8FC"/>
<path d="M32 19.7V27.8H28.6V9H32V10.6C32.9 9.3 34.3 8.6 36 8.6C37.8 8.6 39.2 9.2 40.4 10.4C41.5 11.6 42.1 13.2 42.1 15.1C42.1 17 41.5 18.5 40.4 19.8C39.3 21 37.8 21.7 36 21.7C34.3 21.7 33 21 32 19.7ZM37.5 12.7C36.9 12 36 11.7 35.1 11.7C34.1 11.7 33.3 12 32.7 12.7C32.1 13.4 31.7 14.2 31.7 15.2C31.7 16.2 32 17 32.7 17.7C33.4 18.4 34.2 18.7 35.1 18.7C36.1 18.7 36.9 18.4 37.5 17.7C38.1 17 38.5 16.2 38.5 15.2C38.5 14.2 38.1 13.3 37.5 12.7Z" fill="black"/>
<path d="M44 0.0999985H47.4V21.3H44V0.0999985Z" fill="black"/>
<path d="M59.4 10.6V9H62.8V21.2H59.4V19.6C58.5 20.9 57.2 21.6 55.6 21.6C53.8 21.6 52.3 21 51.1 19.7C49.9 18.4 49.4 16.9 49.4 15.1C49.4 13.3 50 11.7 51.1 10.5C52.2 9.3 53.7 8.6 55.5 8.6C57.2 8.6 58.5 9.3 59.4 10.6ZM58.8 12.7C58.2 12 57.3 11.7 56.4 11.7C55.4 11.7 54.6 12 54 12.7C53.4 13.4 53 14.2 53 15.2C53 16.2 53.3 17 54 17.7C54.6 18.4 55.5 18.7 56.4 18.7C57.4 18.7 58.2 18.4 58.8 17.7C59.4 17 59.8 16.2 59.8 15.2C59.8 14.2 59.4 13.3 58.8 12.7Z" fill="black"/>
<path d="M65.1 27.8L69.6 19.4L63.8 9H67.8L71.6 16L75 9H78.9L69 27.8H65.1Z" fill="black"/>
</g>
<defs>
<clipPath id="clip0_2_935">
<rect width="105.1" height="28" fill="white"/>
</clipPath>
</defs>
</svg>
