<svg width="173" height="46" viewBox="0 0 173 46" fill="none" xmlns="http://www.w3.org/2000/svg">
<g clip-path="url(#clip0_102_900)">
<path d="M172.671 0.492859H0.493835V45.6714H172.671V0.492859Z" fill="#058BAA" stroke="black" stroke-width="0.5" stroke-miterlimit="10"/>
<path d="M168.885 4.92857H4.11517V41.0714H168.885V4.92857Z" fill="#02A7D3"/>
<path d="M165.593 9.03572H7.40723V36.8H165.593V9.03572Z" fill="#00B8FC"/>
<path d="M31.6641 22.5078L35.0234 27H32.4531L29.5703 22.7109H29.3047V27H27.2266V16.3359H30.3203C31.5182 16.3359 32.4245 16.5885 33.0391 17.0938C33.3672 17.3594 33.625 17.7083 33.8125 18.1406C34 18.5677 34.0938 19.0182 34.0938 19.4922C34.0938 19.9661 34.0078 20.4115 33.8359 20.8281C33.6641 21.2448 33.4297 21.5833 33.1328 21.8438C32.7578 22.1615 32.2682 22.3828 31.6641 22.5078ZM29.3047 21.2422H29.9062C30.5312 21.2422 31.0078 21.1276 31.3359 20.8984C31.5234 20.7734 31.6719 20.5964 31.7812 20.3672C31.8906 20.1328 31.9453 19.8828 31.9453 19.6172C31.9453 19.0964 31.776 18.7005 31.4375 18.4297C31.099 18.1589 30.599 18.0234 29.9375 18.0234H29.3047V21.2422ZM42.7188 23.8516H37.5234C37.5443 24.4401 37.6953 24.8932 37.9766 25.2109C38.2786 25.5443 38.6953 25.7109 39.2266 25.7109C39.5911 25.7109 39.8984 25.6406 40.1484 25.5C40.4036 25.3542 40.6432 25.1146 40.8672 24.7812L42.6641 25.0703C42.4661 25.5391 42.224 25.9193 41.9375 26.2109C41.2604 26.888 40.3698 27.2266 39.2656 27.2266C38.5729 27.2266 37.9349 27.0807 37.3516 26.7891C36.6589 26.4401 36.1615 25.9141 35.8594 25.2109C35.6458 24.7161 35.5391 24.1615 35.5391 23.5469C35.5391 22.8281 35.6953 22.1667 36.0078 21.5625C36.3099 20.9688 36.7578 20.5286 37.3516 20.2422C37.8932 19.9766 38.4974 19.8438 39.1641 19.8438C40.0391 19.8438 40.7786 20.0625 41.3828 20.5C42.2734 21.1458 42.7188 22.1771 42.7188 23.5938C42.7188 23.6562 42.7188 23.7422 42.7188 23.8516ZM40.8672 22.6172C40.7891 22.2682 40.6667 21.9948 40.5 21.7969C40.1823 21.4167 39.7526 21.2266 39.2109 21.2266C38.7891 21.2266 38.4349 21.349 38.1484 21.5938C37.8672 21.8385 37.6823 22.1797 37.5938 22.6172H40.8672ZM48.7734 20.5469L47.8203 21.6875C47.4193 21.3802 47.0339 21.2266 46.6641 21.2266C46.4505 21.2266 46.2708 21.2839 46.125 21.3984C45.9844 21.5078 45.9141 21.6484 45.9141 21.8203C45.9141 21.9766 45.987 22.1068 46.1328 22.2109C46.2786 22.3099 46.5729 22.4375 47.0156 22.5938C47.651 22.8125 48.1016 23.0182 48.3672 23.2109C48.8776 23.5703 49.1328 24.0807 49.1328 24.7422C49.1328 25.5026 48.8385 26.1172 48.25 26.5859C47.724 27.013 47.0495 27.2266 46.2266 27.2266C45.7214 27.2266 45.2396 27.1276 44.7812 26.9297C44.3229 26.7266 43.9271 26.4401 43.5938 26.0703L44.6094 24.8828C45.1406 25.4349 45.6849 25.7109 46.2422 25.7109C46.4922 25.7109 46.7005 25.638 46.8672 25.4922C47.0391 25.3464 47.125 25.1641 47.125 24.9453C47.125 24.7474 47.0573 24.5938 46.9219 24.4844C46.7865 24.3698 46.4974 24.2318 46.0547 24.0703C45.3984 23.8307 44.9557 23.6302 44.7266 23.4688C44.2682 23.1406 44.0391 22.6615 44.0391 22.0312C44.0391 21.276 44.3333 20.6901 44.9219 20.2734C45.3542 19.9661 45.8854 19.8125 46.5156 19.8125C47.3646 19.8125 48.1172 20.0573 48.7734 20.5469ZM52.5781 21.7422V27H50.6406V21.7422H49.875V20.0703H50.6406V17.7109H52.5781V20.0703H53.9531V21.7422H52.5781ZM58.5781 19.8438C59.8281 19.8438 60.8255 20.237 61.5703 21.0234C62.2057 21.6953 62.5234 22.5312 62.5234 23.5312C62.5234 24.6771 62.1172 25.6016 61.3047 26.3047C60.5859 26.9193 59.6615 27.2266 58.5312 27.2266C57.8073 27.2266 57.125 27.0651 56.4844 26.7422C55.849 26.4245 55.3646 25.9557 55.0312 25.3359C54.7448 24.7943 54.6016 24.1745 54.6016 23.4766C54.6016 22.3411 55.0234 21.4271 55.8672 20.7344C56.2734 20.401 56.7682 20.1589 57.3516 20.0078C57.7734 19.8984 58.1823 19.8438 58.5781 19.8438ZM58.5625 21.5938C58.0208 21.5938 57.5599 21.7839 57.1797 22.1641C56.7995 22.5495 56.6094 23 56.6094 23.5156C56.6094 24.0625 56.7995 24.526 57.1797 24.9062C57.5599 25.2865 58.0234 25.4766 58.5703 25.4766C59.1068 25.4766 59.5651 25.2865 59.9453 24.9062C60.3255 24.5312 60.5156 24.0755 60.5156 23.5391C60.5156 22.9922 60.3255 22.5339 59.9453 22.1641C59.5547 21.7839 59.0938 21.5938 58.5625 21.5938ZM64.0078 20.0703H65.9453V21.1172C66.4245 20.2682 67.0964 19.8438 67.9609 19.8438C68.2214 19.8438 68.5052 19.901 68.8125 20.0156L68.5312 21.8359C68.2396 21.6745 67.9297 21.5938 67.6016 21.5938C67.0755 21.5938 66.6693 21.7604 66.3828 22.0938C66.2214 22.276 66.1068 22.487 66.0391 22.7266C65.9766 22.9609 65.9453 23.276 65.9453 23.6719V27H64.0078V20.0703ZM76.5312 23.8516H71.3359C71.3568 24.4401 71.5078 24.8932 71.7891 25.2109C72.0911 25.5443 72.5078 25.7109 73.0391 25.7109C73.4036 25.7109 73.7109 25.6406 73.9609 25.5C74.2161 25.3542 74.4557 25.1146 74.6797 24.7812L76.4766 25.0703C76.2786 25.5391 76.0365 25.9193 75.75 26.2109C75.0729 26.888 74.1823 27.2266 73.0781 27.2266C72.3854 27.2266 71.7474 27.0807 71.1641 26.7891C70.4714 26.4401 69.974 25.9141 69.6719 25.2109C69.4583 24.7161 69.3516 24.1615 69.3516 23.5469C69.3516 22.8281 69.5078 22.1667 69.8203 21.5625C70.1224 20.9688 70.5703 20.5286 71.1641 20.2422C71.7057 19.9766 72.3099 19.8438 72.9766 19.8438C73.8516 19.8438 74.5911 20.0625 75.1953 20.5C76.0859 21.1458 76.5312 22.1771 76.5312 23.5938C76.5312 23.6562 76.5312 23.7422 76.5312 23.8516ZM74.6797 22.6172C74.6016 22.2682 74.4792 21.9948 74.3125 21.7969C73.9948 21.4167 73.5651 21.2266 73.0234 21.2266C72.6016 21.2266 72.2474 21.349 71.9609 21.5938C71.6797 21.8385 71.4948 22.1797 71.4062 22.6172H74.6797ZM83.9609 30.7031H82.0234V20.0703H83.9609V20.9609C84.5599 20.2161 85.3177 19.8438 86.2344 19.8438C87.2448 19.8438 88.0885 20.2292 88.7656 21C89.3542 21.6667 89.6484 22.5156 89.6484 23.5469C89.6484 24.7083 89.2682 25.638 88.5078 26.3359C87.8568 26.9297 87.112 27.2266 86.2734 27.2266C85.8047 27.2266 85.388 27.138 85.0234 26.9609C84.6589 26.7839 84.3047 26.4948 83.9609 26.0938V30.7031ZM85.6953 21.5938C85.1641 21.5938 84.7083 21.7839 84.3281 22.1641C83.9479 22.5443 83.7578 23 83.7578 23.5312C83.7578 24.0677 83.9479 24.526 84.3281 24.9062C84.7083 25.2865 85.1667 25.4766 85.7031 25.4766C86.2396 25.4766 86.6953 25.2865 87.0703 24.9062C87.4505 24.5208 87.6406 24.0703 87.6406 23.5547C87.6406 22.9974 87.4505 22.5339 87.0703 22.1641C86.6901 21.7839 86.2318 21.5938 85.6953 21.5938ZM96.4375 20.0703H98.375V27H96.4375V26.0938C95.8438 26.849 95.0885 27.2266 94.1719 27.2266C93.1615 27.2266 92.3203 26.8411 91.6484 26.0703C91.0599 25.3984 90.7656 24.5469 90.7656 23.5156C90.7656 22.3542 91.1458 21.4245 91.9062 20.7266C92.5573 20.138 93.2995 19.8438 94.1328 19.8438C95.0339 19.8438 95.8021 20.2161 96.4375 20.9609V20.0703ZM94.7031 21.5938C94.1719 21.5938 93.7188 21.7839 93.3438 22.1641C92.9635 22.5443 92.7734 23 92.7734 23.5312C92.7734 24.0677 92.9635 24.526 93.3438 24.9062C93.7188 25.2865 94.1745 25.4766 94.7109 25.4766C95.2474 25.4766 95.7031 25.2865 96.0781 24.9062C96.4531 24.526 96.6406 24.0755 96.6406 23.5547C96.6406 22.9974 96.4531 22.5339 96.0781 22.1641C95.6927 21.7839 95.2344 21.5938 94.7031 21.5938ZM104.898 20.5469L103.945 21.6875C103.544 21.3802 103.159 21.2266 102.789 21.2266C102.576 21.2266 102.396 21.2839 102.25 21.3984C102.109 21.5078 102.039 21.6484 102.039 21.8203C102.039 21.9766 102.112 22.1068 102.258 22.2109C102.404 22.3099 102.698 22.4375 103.141 22.5938C103.776 22.8125 104.227 23.0182 104.492 23.2109C105.003 23.5703 105.258 24.0807 105.258 24.7422C105.258 25.5026 104.964 26.1172 104.375 26.5859C103.849 27.013 103.174 27.2266 102.352 27.2266C101.846 27.2266 101.365 27.1276 100.906 26.9297C100.448 26.7266 100.052 26.4401 99.7188 26.0703L100.734 24.8828C101.266 25.4349 101.81 25.7109 102.367 25.7109C102.617 25.7109 102.826 25.638 102.992 25.4922C103.164 25.3464 103.25 25.1641 103.25 24.9453C103.25 24.7474 103.182 24.5938 103.047 24.4844C102.911 24.3698 102.622 24.2318 102.18 24.0703C101.523 23.8307 101.081 23.6302 100.852 23.4688C100.393 23.1406 100.164 22.6615 100.164 22.0312C100.164 21.276 100.458 20.6901 101.047 20.2734C101.479 19.9661 102.01 19.8125 102.641 19.8125C103.49 19.8125 104.242 20.0573 104.898 20.5469ZM111.289 20.5469L110.336 21.6875C109.935 21.3802 109.549 21.2266 109.18 21.2266C108.966 21.2266 108.786 21.2839 108.641 21.3984C108.5 21.5078 108.43 21.6484 108.43 21.8203C108.43 21.9766 108.503 22.1068 108.648 22.2109C108.794 22.3099 109.089 22.4375 109.531 22.5938C110.167 22.8125 110.617 23.0182 110.883 23.2109C111.393 23.5703 111.648 24.0807 111.648 24.7422C111.648 25.5026 111.354 26.1172 110.766 26.5859C110.24 27.013 109.565 27.2266 108.742 27.2266C108.237 27.2266 107.755 27.1276 107.297 26.9297C106.839 26.7266 106.443 26.4401 106.109 26.0703L107.125 24.8828C107.656 25.4349 108.201 25.7109 108.758 25.7109C109.008 25.7109 109.216 25.638 109.383 25.4922C109.555 25.3464 109.641 25.1641 109.641 24.9453C109.641 24.7474 109.573 24.5938 109.438 24.4844C109.302 24.3698 109.013 24.2318 108.57 24.0703C107.914 23.8307 107.471 23.6302 107.242 23.4688C106.784 23.1406 106.555 22.6615 106.555 22.0312C106.555 21.276 106.849 20.6901 107.438 20.2734C107.87 19.9661 108.401 19.8125 109.031 19.8125C109.88 19.8125 110.633 20.0573 111.289 20.5469ZM114.289 20.0703L116.109 24.0781L118 19.8828H118.836L120.719 24.1328L122.586 20.0703H124.742L121.164 27.1484H120.273L118.398 22.9297L116.562 27.1484H115.664L112.117 20.0703H114.289ZM128.938 19.8438C130.188 19.8438 131.185 20.237 131.93 21.0234C132.565 21.6953 132.883 22.5312 132.883 23.5312C132.883 24.6771 132.477 25.6016 131.664 26.3047C130.945 26.9193 130.021 27.2266 128.891 27.2266C128.167 27.2266 127.484 27.0651 126.844 26.7422C126.208 26.4245 125.724 25.9557 125.391 25.3359C125.104 24.7943 124.961 24.1745 124.961 23.4766C124.961 22.3411 125.383 21.4271 126.227 20.7344C126.633 20.401 127.128 20.1589 127.711 20.0078C128.133 19.8984 128.542 19.8438 128.938 19.8438ZM128.922 21.5938C128.38 21.5938 127.919 21.7839 127.539 22.1641C127.159 22.5495 126.969 23 126.969 23.5156C126.969 24.0625 127.159 24.526 127.539 24.9062C127.919 25.2865 128.383 25.4766 128.93 25.4766C129.466 25.4766 129.924 25.2865 130.305 24.9062C130.685 24.5312 130.875 24.0755 130.875 23.5391C130.875 22.9922 130.685 22.5339 130.305 22.1641C129.914 21.7839 129.453 21.5938 128.922 21.5938ZM134.367 20.0703H136.305V21.1172C136.784 20.2682 137.456 19.8438 138.32 19.8438C138.581 19.8438 138.865 19.901 139.172 20.0156L138.891 21.8359C138.599 21.6745 138.289 21.5938 137.961 21.5938C137.435 21.5938 137.029 21.7604 136.742 22.0938C136.581 22.276 136.466 22.487 136.398 22.7266C136.336 22.9609 136.305 23.276 136.305 23.6719V27H134.367V20.0703ZM145.391 15.0078H147.328V27H145.391V26.0938C144.797 26.849 144.042 27.2266 143.125 27.2266C142.115 27.2266 141.273 26.8411 140.602 26.0703C140.013 25.3984 139.719 24.5469 139.719 23.5156C139.719 22.3542 140.099 21.4245 140.859 20.7266C141.505 20.138 142.247 19.8438 143.086 19.8438C143.982 19.8438 144.75 20.2161 145.391 20.9609V15.0078ZM143.656 21.5938C143.125 21.5938 142.672 21.7839 142.297 22.1641C141.917 22.5443 141.727 23 141.727 23.5312C141.727 24.0677 141.917 24.526 142.297 24.9062C142.672 25.2865 143.128 25.4766 143.664 25.4766C144.201 25.4766 144.656 25.2865 145.031 24.9062C145.406 24.526 145.594 24.0755 145.594 23.5547C145.594 22.9974 145.406 22.5339 145.031 22.1641C144.646 21.7839 144.188 21.5938 143.656 21.5938Z" fill="black"/>
</g>
<defs>
<clipPath id="clip0_102_900">
<rect width="173" height="46" fill="white"/>
</clipPath>
</defs>
</svg>
