<svg width="106" height="29" viewBox="0 0 106 29" fill="none" xmlns="http://www.w3.org/2000/svg">
<path d="M105.6 1H1V28.5H105.6V1Z" fill="#058BAA" stroke="black" stroke-width="0.5" stroke-miterlimit="10"/>
<path d="M103.3 3.70001H3.19995V25.7H103.3V3.70001Z" fill="#02A7D3"/>
<path d="M101.3 6.20001H5.19995V23.1H101.3V6.20001Z" fill="#00B8FC"/>
<path d="M23 23.47V10.48H26.66V12.43C27.1 11.59 27.64 10.99 28.28 10.63C28.88 10.25 29.6 10.06 30.44 10.06C30.92 10.06 31.44 10.16 32 10.36L31.52 13.78C31.06 13.46 30.49 13.3 29.81 13.3C28.75 13.3 27.94 13.65 27.38 14.35C26.9 14.95 26.66 15.91 26.66 17.23V23.47H23ZM33.8105 10.48H37.4705V17.83C37.4705 18.87 37.7305 19.63 38.2505 20.11C38.7505 20.55 39.3705 20.77 40.1105 20.77C40.8505 20.77 41.4705 20.55 41.9705 20.11C42.4905 19.63 42.7505 18.87 42.7505 17.83V10.48H46.4105V18.43C46.4105 20.17 45.8805 21.5 44.8205 22.42C43.7005 23.4 42.1305 23.89 40.1105 23.89C38.0905 23.89 36.5205 23.4 35.4005 22.42C34.3405 21.5 33.8105 20.17 33.8105 18.43V10.48ZM49.8945 1H53.5545V23.47H49.8945V1ZM66.433 19.3L69.793 19.84C69.653 20.2 69.463 20.56 69.223 20.92C69.003 21.26 68.653 21.69 68.173 22.21C67.693 22.71 67.043 23.12 66.223 23.44C65.403 23.74 64.463 23.89 63.403 23.89C61.363 23.89 59.703 23.28 58.423 22.06C57.063 20.78 56.383 19.09 56.383 16.99C56.383 14.91 57.043 13.21 58.363 11.89C59.603 10.67 61.233 10.06 63.253 10.06C65.453 10.06 67.143 10.77 68.323 12.19C69.363 13.43 69.883 15.13 69.883 17.29V17.59H60.163C60.163 18.47 60.373 19.2 60.793 19.78C61.393 20.6 62.263 21.01 63.403 21.01C64.763 21.01 65.773 20.44 66.433 19.3ZM60.283 15.25H66.433C66.293 14.41 65.923 13.77 65.323 13.33C64.743 12.87 64.083 12.64 63.343 12.64C62.623 12.64 61.963 12.87 61.363 13.33C60.783 13.79 60.423 14.43 60.283 15.25ZM81.5968 11.44L79.7968 13.57C79.1768 12.99 78.4668 12.7 77.6668 12.7C77.2268 12.7 76.8768 12.8 76.6168 13C76.3768 13.18 76.2568 13.43 76.2568 13.75C76.2568 14.27 76.6468 14.66 77.4268 14.92L78.2968 15.19C79.9968 15.73 81.0968 16.35 81.5968 17.05C82.0368 17.65 82.2568 18.37 82.2568 19.21C82.2568 20.53 81.7768 21.63 80.8168 22.51C79.8168 23.43 78.5168 23.89 76.9168 23.89C74.8968 23.89 73.2168 23.17 71.8768 21.73L73.7968 19.51C74.6568 20.51 75.6168 21.01 76.6768 21.01C77.1968 21.01 77.6268 20.89 77.9668 20.65C78.3068 20.39 78.4768 20.04 78.4768 19.6C78.4768 19 78.0968 18.56 77.3368 18.28L76.4968 17.98C75.1968 17.52 74.2668 17 73.7068 16.42C73.0468 15.72 72.7168 14.89 72.7168 13.93C72.7168 12.73 73.1668 11.75 74.0668 10.99C74.8468 10.37 75.9768 10.06 77.4568 10.06C79.0168 10.06 80.3968 10.52 81.5968 11.44Z" fill="black"/>
</svg>
