<svg width="106" height="28" viewBox="0 0 106 28" fill="none" xmlns="http://www.w3.org/2000/svg">
<g clip-path="url(#clip0_2_945)">
<path d="M104.9 0.3H0.300003V27.8H104.9V0.3Z" fill="#058BAA" stroke="black" stroke-width="0.5" stroke-miterlimit="10"/>
<path d="M102.6 3H2.5V25H102.6V3Z" fill="#02A7D3"/>
<path d="M100.6 5.5H4.5V22.4H100.6V5.5Z" fill="#00B8FC"/>
<path d="M26.6 9.9L24.9 11.9C24.3 11.4 23.6 11.1 22.9 11.1C22.5 11.1 22.2 11.2 21.9 11.4C21.7 11.6 21.5 11.8 21.5 12.1C21.5 12.6 21.9 13 22.6 13.2L23.4 13.5C25 14 26 14.6 26.5 15.3C26.9 15.9 27.1 16.5 27.1 17.3C27.1 18.5 26.6 19.6 25.7 20.4C24.8 21.3 23.5 21.7 22 21.7C20.1 21.7 18.5 21 17.3 19.7L19.1 17.6C20.1 18.5 21 19 22 19C22.5 19 22.9 18.9 23.2 18.6C23.5 18.3 23.7 18 23.7 17.6C23.7 17 23.3 16.6 22.6 16.4L21.8 16.1C20.6 15.7 19.7 15.2 19.2 14.6C18.6 13.9 18.3 13.2 18.3 12.3C18.3 11.2 18.7 10.2 19.6 9.5C20.3 8.9 21.4 8.6 22.8 8.6C24.2 8.6 25.5 9.1 26.6 9.9Z" fill="black"/>
<path d="M38.2 9.4V12.8C37.4 12.1 36.5 11.7 35.4 11.7C34.3 11.7 33.5 12 32.9 12.7C32.3 13.4 32 14.2 32 15.1C32 16.1 32.3 16.9 33 17.6C33.7 18.3 34.5 18.6 35.6 18.6C36.6 18.6 37.5 18.2 38.3 17.5V20.9C37.3 21.4 36.2 21.7 35.1 21.7C33.2 21.7 31.6 21.1 30.4 19.9C29.1 18.7 28.5 17.1 28.5 15.2C28.5 13.1 29.2 11.5 30.6 10.2C31.8 9.1 33.3 8.6 35 8.6C36.1 8.6 37.2 8.9 38.2 9.4Z" fill="black"/>
<path d="M46.5 8.6C48.6 8.6 50.2 9.2 51.4 10.3C52.8 11.5 53.5 13.1 53.5 15.1C53.5 17 52.8 18.6 51.4 19.9C50.2 21 48.5 21.6 46.5 21.6C44.5 21.6 42.8 21 41.6 19.9C40.2 18.7 39.5 17.1 39.5 15.1C39.5 13.1 40.2 11.5 41.6 10.3C42.8 9.2 44.4 8.6 46.5 8.6ZM44 17.6C44.7 18.3 45.5 18.6 46.5 18.6C47.5 18.6 48.3 18.3 49 17.6C49.7 16.9 50 16.1 50 15.2C50 14.2 49.7 13.4 49 12.7C48.3 12 47.5 11.7 46.5 11.7C45.5 11.7 44.7 12 44 12.7C43.3 13.4 43 14.2 43 15.2C43 16.1 43.3 16.9 44 17.6Z" fill="black"/>
<path d="M55.4 21.3V9H58.8V10.8C59.2 10 59.7 9.4 60.3 9.1C60.9 8.7 61.5 8.6 62.3 8.6C62.8 8.6 63.2 8.7 63.8 8.9L63.3 12.1C62.9 11.8 62.3 11.6 61.7 11.6C60.7 11.6 59.9 11.9 59.4 12.6C58.9 13.2 58.7 14.1 58.7 15.3V21.2H55.4V21.3Z" fill="black"/>
<path d="M73.7 17.3L76.9 17.8C76.8 18.1 76.6 18.5 76.4 18.8C76.2 19.1 75.8 19.5 75.4 20C74.9 20.5 74.3 20.9 73.6 21.2C72.8 21.5 71.9 21.6 70.9 21.6C69 21.6 67.4 21 66.2 19.9C64.9 18.7 64.3 17.1 64.3 15.1C64.3 13.1 64.9 11.5 66.2 10.3C67.4 9.2 68.9 8.6 70.8 8.6C72.9 8.6 74.5 9.3 75.6 10.6C76.6 11.8 77.1 13.4 77.1 15.4V15.7H67.9C67.9 16.5 68.1 17.2 68.5 17.8C69.1 18.6 69.9 19 71 19C72.2 19 73.1 18.4 73.7 17.3ZM67.9 13.5H73.7C73.6 12.7 73.2 12.1 72.7 11.7C72.1 11.3 71.5 11.1 70.8 11.1C70.1 11.1 69.5 11.3 68.9 11.8C68.4 12.2 68.1 12.8 67.9 13.5Z" fill="black"/>
<path d="M87.3 9.9L85.6 11.9C85 11.4 84.3 11.1 83.6 11.1C83.2 11.1 82.9 11.2 82.6 11.4C82.4 11.6 82.2 11.8 82.2 12.1C82.2 12.6 82.6 13 83.3 13.2L84.1 13.5C85.7 14 86.7 14.6 87.2 15.3C87.6 15.9 87.8 16.5 87.8 17.3C87.8 18.5 87.3 19.6 86.4 20.4C85.5 21.3 84.2 21.7 82.7 21.7C80.8 21.7 79.2 21 78 19.7L79.8 17.6C80.6 18.5 81.5 19 82.5 19C83 19 83.4 18.9 83.7 18.6C84 18.3 84.2 18 84.2 17.6C84.2 17 83.8 16.6 83.1 16.4L82.3 16.1C81.1 15.7 80.2 15.2 79.7 14.6C79.1 13.9 78.8 13.2 78.8 12.3C78.8 11.2 79.2 10.2 80.1 9.5C80.8 8.9 81.9 8.6 83.3 8.6C84.9 8.6 86.2 9.1 87.3 9.9Z" fill="black"/>
</g>
<defs>
<clipPath id="clip0_2_945">
<rect width="105.1" height="28" fill="white"/>
</clipPath>
</defs>
</svg>
