<svg width="112" height="28" viewBox="0 0 112 28" fill="none" xmlns="http://www.w3.org/2000/svg">
<g clip-path="url(#clip0_201_3)">
<path d="M111.787 0.299999H0.319702V27.8H111.787V0.299999Z" fill="#058BAA" stroke="black" stroke-width="0.5" stroke-miterlimit="10"/>
<path d="M109.336 3H2.66418V25H109.336V3Z" fill="#02A7D3"/>
<path d="M107.205 5.5H4.79541V22.4H107.205V5.5Z" fill="#00B8FC"/>
</g>
<path d="M33.44 7.92L32.08 9.7C31.5067 8.94 30.78 8.56 29.9 8.56C29.26 8.56 28.7933 8.72 28.5 9.04C28.2067 9.34667 28.06 9.70667 28.06 10.12C28.06 10.48 28.2 10.78 28.48 11.02C28.6933 11.22 29.2267 11.4733 30.08 11.78C31.4 12.2333 32.3 12.68 32.78 13.12C33.54 13.8 33.92 14.7333 33.92 15.92C33.92 17.2267 33.4867 18.2867 32.62 19.1C31.7667 19.9 30.6533 20.3 29.28 20.3C27.36 20.3 25.8267 19.46 24.68 17.78L26.38 16.16C26.6733 16.76 27.08 17.2067 27.6 17.5C28.12 17.7933 28.6467 17.94 29.18 17.94C29.78 17.94 30.2733 17.7733 30.66 17.44C31.0467 17.0933 31.24 16.6467 31.24 16.1C31.24 15.6333 31.0667 15.2333 30.72 14.9C30.4 14.6067 29.7133 14.28 28.66 13.92C27.6733 13.5867 26.9333 13.2 26.44 12.76C25.7333 12.1467 25.38 11.32 25.38 10.28C25.38 9.2 25.7467 8.28 26.48 7.52C27.2133 6.74667 28.2733 6.36 29.66 6.36C31.1667 6.36 32.4267 6.88 33.44 7.92ZM35.8436 11.34H38.2836V20H35.8436V11.34ZM36.0236 8.72C35.7436 8.42667 35.6036 8.08 35.6036 7.68C35.6036 7.28 35.7436 6.94 36.0236 6.66C36.3169 6.36667 36.6636 6.22 37.0636 6.22C37.4636 6.22 37.8036 6.36667 38.0836 6.66C38.3769 6.94 38.5236 7.28 38.5236 7.68C38.5236 8.08 38.3769 8.42667 38.0836 8.72C37.8036 9 37.4636 9.14 37.0636 9.14C36.6636 9.14 36.3169 9 36.0236 8.72ZM47.2092 12.46V11.34H49.6492V19.68C49.6492 20.1867 49.6359 20.5733 49.6092 20.84C49.5959 21.1067 49.5092 21.4667 49.3492 21.92C49.2026 22.3733 48.9759 22.78 48.6692 23.14C47.7759 24.1533 46.5692 24.66 45.0492 24.66C43.8092 24.66 42.7559 24.3333 41.8892 23.68C41.0359 23.0267 40.5359 22.14 40.3892 21.02H43.0292C43.1226 21.5133 43.3492 21.8933 43.7092 22.16C44.0692 22.44 44.5226 22.58 45.0692 22.58C45.4692 22.58 45.8092 22.5067 46.0892 22.36C46.3826 22.2133 46.5959 22.0467 46.7292 21.86C46.8759 21.6867 46.9826 21.4667 47.0492 21.2C47.1292 20.9333 47.1759 20.7267 47.1892 20.58C47.2026 20.4467 47.2092 20.3 47.2092 20.14V18.84C46.5826 19.8 45.6959 20.28 44.5492 20.28C43.2559 20.28 42.2026 19.8333 41.3892 18.94C40.5759 18.0467 40.1692 16.9533 40.1692 15.66C40.1692 14.3933 40.5626 13.3133 41.3492 12.42C42.1359 11.5133 43.1826 11.06 44.4892 11.06C45.6892 11.06 46.5959 11.5267 47.2092 12.46ZM46.8092 13.92C46.3559 13.4533 45.7826 13.22 45.0892 13.22C44.3959 13.22 43.8226 13.4533 43.3692 13.92C42.9159 14.3867 42.6892 14.9667 42.6892 15.66C42.6892 16.3533 42.9159 16.94 43.3692 17.42C43.8226 17.8867 44.3959 18.12 45.0892 18.12C45.7826 18.12 46.3559 17.8867 46.8092 17.42C47.2626 16.94 47.4892 16.3533 47.4892 15.66C47.4892 14.9667 47.2626 14.3867 46.8092 13.92ZM51.9764 20V11.34H54.4164V12.46C55.0831 11.5267 55.9764 11.06 57.0964 11.06C58.2297 11.06 59.0831 11.4133 59.6564 12.12C60.1097 12.68 60.3364 13.4933 60.3364 14.56V20H57.8964V15.28C57.8964 14.4667 57.7431 13.9 57.4364 13.58C57.1564 13.2867 56.7764 13.14 56.2964 13.14C55.6297 13.14 55.1297 13.3933 54.7964 13.9C54.5431 14.3 54.4164 14.86 54.4164 15.58V20H51.9764ZM67.328 11.34H69.768V16.24C69.768 16.9333 69.9413 17.44 70.288 17.76C70.6213 18.0533 71.0346 18.2 71.528 18.2C72.0213 18.2 72.4346 18.0533 72.768 17.76C73.1146 17.44 73.288 16.9333 73.288 16.24V11.34H75.728V16.64C75.728 17.8 75.3746 18.6867 74.668 19.3C73.9213 19.9533 72.8746 20.28 71.528 20.28C70.1813 20.28 69.1346 19.9533 68.388 19.3C67.6813 18.6867 67.328 17.8 67.328 16.64V11.34ZM80.4906 18.88V24.64H78.0506V11.34H80.4906V12.46C81.1573 11.5267 82.0973 11.06 83.3106 11.06C84.5773 11.06 85.604 11.4933 86.3906 12.36C87.1773 13.2267 87.5706 14.3267 87.5706 15.66C87.5706 16.9933 87.164 18.1 86.3506 18.98C85.5506 19.8467 84.5173 20.28 83.2506 20.28C82.0906 20.28 81.1706 19.8133 80.4906 18.88ZM84.3706 13.92C83.9173 13.4533 83.344 13.22 82.6506 13.22C81.9573 13.22 81.384 13.4533 80.9306 13.92C80.4773 14.3867 80.2506 14.9667 80.2506 15.66C80.2506 16.3533 80.4773 16.94 80.9306 17.42C81.384 17.8867 81.9573 18.12 82.6506 18.12C83.344 18.12 83.9173 17.8867 84.3706 17.42C84.824 16.94 85.0506 16.3533 85.0506 15.66C85.0506 14.9667 84.824 14.3867 84.3706 13.92Z" fill="black"/>
<defs>
<clipPath id="clip0_201_3">
<rect width="112" height="28" fill="white"/>
</clipPath>
</defs>
</svg>
