<svg width="117" height="150" viewBox="0 0 117 150" fill="none" xmlns="http://www.w3.org/2000/svg">
<path d="M44.0064 125.586V122.187H38.0266C37.0637 121.856 36.0312 121.653 34.9733 121.653C29.8233 121.653 25.7755 125.586 25.7755 130.713C25.7755 135.84 29.8296 139.773 34.9733 139.773C40.117 139.773 44.1711 135.84 44.1711 130.713C44.1711 128.979 43.7087 127.282 42.7775 126.018L44.0064 125.586ZM34.9733 135.643C32.2494 135.643 30.0893 133.477 30.0893 130.681C30.0893 127.886 32.2494 125.783 34.9733 125.783C37.6972 125.783 39.889 127.917 39.889 130.713C39.889 133.508 37.7289 135.643 34.9733 135.643ZM15.1143 121.653C9.96432 121.653 5.91651 125.586 5.91651 130.713C5.91651 135.84 9.97066 139.773 15.1143 139.773C20.258 139.773 24.3122 135.84 24.3122 130.713C24.3122 125.586 20.258 121.653 15.1143 121.653ZM15.1143 135.643C12.3905 135.643 10.2304 133.477 10.2304 130.681C10.2304 127.886 12.3905 125.783 15.1143 125.783C17.8382 125.783 20.03 127.917 20.03 130.713C20.03 133.508 17.8699 135.643 15.1143 135.643ZM0 139.271H4.25051V114.957H0V139.271ZM45.8625 139.271H50.113V122.187H45.8625V139.271ZM34.967 145.332C32.2431 145.332 30.083 143.204 30.083 140.434H25.7628C25.7628 145.561 29.8169 149.494 34.9606 149.494C40.1043 149.494 44.1585 145.561 44.1585 140.434H39.8383C39.8383 143.197 37.6782 145.332 34.9543 145.332H34.967ZM70.371 121.647C65.259 121.647 61.3696 125.579 61.3696 130.808C61.3696 136.037 64.9233 139.767 70.4344 139.767C73.4877 139.767 76.2115 138.636 78.2069 136.501L75.35 133.667C73.9564 135.002 72.4614 135.967 70.5357 135.967C68.2109 135.967 66.4499 134.633 65.8545 132.403H79.1064V131.374C79.1064 125.548 75.5211 121.647 70.371 121.647ZM65.7531 128.94C66.3169 126.672 68.0462 125.408 70.2697 125.408C72.4931 125.408 74.1528 126.64 74.6849 128.94H65.7531ZM116.1 120.179C116.1 119.849 115.866 119.715 115.537 119.715H115.005V121.246H115.201V120.649H115.53L115.898 121.246H116.132L115.733 120.611C115.967 120.579 116.1 120.446 116.1 120.179ZM115.201 120.446V119.912H115.53C115.796 119.912 115.898 120.014 115.898 120.179C115.898 120.344 115.796 120.446 115.53 120.446H115.201ZM107.992 121.647C105.902 121.647 104.109 122.447 102.842 123.813V114.957H98.5917V139.271H102.842V129.976C102.842 127.511 104.4 125.815 106.991 125.815C109.417 125.815 110.741 127.314 110.741 129.976V139.271H114.992V129.214C114.992 124.487 112.034 121.653 107.986 121.653L107.992 121.647ZM115.53 119.016C114.701 119.016 114.035 119.683 114.035 120.484C114.035 121.285 114.701 121.983 115.53 121.983C116.36 121.983 116.994 121.316 116.994 120.484C116.994 119.652 116.329 119.016 115.53 119.016ZM115.53 121.78C114.802 121.78 114.238 121.215 114.238 120.478C114.238 119.741 114.802 119.213 115.53 119.213C116.259 119.213 116.791 119.779 116.791 120.478C116.791 121.177 116.227 121.78 115.53 121.78ZM89.6599 125.776C91.4526 125.776 92.9159 126.71 94.0434 128.006L97.0017 125.078C95.342 122.981 92.7195 121.647 89.7296 121.647C84.5795 121.647 80.5317 125.579 80.5317 130.707C80.5317 135.834 84.5859 139.767 89.7296 139.767C92.7195 139.767 95.342 138.432 97.0017 136.336L94.0434 133.407C92.9475 134.671 91.4526 135.637 89.6282 135.637C86.9043 135.637 84.8139 133.502 84.8139 130.707C84.8139 127.911 86.9043 125.776 89.6599 125.776ZM58.4747 116.913H54.2241V122.174H51.931V125.973H54.2241V139.265H58.4747V125.973H60.7995V122.174H58.4747V116.913ZM47.9466 114.48C46.3882 114.48 45.1593 115.713 45.1593 117.314C45.1593 118.915 46.3882 120.109 47.9466 120.109C49.5049 120.109 50.8035 118.877 50.8035 117.314C50.8035 115.751 49.5746 114.48 47.9466 114.48ZM58.6647 96.7096C32.0341 96.7096 10.3634 75.1398 10.3634 48.5953C10.3634 22.0507 32.0467 0.5 58.6774 0.5V20.4687C42.9739 20.4687 30.5328 33.1057 30.5328 48.608C30.5328 64.1103 42.9676 76.7535 58.6774 76.7535V96.7223L58.6647 96.7096ZM82.2294 83.1006H102.031V39.9673H59.0258V59.8281H82.2421V83.1133L82.2294 83.1006Z" fill="white"/>
</svg>
