<svg width="126" height="32" viewBox="0 0 126 32" fill="none" xmlns="http://www.w3.org/2000/svg">
<path d="M26.8039 21.6335C24.7562 21.6335 23.132 20.0131 23.132 17.9209C23.132 15.8287 24.7562 14.2575 26.8039 14.2575C28.8516 14.2575 30.5005 15.8533 30.5005 17.9455C30.5005 20.0377 28.8763 21.6335 26.8039 21.6335ZM33.5988 14.1078V11.5664H29.1024C28.3787 11.3182 27.6037 11.1685 26.8039 11.1685C22.9325 11.1685 19.8856 14.1099 19.8856 17.9476C19.8856 21.7853 22.9325 24.7266 26.8039 24.7266C30.6753 24.7266 33.7222 21.7853 33.7222 17.9476C33.7222 16.6512 33.3727 15.3816 32.6736 14.4339L33.5988 14.1099V14.1078ZM11.8653 21.6335C9.81759 21.6335 8.19338 20.0131 8.19338 17.9209C8.19338 15.8287 9.81759 14.2575 11.8653 14.2575C13.913 14.2575 15.5619 15.8533 15.5619 17.9455C15.5619 20.0377 13.9377 21.6335 11.8653 21.6335ZM11.8653 11.1665C7.99396 11.1665 4.94703 14.1078 4.94703 17.9455C4.94703 21.7832 7.99396 24.7246 11.8653 24.7246C15.7367 24.7246 18.7836 21.7832 18.7836 17.9455C18.7836 14.1078 15.7367 11.1665 11.8653 11.1665ZM0.5 24.3492H3.69701V6.15755H0.5V24.3492ZM34.9969 24.3492H38.1939V11.5664H34.9969V24.3513V24.3492ZM26.8039 28.8843C24.7562 28.8843 23.132 27.2906 23.132 25.2209H19.8856C19.8856 29.0587 22.9325 32 26.8039 32C30.6753 32 33.7222 29.0587 33.7222 25.2209H30.4758C30.4758 27.2885 28.8516 28.8843 26.8039 28.8843ZM49.9601 16.6225C50.3836 14.9283 51.683 13.9806 53.3565 13.9806C55.0301 13.9806 56.2781 14.9037 56.679 16.6225H49.9601ZM53.4326 11.1644C49.5859 11.1644 46.6624 14.1058 46.6624 18.0173C46.6624 21.9289 49.3351 24.7205 53.482 24.7205C55.7805 24.7205 57.8282 23.8733 59.327 22.2775L57.1786 20.1587C56.13 21.1556 55.0054 21.8776 53.556 21.8776C51.8084 21.8776 50.4844 20.8807 50.0341 19.2111H60.0014V18.4378C60.0014 14.077 57.304 11.1603 53.4326 11.1603M87.1544 10.264V9.86603H87.4032C87.6026 9.86603 87.6787 9.93988 87.6787 10.065C87.6787 10.1901 87.6046 10.264 87.4032 10.264H87.1523H87.1544ZM87.8287 10.065C87.8287 9.81476 87.654 9.7163 87.4032 9.7163H87.0043V10.8629H87.1544V10.4137H87.4032L87.6787 10.8629H87.8534L87.5532 10.3891C87.728 10.3645 87.8287 10.264 87.8287 10.065ZM81.7328 11.1624C80.16 11.1624 78.8113 11.7613 77.8615 12.7828V6.15755H74.6645V24.3492H77.8615V17.3958C77.8615 15.5518 79.0354 14.2801 80.9845 14.2801C82.8081 14.2801 83.8073 15.4021 83.8073 17.3958V24.3492H87.0043V16.8235C87.0043 13.2853 84.7818 11.1665 81.7328 11.1665M87.4032 11.267C86.8542 11.267 86.4286 10.8424 86.4286 10.2947C86.4286 9.74707 86.8542 9.34709 87.4032 9.34709C87.9521 9.34709 88.353 9.77168 88.353 10.2947C88.353 10.8178 87.9274 11.267 87.4032 11.267ZM87.4032 9.19736C86.7782 9.19736 86.2785 9.69579 86.2785 10.2947C86.2785 10.8937 86.7782 11.4167 87.4032 11.4167C88.0282 11.4167 88.5031 10.9183 88.5031 10.2947C88.5031 9.67118 88.0035 9.19736 87.4032 9.19736ZM67.9436 14.2555C69.2923 14.2555 70.3922 14.9529 71.2413 15.9251L73.4638 13.7325C72.2158 12.1633 70.2421 11.1665 67.9929 11.1665C64.1215 11.1665 61.0746 14.1078 61.0746 17.9455C61.0746 21.7832 64.1215 24.7246 67.9929 24.7246C70.24 24.7246 72.2138 23.7277 73.4638 22.1586L71.2413 19.9659C70.4169 20.9135 69.2923 21.6355 67.9189 21.6355C65.8711 21.6355 64.2963 20.0397 64.2963 17.9476C64.2963 15.8554 65.8691 14.2596 67.9436 14.2596M44.4892 7.63028H41.2922V11.5685H39.5693V14.4093H41.2922V24.3533H44.4892V14.4093H46.2368V11.5685H44.4892V7.63028ZM36.5717 5.81091C35.3978 5.81091 34.4726 6.73393 34.4726 7.92975C34.4726 9.12557 35.3978 10.024 36.5717 10.024C37.7457 10.024 38.7202 9.10096 38.7202 7.92975C38.7202 6.75854 37.795 5.81091 36.5717 5.81091ZM111.304 0V6.45292C106.203 6.45292 102.161 10.5368 102.161 15.5457C102.161 20.5546 106.201 24.6405 111.304 24.6405V31.0934C102.652 31.0934 95.6126 24.1236 95.6126 15.5477C95.6126 6.97186 102.652 0 111.304 0ZM111.526 12.752V19.1701H119.067V26.6937H125.5V12.752H111.526Z" fill="white"/>
</svg>
