<svg width="80" height="41" viewBox="0 0 80 41" fill="none" xmlns="http://www.w3.org/2000/svg">
<path d="M79.1965 1H0.401855V40H79.1965V1Z" fill="#058BAA" stroke="black" stroke-width="0.5" stroke-miterlimit="10"/>
<path d="M73.9436 5.14893H5.65491V35.8511H73.9436V5.14893Z" fill="#02A7D3"/>
<path d="M68.6906 8.46808H10.9078V32.5319H68.6906V8.46808Z" fill="#00B8FC"/>
<path d="M33.468 30L38.564 24.202C40.228 22.2607 41.216 21.056 41.528 20.588C42.204 19.5827 42.542 18.6553 42.542 17.806C42.542 17.026 42.2907 16.3933 41.788 15.908C41.3027 15.4227 40.696 15.18 39.968 15.18C39.136 15.18 38.4773 15.466 37.992 16.038C37.5067 16.5927 37.2467 17.2687 37.212 18.066H33.728C33.7973 16.3153 34.3953 14.9113 35.522 13.854C36.6487 12.7967 38.0787 12.268 39.812 12.268C41.7187 12.268 43.2093 12.814 44.284 13.906C45.376 14.998 45.922 16.2893 45.922 17.78C45.922 18.612 45.7313 19.444 45.35 20.276C44.9687 21.108 44.6047 21.7407 44.258 22.174C43.9113 22.59 43.4173 23.1447 42.776 23.838L39.786 27.088H46.052V30H33.468Z" fill="black"/>
</svg>
