<svg width="80" height="41" viewBox="0 0 80 41" fill="none" xmlns="http://www.w3.org/2000/svg">
<path d="M79.5982 1H0.803589V40H79.5982V1Z" fill="#058BAA" stroke="black" stroke-width="0.5" stroke-miterlimit="10"/>
<path d="M74.3452 5.14893H6.05652V35.8511H74.3452V5.14893Z" fill="#02A7D3"/>
<path d="M69.0923 8.46808H11.3096V32.5319H69.0923V8.46808Z" fill="#00B8FC"/>
<path d="M37.498 17.182H34.326C34.482 15.6393 35.08 14.4347 36.12 13.568C37.16 12.7013 38.4427 12.268 39.968 12.268C41.632 12.268 42.9493 12.7013 43.92 13.568C44.908 14.4347 45.402 15.596 45.402 17.052C45.402 18.7333 44.7347 19.9467 43.4 20.692C45.168 21.42 46.052 22.798 46.052 24.826C46.052 26.5593 45.4627 27.92 44.284 28.908C43.1227 29.896 41.6493 30.39 39.864 30.39C38.1653 30.39 36.7353 29.9047 35.574 28.934C34.4127 27.946 33.7627 26.6373 33.624 25.008H37.004C37.108 25.7533 37.4113 26.3513 37.914 26.802C38.4167 27.2527 39.0753 27.478 39.89 27.478C40.7913 27.478 41.476 27.2093 41.944 26.672C42.4293 26.1173 42.672 25.4673 42.672 24.722C42.672 23.994 42.4293 23.3613 41.944 22.824C41.476 22.2867 40.7567 22.018 39.786 22.018H39.344V19.574H39.812C40.592 19.574 41.1813 19.3487 41.58 18.898C41.9787 18.43 42.178 17.8667 42.178 17.208C42.178 16.5147 41.97 15.96 41.554 15.544C41.138 15.128 40.5833 14.92 39.89 14.92C39.2487 14.92 38.694 15.1193 38.226 15.518C37.7753 15.9167 37.5327 16.4713 37.498 17.182Z" fill="black"/>
</svg>
