<svg width="173" height="47" viewBox="0 0 173 47" fill="none" xmlns="http://www.w3.org/2000/svg">
<path d="M172.177 1H1V46.1786H172.177V1Z" fill="#058BAA" stroke="black" stroke-width="0.5" stroke-miterlimit="10"/>
<path d="M168.413 5.43573H4.60034V41.5786H168.413V5.43573Z" fill="#02A7D3"/>
<path d="M165.14 9.54285H7.87329V37.3071H165.14V9.54285Z" fill="#00B8FC"/>
<path d="M53.464 16.68H49.864V30H46.744V16.68H43.144V13.992H53.464V16.68ZM54.8269 20.736C55.8829 19.76 57.2829 19.272 59.0269 19.272C60.7709 19.272 62.1709 19.76 63.2269 20.736C64.3949 21.792 64.9789 23.152 64.9789 24.816C64.9789 26.464 64.3949 27.816 63.2269 28.872C62.1709 29.848 60.7709 30.336 59.0269 30.336C57.2829 30.336 55.8829 29.848 54.8269 28.872C53.6589 27.816 53.0749 26.464 53.0749 24.816C53.0749 23.152 53.6589 21.792 54.8269 20.736ZM56.9389 26.88C57.4989 27.456 58.1949 27.744 59.0269 27.744C59.8589 27.744 60.5549 27.456 61.1149 26.88C61.6749 26.304 61.9549 25.616 61.9549 24.816C61.9549 24 61.6749 23.304 61.1149 22.728C60.5549 22.152 59.8589 21.864 59.0269 21.864C58.1949 21.864 57.4989 22.152 56.9389 22.728C56.3789 23.304 56.0989 24 56.0989 24.816C56.0989 25.616 56.3789 26.304 56.9389 26.88ZM72.1876 22.104H70.1716V30H67.2436V22.104H66.0916V19.608H67.2436V16.056H70.1716V19.608H72.1876V22.104ZM81.6803 20.952V19.608H84.6083V30H81.6803V28.656C80.8963 29.776 79.8323 30.336 78.4883 30.336C76.9203 30.336 75.6403 29.8 74.6483 28.728C73.6723 27.656 73.1843 26.344 73.1843 24.792C73.1843 23.224 73.6643 21.912 74.6243 20.856C75.5843 19.8 76.8243 19.272 78.3443 19.272C79.8483 19.272 80.9603 19.832 81.6803 20.952ZM81.1523 22.704C80.6083 22.144 79.9203 21.864 79.0883 21.864C78.2563 21.864 77.5683 22.144 77.0243 22.704C76.4803 23.264 76.2083 23.96 76.2083 24.792C76.2083 25.624 76.4803 26.328 77.0243 26.904C77.5683 27.464 78.2563 27.744 79.0883 27.744C79.9203 27.744 80.6083 27.464 81.1523 26.904C81.6963 26.328 81.9683 25.624 81.9683 24.792C81.9683 23.96 81.6963 23.264 81.1523 22.704ZM87.3998 12.024H90.3278V30H87.3998V12.024ZM103.664 22.104H101.648V30H98.7201V22.104H97.5681V19.608H98.7201V16.056H101.648V19.608H103.664V22.104ZM106.413 20.736C107.469 19.76 108.869 19.272 110.613 19.272C112.357 19.272 113.757 19.76 114.813 20.736C115.981 21.792 116.565 23.152 116.565 24.816C116.565 26.464 115.981 27.816 114.813 28.872C113.757 29.848 112.357 30.336 110.613 30.336C108.869 30.336 107.469 29.848 106.413 28.872C105.245 27.816 104.661 26.464 104.661 24.816C104.661 23.152 105.245 21.792 106.413 20.736ZM108.525 26.88C109.085 27.456 109.781 27.744 110.613 27.744C111.445 27.744 112.141 27.456 112.701 26.88C113.261 26.304 113.541 25.616 113.541 24.816C113.541 24 113.261 23.304 112.701 22.728C112.141 22.152 111.445 21.864 110.613 21.864C109.781 21.864 109.085 22.152 108.525 22.728C107.965 23.304 107.685 24 107.685 24.816C107.685 25.616 107.965 26.304 108.525 26.88ZM121.758 28.656V35.568H118.83V19.608H121.758V20.952C122.558 19.832 123.686 19.272 125.142 19.272C126.662 19.272 127.894 19.792 128.838 20.832C129.782 21.872 130.254 23.192 130.254 24.792C130.254 26.392 129.766 27.72 128.79 28.776C127.83 29.816 126.59 30.336 125.07 30.336C123.678 30.336 122.574 29.776 121.758 28.656ZM126.414 22.704C125.87 22.144 125.182 21.864 124.35 21.864C123.518 21.864 122.83 22.144 122.286 22.704C121.742 23.264 121.47 23.96 121.47 24.792C121.47 25.624 121.742 26.328 122.286 26.904C122.83 27.464 123.518 27.744 124.35 27.744C125.182 27.744 125.87 27.464 126.414 26.904C126.958 26.328 127.23 25.624 127.23 24.792C127.23 23.96 126.958 23.264 126.414 22.704Z" fill="black"/>
</svg>
