<svg width="80" height="80" viewBox="0 0 80 80" fill="none" xmlns="http://www.w3.org/2000/svg">
<rect width="80" height="80" rx="40" fill="#0B0B0B"/>
<rect width="80" height="80" rx="40" fill="url(#paint0_linear_441_570)" fill-opacity="0.3"/>
<g clip-path="url(#clip0_441_570)">
<path d="M40 26.8835C44.2747 26.8835 44.7765 26.9026 46.4661 26.9788C48.0286 27.0486 48.8734 27.3091 49.4387 27.5314C50.1882 27.8236 50.7217 28.1665 51.2807 28.7255C51.8396 29.2845 52.189 29.818 52.4748 30.5675C52.6908 31.1328 52.9575 31.9776 53.0274 33.5401C53.1036 35.2297 53.1227 35.7315 53.1227 40.0062C53.1227 44.2809 53.1036 44.7827 53.0274 46.4722C52.9575 48.0347 52.6971 48.8795 52.4748 49.4448C52.1826 50.1943 51.8396 50.7279 51.2807 51.2868C50.7217 51.8458 50.1882 52.1951 49.4387 52.481C48.8734 52.6969 48.0286 52.9637 46.4661 53.0336C44.7765 53.1098 44.2747 53.1288 40 53.1288C35.7253 53.1288 35.2235 53.1098 33.5339 53.0336C31.9714 52.9637 31.1266 52.7033 30.5613 52.481C29.8118 52.1888 29.2783 51.8458 28.7193 51.2868C28.1604 50.7279 27.811 50.1943 27.5252 49.4448C27.3093 48.8795 27.0425 48.0347 26.9726 46.4722C26.8964 44.7827 26.8773 44.2809 26.8773 40.0062C26.8773 35.7315 26.8964 35.2297 26.9726 33.5401C27.0425 31.9776 27.3029 31.1328 27.5252 30.5675C27.8174 29.818 28.1604 29.2845 28.7193 28.7255C29.2783 28.1665 29.8118 27.8172 30.5613 27.5314C31.1266 27.3154 31.9714 27.0486 33.5339 26.9788C35.2235 26.8962 35.7316 26.8835 40 26.8835ZM40 23.9998C35.6554 23.9998 35.1092 24.0189 33.4006 24.0951C31.6983 24.1713 30.5359 24.4444 29.5197 24.8382C28.4653 25.2448 27.576 25.7974 26.6868 26.6866C25.7975 27.5758 25.2513 28.4714 24.8384 29.5195C24.4446 30.5357 24.1715 31.6981 24.0953 33.4067C24.0191 35.109 24 35.6552 24 39.9998C24 44.3444 24.0191 44.8906 24.0953 46.5993C24.1715 48.3015 24.4446 49.4639 24.8384 50.4865C25.2449 51.5409 25.7975 52.4301 26.6868 53.3194C27.576 54.2086 28.4716 54.7549 29.5197 55.1677C30.5359 55.5615 31.6983 55.8347 33.4069 55.9109C35.1155 55.9871 35.6554 56.0062 40.0064 56.0062C44.3573 56.0062 44.8972 55.9871 46.6058 55.9109C48.3081 55.8347 49.4704 55.5615 50.4931 55.1677C51.5475 54.7612 52.4367 54.2086 53.3259 53.3194C54.2152 52.4301 54.7614 51.5346 55.1743 50.4865C55.5681 49.4702 55.8412 48.3079 55.9175 46.5993C55.9937 44.8906 56.0127 44.3507 56.0127 39.9998C56.0127 35.6489 55.9937 35.109 55.9175 33.4004C55.8412 31.6981 55.5681 30.5357 55.1743 29.5131C54.7678 28.4587 54.2152 27.5695 53.3259 26.6802C52.4367 25.791 51.5411 25.2448 50.4931 24.8319C49.4768 24.4381 48.3144 24.165 46.6058 24.0887C44.8908 24.0189 44.3446 23.9998 40 23.9998Z" fill="white"/>
<path d="M40 26.8835C44.2747 26.8835 44.7765 26.9026 46.4661 26.9788C48.0286 27.0486 48.8734 27.3091 49.4387 27.5314C50.1882 27.8236 50.7217 28.1665 51.2807 28.7255C51.8396 29.2845 52.189 29.818 52.4748 30.5675C52.6908 31.1328 52.9575 31.9776 53.0274 33.5401C53.1036 35.2297 53.1227 35.7315 53.1227 40.0062C53.1227 44.2809 53.1036 44.7827 53.0274 46.4722C52.9575 48.0347 52.6971 48.8795 52.4748 49.4448C52.1826 50.1943 51.8396 50.7279 51.2807 51.2868C50.7217 51.8458 50.1882 52.1951 49.4387 52.481C48.8734 52.6969 48.0286 52.9637 46.4661 53.0336C44.7765 53.1098 44.2747 53.1288 40 53.1288C35.7253 53.1288 35.2235 53.1098 33.5339 53.0336C31.9714 52.9637 31.1266 52.7033 30.5613 52.481C29.8118 52.1888 29.2783 51.8458 28.7193 51.2868C28.1604 50.7279 27.811 50.1943 27.5252 49.4448C27.3093 48.8795 27.0425 48.0347 26.9726 46.4722C26.8964 44.7827 26.8773 44.2809 26.8773 40.0062C26.8773 35.7315 26.8964 35.2297 26.9726 33.5401C27.0425 31.9776 27.3029 31.1328 27.5252 30.5675C27.8174 29.818 28.1604 29.2845 28.7193 28.7255C29.2783 28.1665 29.8118 27.8172 30.5613 27.5314C31.1266 27.3154 31.9714 27.0486 33.5339 26.9788C35.2235 26.8962 35.7316 26.8835 40 26.8835Z" fill="white"/>
<path d="M40.0001 31.787C35.465 31.787 31.781 35.4647 31.781 40.0062C31.781 44.5477 35.4587 48.2253 40.0001 48.2253C44.5416 48.2253 48.2193 44.5477 48.2193 40.0062C48.2193 35.4647 44.5416 31.787 40.0001 31.787ZM40.0001 45.3353C37.0529 45.3353 34.6647 42.947 34.6647 39.9998C34.6647 37.0526 37.0529 34.6644 40.0001 34.6644C42.9473 34.6644 45.3356 37.0526 45.3356 39.9998C45.3356 42.947 42.9473 45.3353 40.0001 45.3353Z" fill="#0B0B0B"/>
<path d="M40.0001 31.787C35.465 31.787 31.781 35.4647 31.781 40.0062C31.781 44.5477 35.4587 48.2253 40.0001 48.2253C44.5416 48.2253 48.2193 44.5477 48.2193 40.0062C48.2193 35.4647 44.5416 31.787 40.0001 31.787ZM40.0001 45.3353C37.0529 45.3353 34.6647 42.947 34.6647 39.9998C34.6647 37.0526 37.0529 34.6644 40.0001 34.6644C42.9473 34.6644 45.3356 37.0526 45.3356 39.9998C45.3356 42.947 42.9473 45.3353 40.0001 45.3353Z" fill="url(#paint1_linear_441_570)" fill-opacity="0.3"/>
<path d="M48.543 33.375C49.6024 33.375 50.4612 32.5161 50.4612 31.4567C50.4612 30.3973 49.6024 29.5385 48.543 29.5385C47.4836 29.5385 46.6248 30.3973 46.6248 31.4567C46.6248 32.5161 47.4836 33.375 48.543 33.375Z" fill="#0B0B0B"/>
<path d="M48.543 33.375C49.6024 33.375 50.4612 32.5161 50.4612 31.4567C50.4612 30.3973 49.6024 29.5385 48.543 29.5385C47.4836 29.5385 46.6248 30.3973 46.6248 31.4567C46.6248 32.5161 47.4836 33.375 48.543 33.375Z" fill="url(#paint2_linear_441_570)" fill-opacity="0.3"/>
</g>
<rect x="0.333333" y="0.333333" width="79.3333" height="79.3333" rx="39.6667" stroke="white" stroke-opacity="0.06" stroke-width="0.666667"/>
<defs>
<linearGradient id="paint0_linear_441_570" x1="0" y1="0" x2="95.4796" y2="51.0461" gradientUnits="userSpaceOnUse">
<stop stop-color="white" stop-opacity="0.2"/>
<stop offset="1" stop-color="white" stop-opacity="0.12"/>
</linearGradient>
<linearGradient id="paint1_linear_441_570" x1="31.781" y1="31.787" x2="51.4" y2="42.2759" gradientUnits="userSpaceOnUse">
<stop stop-color="white" stop-opacity="0.2"/>
<stop offset="1" stop-color="white" stop-opacity="0.12"/>
</linearGradient>
<linearGradient id="paint2_linear_441_570" x1="46.6248" y1="29.5385" x2="51.2035" y2="31.9865" gradientUnits="userSpaceOnUse">
<stop stop-color="white" stop-opacity="0.2"/>
<stop offset="1" stop-color="white" stop-opacity="0.12"/>
</linearGradient>
<clipPath id="clip0_441_570">
<rect width="32" height="32" fill="white" transform="translate(24 23.9998)"/>
</clipPath>
</defs>
</svg>
