<svg width="80" height="80" viewBox="0 0 80 80" fill="none" xmlns="http://www.w3.org/2000/svg">
<rect width="80" height="80" rx="40" fill="#0B0B0B"/>
<rect width="80" height="80" rx="40" fill="url(#paint0_linear_441_572)" fill-opacity="0.3"/>
<path fill-rule="evenodd" clip-rule="evenodd" d="M26.7357 38.1998C34.8154 34.6796 40.2032 32.3588 42.899 31.2376C50.596 28.0361 52.1954 27.48 53.2378 27.4616C53.4671 27.4576 53.9797 27.5144 54.3118 27.7839C54.5922 28.0114 54.6693 28.3187 54.7063 28.5344C54.7432 28.7502 54.7892 29.2416 54.7526 29.6255C54.3355 34.0081 52.5307 44.6433 51.6125 49.5519C51.224 51.6288 50.459 52.3252 49.7184 52.3934C48.1089 52.5415 46.8867 51.3297 45.3278 50.3078C42.8884 48.7088 41.5104 47.7134 39.1425 46.153C36.4061 44.3498 38.18 43.3587 39.7395 41.7389C40.1476 41.315 47.2392 34.8647 47.3764 34.2796C47.3936 34.2064 47.4095 33.9336 47.2475 33.7895C47.0854 33.6455 46.8462 33.6948 46.6736 33.7339C46.429 33.7895 42.5321 36.3652 34.9829 41.4611C33.8768 42.2206 32.8749 42.5907 31.9772 42.5713C30.9876 42.5499 29.084 42.0118 27.6689 41.5518C25.9332 40.9876 24.5537 40.6893 24.6738 39.7311C24.7364 39.232 25.4237 38.7215 26.7357 38.1998Z" fill="white"/>
<rect x="0.333333" y="0.333333" width="79.3333" height="79.3333" rx="39.6667" stroke="white" stroke-opacity="0.06" stroke-width="0.666667"/>
<defs>
<linearGradient id="paint0_linear_441_572" x1="0" y1="0" x2="95.4796" y2="51.0461" gradientUnits="userSpaceOnUse">
<stop stop-color="white" stop-opacity="0.2"/>
<stop offset="1" stop-color="white" stop-opacity="0.12"/>
</linearGradient>
</defs>
</svg>
