<svg width="80" height="80" viewBox="0 0 80 80" fill="none" xmlns="http://www.w3.org/2000/svg">
<rect width="80" height="80" rx="40" fill="#0B0B0B"/>
<rect width="80" height="80" rx="40" fill="url(#paint0_linear_441_568)" fill-opacity="0.3"/>
<g clip-path="url(#clip0_441_568)">
<path d="M24 39.9998C24 31.1633 31.1634 23.9998 40 23.9998V23.9998C48.8366 23.9998 56 31.1633 56 39.9998V39.9998C56 48.8364 48.8366 55.9998 40 55.9998V55.9998C31.1634 55.9998 24 48.8364 24 39.9998V39.9998Z" fill="white"/>
<path d="M46.2281 44.6248L46.9375 39.9998H42.5V36.9998C42.5 35.7342 43.1188 34.4998 45.1063 34.4998H47.125V30.5623C47.125 30.5623 45.2938 30.2498 43.5438 30.2498C39.8875 30.2498 37.5 32.4654 37.5 36.4748V39.9998H33.4375V44.6248H37.5V55.8061C38.3156 55.9342 39.15 55.9998 40 55.9998C40.85 55.9998 41.6844 55.9342 42.5 55.8061V44.6248H46.2281Z" fill="#0B0B0B"/>
<path d="M46.2281 44.6248L46.9375 39.9998H42.5V36.9998C42.5 35.7342 43.1188 34.4998 45.1063 34.4998H47.125V30.5623C47.125 30.5623 45.2938 30.2498 43.5438 30.2498C39.8875 30.2498 37.5 32.4654 37.5 36.4748V39.9998H33.4375V44.6248H37.5V55.8061C38.3156 55.9342 39.15 55.9998 40 55.9998C40.85 55.9998 41.6844 55.9342 42.5 55.8061V44.6248H46.2281Z" fill="url(#paint1_linear_441_568)" fill-opacity="0.3"/>
</g>
<rect x="0.333333" y="0.333333" width="79.3333" height="79.3333" rx="39.6667" stroke="white" stroke-opacity="0.06" stroke-width="0.666667"/>
<defs>
<linearGradient id="paint0_linear_441_568" x1="0" y1="0" x2="95.4796" y2="51.0461" gradientUnits="userSpaceOnUse">
<stop stop-color="white" stop-opacity="0.2"/>
<stop offset="1" stop-color="white" stop-opacity="0.12"/>
</linearGradient>
<linearGradient id="paint1_linear_441_568" x1="33.4375" y1="30.2498" x2="52.8731" y2="35.7731" gradientUnits="userSpaceOnUse">
<stop stop-color="white" stop-opacity="0.2"/>
<stop offset="1" stop-color="white" stop-opacity="0.12"/>
</linearGradient>
<clipPath id="clip0_441_568">
<path d="M24 39.9998C24 31.1633 31.1634 23.9998 40 23.9998V23.9998C48.8366 23.9998 56 31.1633 56 39.9998V39.9998C56 48.8364 48.8366 55.9998 40 55.9998V55.9998C31.1634 55.9998 24 48.8364 24 39.9998V39.9998Z" fill="white"/>
</clipPath>
</defs>
</svg>
