<svg width="115" height="16" viewBox="0 0 115 16" fill="none" xmlns="http://www.w3.org/2000/svg">
<g clip-path="url(#clip0_331_612)">
<path d="M1.22809 5.32588C1.53518 3.86694 2.31368 2.55136 3.44206 1.58452C4.60866 0.539894 6.12269 -0.0256007 7.68411 0.000107142H16.4865C18.1456 0.000107142 19.3427 0.532968 20.0722 1.58452C20.8018 2.63607 21.0468 3.85201 20.7511 5.2862L19.6244 10.7112C19.3121 12.1522 18.5334 13.4481 17.4104 14.3959C16.2585 15.4565 14.7464 16.0327 13.1852 16.0058H4.38005C2.76604 16.0058 1.58018 15.4757 0.808389 14.3959C0.436213 13.861 0.182292 13.252 0.0637343 12.6101C-0.054823 11.9681 -0.0352622 11.308 0.121099 10.6743L1.22809 5.32588ZM12.9205 12.3863C13.6025 12.3886 14.2646 12.1555 14.7964 11.7259C15.3393 11.2923 15.7067 10.6747 15.8302 9.98841L16.6752 5.90693C16.8161 5.15865 16.709 4.57761 16.3597 4.15812C16.0105 3.73864 15.4922 3.49772 14.757 3.49772H7.97987C7.2998 3.48624 6.63818 3.72056 6.11517 4.15812C5.58473 4.60916 5.21733 5.22399 5.07015 5.90693L4.22512 10.0281C4.07865 10.7367 4.18851 11.3064 4.54905 11.7287C4.74743 11.9527 4.99372 12.1285 5.26938 12.2429C5.54504 12.3573 5.84289 12.4073 6.14052 12.3891L12.9205 12.3863Z" fill="white"/>
<path d="M110.8 5.90987L109.955 9.98852C109.834 10.675 109.466 11.2925 108.921 11.7232C108.388 12.1569 107.723 12.3913 107.037 12.3864H100.277C99.979 12.4042 99.681 12.3538 99.4053 12.2389C99.1296 12.124 98.8835 11.9477 98.6853 11.7232C98.3248 11.3065 98.2149 10.7368 98.3614 10.0225L99.7416 3.50349H108.89C109.609 3.50349 110.138 3.7189 110.493 4.1639C110.848 4.60889 110.938 5.15876 110.8 5.90987ZM114.873 5.28631C115.172 3.85212 114.944 2.622 114.197 1.58179C113.451 0.541576 112.271 0.000212031 110.612 0.000212031H82.8692H77.9568C76.9883 -0.011403 76.0298 0.198927 75.1541 0.61527C74.8136 0.781695 74.4885 0.978028 74.1823 1.20198C74.0274 1.31536 73.8753 1.44007 73.726 1.57329L73.5119 1.76886L73.264 2.01545L73.0528 2.24786C72.9852 2.32723 72.9204 2.40659 72.8528 2.48312L72.6669 2.72687C72.5486 2.89127 72.4359 3.05566 72.3345 3.22572C72.281 3.31075 72.2331 3.39578 72.1852 3.48648C71.8673 4.05634 71.6384 4.67197 71.5064 5.31182L71.2951 6.33786L70.3994 10.6603C70.1524 11.6998 70.2667 12.7932 70.7233 13.7582C70.8299 13.9722 70.9523 14.1778 71.0895 14.3733C71.1599 14.4725 71.236 14.5689 71.312 14.6567C71.3881 14.7446 71.4754 14.8381 71.5627 14.9175C71.619 14.9735 71.6783 15.0265 71.7402 15.0762C71.8626 15.1777 71.9905 15.2723 72.1233 15.3596C72.8935 15.8026 73.7718 16.0196 74.6583 15.986H84.1508C85.4676 15.9545 86.7327 15.4647 87.7309 14.6C88.7638 13.7982 89.4796 12.6529 89.7506 11.3689L89.7759 11.2385L90.7928 6.33786H82.9255L82.2495 9.54352H86.193L86.024 10.3513C85.852 10.8965 85.5176 11.3754 85.0663 11.7232C84.5377 12.1547 83.8766 12.3881 83.196 12.3836H76.3512C76.2837 12.3879 76.2159 12.3879 76.1484 12.3836C75.9283 12.3664 75.7119 12.3167 75.5062 12.2362C75.44 12.2102 75.3759 12.1789 75.3146 12.1426C75.1283 12.0384 74.9623 11.901 74.8245 11.7373C74.464 11.3207 74.3541 10.751 74.5006 10.0367L75.3456 5.9212C75.4901 5.23776 75.8556 4.62177 76.385 4.16957C76.8836 3.75115 77.5104 3.51886 78.1596 3.51199C78.1896 3.50909 78.2197 3.50909 78.2497 3.51199H95.77L94.2546 10.6886C94.0969 11.3175 94.0752 11.9732 94.1909 12.6112C94.3065 13.2493 94.5569 13.855 94.925 14.3875C95.6968 15.4645 96.877 16.0002 98.491 16.0002H107.319C108.88 16.0243 110.391 15.4474 111.544 14.3875C112.666 13.4389 113.444 12.1433 113.758 10.7028L114.873 5.28631Z" fill="#FF3535"/>
<path d="M41.8458 15.9972H37.8629L29.7196 5.56386L27.562 15.9972H23.5903L26.8972 0H30.8688L39.0065 10.4702L41.1698 0H45.1527L41.8458 15.9972Z" fill="white"/>
<path d="M67.0727 0.00292969L66.3319 3.56006H50.3665L51.1016 0.00292969H67.0727Z" fill="white"/>
<path d="M65.0813 9.56885H53.0593L52.4678 12.4344H64.4841L63.7433 15.9972H47.7976L49.7975 6.30933H65.7601L65.0813 9.56885Z" fill="white"/>
</g>
<defs>
<clipPath id="clip0_331_612">
<rect width="115" height="16" fill="white"/>
</clipPath>
</defs>
</svg>
